/* XPM */
static char *Brownie[] = {
/* width height ncolors chars_per_pixel */
"128 128 6 1",
/* colors */
"` c #3F3F1D1D1212",
"a c #64642E2E1D1D",
"b c #868649492E2E",
"c c #505027271717",
"d c #747437372727",
"e c #909058583939",
/* pixels */
"bbedbcaaaabdbdbbbbbdaddddaddbddaacaaddaaadaadbdebdddadddaccaaaadddaacaadaaadacaaadddaaccaadbbbddddacacaadccdddaaaaddaccadabbddaa",
"ddaaac`ccadbddbbddddbdbbbdddddadac`aadcdddaaddbeedaaaadcacaaaadddddacccaaabddcacaaddddacacadbdddbebaccaadacdddaaddadcccaaaaadacd",
"aadca````caadbebbbbedddbbdbddaacaccccaaaaaaaaddbebdddddaaaacadaadddaaaaddddbddaccaadddaaaccaadddbebdaaaadaadebbdedaaacccccaaaaca",
"addaa````caddeeedbebddddadddddaa`acc`acacccadddbebbebbdcccaadaddbedddaddddbbbddaaaaaddddacaaadddbbbddaddadaadbddddc`cc``caaadacd",
"abbeedc```adbbeeebebdaaadadddddaccc``cccc`cadddbbebebbdaaaaaaddddbbddbddadbdddadaacaadaddaaaddddbdddddddaadcadebdcc`aaaaddaadbdd",
"daadbdc```adbeeebbbbdaddddaddddac``c``cc`caadebbebbbeedaddddbddbddbbeebbddebddacaaaccaddddddddddbbdbddddacaccdbbda``addadaaadaad",
"dddbbbdc`caadbebbbbbddddbdddaaadaccac`ccccadbeeeebdbeedddddbbddbeddebeedddebdddacaaacaadaacaaaddebbbbddbbaccacbbedddddbdddadbddd",
"ccaaddbccaaacadddebbbbbbbbddaaadacddacc`cadbbeeeeeebebedddbbbbdbeeeeebbebbbbbddaccccccaadbaadbdbebbbdbdebdacccadbbddddbdaaaadddd",
"caacdddaadbdaaaadbbbebdbebddaddddadddaccccadbbbeeebbbbddaddddbbbbbeeebbeebbbddcc``ccccaadbdabdbdbebdddbbbddaaaaadbbddbbbddddddaa",
"````ddaaaddddddddbdebbbeebdbddbbbadbddddacccaabbebbdbddaaadddbeeeeeeeebbbddddaacccabacaddbbdbbbdbebbddbbddddaacaaddddbebbbbbdc`c",
"ac`adbddaddddddddddbeeebbbdbdbeebddddbddddaacacadddbddaaaaddbdbbebbbebbaaaaacaaaccdbdccaddddbbbabbbdddbbbddadaaccaaaddbeeebebdca",
"eddddbddadbbddddbedbeeebbbddbbbbbdddbdbdbebdddaaacaddaacaadddddbebbbbbbdadddaaaccaaaaaaddddddbbdbdddadadbddaaaaacaabddabedeebdbd",
"bebedddbbbbbedbdeebdeebdddbbbbddbddbdbdbbbbbdddddccbddaaccadddadbddddaaddaddacaccaaaacadbbbdbbbddaddbdaddddaaccaaadebdddeebeeeed",
"bbbddbbbebbeeebdeebdeeebddbbeeeadbdadbbbbdbddddbdaadeddacaddaaadcaadbbbbbdddaaaadaddacdbbeebeebaabbbdaadcacadddddddbedddeebbeeed",
"dddddddddbbbeeddeeedeeedbddbbbdddbacabdbbbddddddaadabbddaddddddcccddbbbddaaadddaddddaaddbeebebddbeebdddaaaddbbbddcaadbbbeebbdddd",
"dacaadddddddbebddeebeebbddabbddadddccadabeebdddadadadbddaabbaddaccaddbddaaadddddbbbdcadbebebdbdbbebebdddaaadbbddacccadddbbeddcaa",
"cacdaddadaddbbbdbebbbbebddadbdaaaadaccaadebbdddddddadebdddddaadaccaadddaccccaadbebbbdcdbddbbbbbbebbbebdaccaadddac``caaaaaaaaacaa",
"aaadddaaaddddbeeeeebbeebdaadddacaaddacccdbbbddbbbedddeeddbddadadc`ccadadc```caabbeeebdbbaaaaaddbdbbebdaac`caddaacc`cccc``cccacda",
"aaadbbdbaaddddebeeedbeedddadddaaddddccccaddbddbebbebbbebbddaaaaaa`ccdddda````cdadbeebbddaaaacdaabbbbbdacc`cdbbdddcddbbdaccccdada",
"daaadabdbaddddbbbeeebeebadadbdddbddaacccaaddddbbbdeebeeedbaacaaddaccadddac```caaabbebeebdadaaacdddbbeedaacabdddddddbbbbdacacadbd",
"daaadddbdddbdcdbbbbbbbbdaaaaadddddaacccccaaddddbddbbbdbdddaaaddadcacadddac````ccadbdbbbdadddddddbbbbeebddcdbbbbabbbbbdebbaaaaddd",
"daacadbbdadddcaddbbddbaacaaaadbbbbdaacdddaddddddbbddddaacddadbdaadccadddaac```cccddbbbddddbbddddeebebbbdacabebdbaaddddbeebdaaabd",
"addacddbddddacdaaaaadddcccccaaddbbddaaaddddddddddddaaadaaadaadacccccaadddda``````cddbbbddbddddddbdbbbbeddddebddddddbedbeebdaaddd",
"aadccdadbaaaacacccccaaacccaaaadbbbbbdadbdddddddddaaaaadbdaaddacc`cca`cadddda```c`cadabeebddbaaaaabbbdebdbbdedbbebedeebdeebacadaa",
"dadaacaddacadaaaacccaaacadaaaaddbbbbebeebddbbdadaaaacabddaaaaaa``cccccaddddc````cccaadebbdddaaaddabbebeeeddddeeeeedeebdeebdcabaa",
"acaaccaadaaadddaaccaaddaadddadddbbbbebeebddebaadbddaccddbdaacddaaaaacaadddac`cccaacccdbbbddbddcacadbebdebdaaabeeeddeeedeeeddcada",
"addacaaaaccadadadadaddaaadadbdaddbbeeeeeebdebdadddaac`ccdddacadaaadaccaadadc``caacaccaddbddbbdacccaabbdbeaacabeeebddeebeebbdadda",
"bddaaaacccccaaadaaadacaaaaadbddccadbbbeeebbbbaaadddaccccaaaa`cadaaddaccaaaac`caadaaacadddddbbddaadccadabbaacabeeebdbebbbbebddaad",
"dbdbddcccacaaadbdddddadddddbeebdcccaabbebbdbaaaadddaac`cccccccaaaddadccccccc`caadaaaacadddddddacaaccaadddddaaeebeeeeeebbeebddaad",
"dddddaaccaaaaaadddaacddddbbbeebbdaacacaddddddcaaddbddaaccccccaaaaadddacccccccadddaacaaddddddddaacccccccaaddaabbbeeeeeedbeeddddca",
"addbddaaaddddddddaacadbbdbbebebeebdddaaacaddaaadaddddaccccccaaaaccccacc`ccccaaddaddacaadaaddddaac`cccc`caddcadeeeeeeeeebeeeaddaa",
"aadddddddbbbbbbdc`c`ccdbbddbbdbbbbbddddaccddddddadbbdaaaaccaadddcc```````ccccdaaaadccacadadddddac```cccaaddacdbdbbbeeebbbbddaacc",
"caaaabddbdeeebebdcccaadebddbdbbbdbddddbdaaadddddddebdaaaccaaaaaac````````ccccddadadaacadaaaadaac````caaadddaadbcaabbebbdbddadaac",
"`cadddbbdabedeebdbdbddbbbdddddbbbddddddaaaccaddbdbbbdaccccaaaacccc``````ccccaddaacaaccaadcaaaaac`````aadaaaacaaacacadddbbdaaaaac",
"cccadbebdddeebeeebdbedbbbdaaadabeebdddaaaac`cadbddbdaaaaacaaaac`````c`ccccaacddaaddacaaaccccccaaaacdaadbdacccaddddaaacadddaaaada",
"cccabbeedddeebbeeebbbdbdddaacaadebbddddaaaccccaddbbdaaaaaaaaaaccaacaacccaaadddddbddaaaacccacadbdbbbdddbbdddcccadaddddccdbdaaddaa",
"acddbebbeebeebbddddadddddaaacccdbbbddbddccccccccadddaaaadaacaaccaaaaacacdaaddaddbbdbddc````cabbebbbbddbbaaadaccaaaadaccdddddbaac",
"ccadbbbbeebeeedbcaaccaaaaaaccccaddbdddddaaaaadaccbbdaaddaacaaaaaadaaaddadddddaaddddddaac`c`caddddbeebdbaaadacc``cccaccccaddddac`",
"ccadbeebbbdddaaac`c``cacaacccccaadddabdaaaaadddaadebbdedaaacadddaccaaddabdbdaccaaddbddaccccccdaadedebdddadddac````cc``ccaabdacc`",
"caaadbbbaaaaaaca`````cccccacccccaadadadaaaaddddaaadbddddcccaabbbbdadddbddaaaac`cdadddacccccccaaaddbeedaaaadaac`````````caaddaacc",
"c`caadddacadbdac`````cdaaccccaaacadddddaaaaaaddadcadebdcc`ccdabbbdbdbaaaaaaccc`ccaaaaaaaccccaadddddbebdddddacc`````````adddaaaac",
"cccccacaaaadddcc```cdbdddaccccccaaaaadddadaccaaaaccdbbda``caaddbbbbdbdaddbdacccacaaaaaaacccaaddadbbbebbbbbdc```````````ddddaddaa",
"acc`ccaaaaaadaac``aabeebdacc``cccaaadddddddaddddacacbbedaadaddddbbbddddabdbaaccddadddddaacaaaddaddbbbeeebebac``````cc`cdaadaddaa",
"aaac``cccacccacc``addbdddaaaccccaaaadadbddeebbbdaaccadbbddadaaaddddbbbdddbbbddabbddbddddcaaacddadebdabedeebddcaa`ccccccaccacabda",
"acaaccacacc``cc`c`cabdadbaacc``ccaaaaddbbbebeeeddaaaaadbbdaddadadcddddbaddbbebbbebdddadaacccccadbebbddeebeebdcaaaca```cccadaadda",
"adddaaaacc```````ccaddadddac`````caaaddbbbbbbbbeddda`cadadbdadccaccadddbbbbbeedeebddcaaaac`ccccddbedddeebbebddddddac`ccaadddadda",
"bddadaacaac````cacaaddddddddaacc`ccadaadbbbdbddbdddaaccaaaddddaccccadddbbbebbbdddaaaccccccacaadddbbebbeebbddadaddac```aadadddddd",
"bbdbddaaddac`cddbbbbbdadddbdaadaaccaaaaddbbdbbddbdddac`acacccacaccadbbdbbbbbaaaaaaca``ccccaadbbbddbbbdbeedbcaaaddaa```caddbbdadd",
"dddddaacaaacadebbbeeebdbddbddddaaaaaccaaddbddbebebaacc`cccc`ccccaccabbbddbdddaddbdaa``c`ccaaaddddbbbbbdddddccadddddaaccabdddbaad",
"adddadadddddbedbbdbbbeddebdadbaaaaaacaacadbbaddbbbaacccccc``cccaaaadbdddadaaadabddaa```c`cadabbbbbbbbbdddddaccadaddbddaddbbbdaca",
"aaaabbbdddddebbbbbeddbbeebdddeddac`c````ddddaadbbbbaccccacc``caaaaaadaaaddbbbbddbbdac`ccccddddddddddbbbdddddaadaaadaaddaaddddccc",
"caadbbbddddbebbbbbeeddebeedbbeebbdcaac`adbaacacadbddaacccccccccaaacadbdddbbbddcaadddc`cccdddddaaadaadbdaddaaaaaaaadddddddddbddca",
"ccddbbbbdbbbbadbbdbeeeeebbeeebebbdbdedddddac`cccaaaadadcccc```ccccadbddaddbddacccaddaccaaaaadcaadaccaddaddaddacccadaaaccaadddcc`",
"addbbbbeebadacaddbbbbeeebbbbeebeeeedeebeddac```caaadaaaacaccccccccadddaaadddac```acccccaccaddaddddaddddadaaaaaacadddaaccccddbdca",
"ddddbbebdaccccddbeeeeeeeebbbeebbeeebeebbdbbac`caaadddaaaaaacaaaccccadaaccadadc``````ccaaccadaadddeebbbdaaacacc`cadddaaccc`dddaca",
"daabbbbddacc`cdbddbebbbebbddbbbbdddddbbeeeddccaaccaddaaccccccddbacccadcacaddda`````caadaccaadddbbebeeebadccc```cadbdddaaccabaaaa",
"acdddbdbdccc`addddbebbbbbbddbbedbcaaaaddbbbbdaaddaddacc`ccccddbbdaccaddcccdddac````caadddaaaddadbbbbbbbdadac```caddddddaaccaaaaa",
"dddddddddaaccaddaadbddddaaadddaaac`ccaaddddbdaaaddddc````ccaaddbddccaaaacaaddac````ccadddaadddadbddbddbdddac```caddddbddaacccdad",
"dddbddddddaaccaaaadcaadbbbbdaaaca```````caddbaadbdbdaccc``cadadddadcacdaccdddaac```caaddcdaddddddddbbddbddac```acadaddddaaacdadd",
"bddddddddddaaaaaddcccddbbbddaddaa``````ccddbbddbdbddaddbddaaadaaaacacaaacaadadda```aaaddddaddddbadadbebbdacc``cdcacaaaabdddaaadd",
"ddaadddddbddddacadaccaddbddaaadaa`````ccaddbdaddddbddddeedbaaaaadaa`acacaccaaadda`caaadaaaaddadaaadbbbbbdacc``ddcccccaaaaaaaaaad",
"acaaaaacaaaaaaacadaccaddddaccaadaa`c`ccaddddaaaddddddddbebbddbacaaaccccccccaaaaac`cccddadaadddddddbebbbbbdac``daaacccccaadaaaaaa",
"cccccccccadbdddaddddaaddbddaccaadaacccddbbdddadddddddaddbbeebddcaca```cccccaaaacc`aaaddddcaaddddddebbbbbbbdcccdaaaacc``ccccccccc",
"ccc`cccabbbdddddbddbadddbbdddaccaaaacddbeedacaadddbdaaaaaddbbbbdaaaccccccccaaccaa`ccaabddaacadddddebbbbbebdacadccaaccc````cc`ccc",
"cccacadbeebddddbbdbbbdbddbbbeddadaddddddbebddaaadddacccccaddbbedaaaccccccaddaccaaccadddaaaccadddbbbddbdbbdddaaacadacdac```cccccc",
"ccccccbeebebdbbbdddbddbbddbbbbbbbbbdadbbbebddaaadddac``````cadddaacccccddbbbacaaacccddaaacaccddbadaaaddbdcaaaaaddddcaaaaaccaaaac",
"caaddbbebbbedddddbddddbbeeebbbebeeebdbdbbbeebdddaaaaacc`c```aaaaaacccccbbebedaaaccacabdadadaaaddacccdbdddccaaaaddddaaaddaccccaac",
"cccaddbdbbbbddadbddaaddbbeebbebbbbbeddebdabedbdaaaaaaacccacaaaccaaccddbbebbbbdddaaddaddaacaccadacc`abddadc`cacaddbbdadddacccaacc",
"ccaadaaddbbbdaddbbdbdddbbeeeebbbeddbbeebbddebdbdddadddddddaddaa`ccccaddbdbbebbdaddddaddaaddacaddaacabacaaa`ccccdddbbaaadacaaaaca",
"addaacdadddbbaaddddddadddddbbbddeeddebeedddeeddbdddbbddebbdbbdaccccdadaaddbbbbdaddddddddbddaaadddacadaacaacddccadbedacaaaaaaaddc",
"dbddbdadddbeddcaaddbddaddacaaaddbeeeeebbeebeebbddddbbbbdddddddbdccaaaacdddbbbebdddddaaadbbdbddaaaaccac``caaadcccadddcccaacccadda",
"bddbbbaaaadddcccdaddddaaa````ccddbbeeebbeebeeedbdddbeedd`ccccacaaaddddddbbebbbbbdadaaaaddddddaaaaaccac``ccaadaccaddddcacccccaaad",
"dbbebedccaddddcacaaaadaac`````cabbbeeeebbbdddaddaddddaac`````cccaadddbddbbbbbbbdddddaaaaadddadc`cccccccc`cccaccccaaacc`cccaccadd",
"ddbbbbdcccaaacc`cccaaaacc``````caddddbbbaaaaadaaaaaaaa```````c`caaddbbddddbdbbdddddddddaaadaaaacc````aaacc``ccc`caaaccccc`ccadda",
"ddbbdedaccaaaccacccccaac````````cacaddddacadbdddaaaddaa`````ccacaadaabddadddbbddddddddaacccaaaaaccacccccccccccccccaacaaac`caadaa",
"cadbbebccccadcddacc``ccc````````c`ccaadaaacdbbddaaaddacc``ccccaaacacaadbbdbbbddaaaddbddcccccacacacaacc`c`cccccccccccccaaaccaddac",
"cadbbbdacacacccadacc```````````cccadccaacacdddddcaadaccccccaaadbbaccaadbddbbbbaccdaddddaaa`ccccccccccac`c`cccccccacccacacccaddaa",
"cadbeddcaac``cacccaac`````````caaddaccacccadbbbdaddddaaaaacaadbebdacccadddddbddcacaaaabddaaccc`cc`cccaacccdddaaaddaaaaccccaaddda",
"ddbeedaaaa``caadaacacacc``````caaaaac`caaaadbbbdddddebbdddadddbbbddaaaaaadaddacc`cccaaaaaacccccccccccaacabebbdaddddbddaccaaddddd",
"daabeddcaacccccaaaaadacadadadaadbdaac``caadbeebbbbbbebebedddaddbddadaccaaadadaacacccccaadaaaacc`c``ccaddbebbdaaadddddaacccdaaadd",
"cddbbbaccacccccccacddbdbdbbbdddbbdddaacadbbbbbbebdbebbbbbeddbbddddaaaccccdddddaddacc``cccccccccc````caaabbbbbdaaaddbddaaaadddabd",
"daddedaaccc``````caddbbbebbbbddbbaddbddabbbbbdebbbeebbeddbbeebbddddaccc`cebddcccadacc````cc`ccacccccccaabdddaaacaaaddddaddbbddbd",
"aadbebddcccc`c```ccaadbbddbeebdbaaadaaddaaddddbeeebbbbeeddebeedddbbdccccaebdaacacccaac```cccccadaccacccccccc`ccacaaddbbdddbbddba",
"dadbbddaacacc``cccccaadaadedebdddadbddddddbbedbeeebbedbeeeeebbebbbdaccaadbbdaaaadaacaaaaccaadaaddcadaaacaccc``ccaaaaddddddbbadbd",
"bddbbbddaacccc`acccaccaacddbeedaaaaddddccaabbbdeebddbbbbbeeebbeebbbdaaaadbbacaaaaaaadddaccccadcadaaacaaaddac`ccccaaaadddddbddbdb",
"bdbbbddcccaac``cccccacaaadddbebddddddaacaaabeebeeebdbbebeeeeebbbdddaaaaddbddaaccaaaaaaaaccc`ccaadddaaadaddddacccaaaccaddddbbbdbb",
"ddddaaac`ccacc`cccc`cccccdbbbebbbbbdc`c``cadeebbebddddbbbbbebbaaaaaaaaadabbdacccaaddddddacccc`cdaadadddbdaaddcccaaaaadbebbebeebb",
"aaaaaca`````ccccccc````ccdabbbeeebebdcaaaadbeebbbbdbdadbddbbbbdadadddaddddddaccbbbdaddadddaacccadadaddbebdadbdaccadadadbedbdebba",
"addbdaa``````cccacc````cadebdabedeebdbdebbbbbbbdbcdddaaaadddaaadadddaaadaadddddbebdddddbbbddaaadaddadbbeedddebacccaaaddbebbbbbbd",
"dabddaa```````ccaac````adbebdddeebeeeedebbbdddaaaccaadacaadbbbbbdddaadadaaaadbbbbebdbddbddddaddddddddbebbeebbbdcccddddadbddddaaa",
"bddbbdac``````caddaccccaddeedddeebbebbbbedaaaaaca```cadaaddbbbddaaaaaacaaccaddbbbbeebaddbbbaddbbddddbebbbeebbddccaddadadcaadbbbb",
"dcaadddc``````aaddaccdaddbddeebeebbdddbbbdaddbdaac`ccaddcdddbddaaaaacaddacaaddabbebbdacbbddbaaddaddbbeeebbbddaccaadddddcccddbbbd",
"acaadbdd`cc``adbadddddaaddddbebeeeddaadaaadabbdaacc`ccaaaadddddaacaaadddaaaacaddbbbddadbbddddddbbddbbdbbbaaaaaaaadbbaddaccadbbdd",
"c``cdddadabdddddaacadaaaadddbddddaaacabbbbbddddddacacccaaaaddddaac`aadddbddccaddbbeeddabdbbebedeebdbbdbddaaaabdaddbddadaccaaddda",
"cccaaddbbabebeaaaacabdadadddaaaaaaccadbbbddcaadddadaacccaadddddddaccadddddaacadbbbeebdaddeeeeedeebdbdddaaaaadddadbddadadc`ccadaa",
"cccaadbbbbeebbddbdaaddaacaaaaadddaccadbbddaaaaadddddaacaadadadadcc``caddbddaaadbbbbbbdaaabeeeddeeedbbddbdddadddabbdaaaaaa`ccaada",
"aaadaddddddbbeebdddaddaaddacadaddaccaadddaaadddddbbdbddaaaaaaaaaacc`caaddddaaaadbbbbbddcabeeebddeebbebbbbddcaacadddaaaaddacccaaa",
"aaaadabcaaaaddbbbbdadddbddaaddadddc`ccadadcaabddebdaddcaaacaccccaaacccaaaabddcadbbdbbddaabeeebdbebbbbbbbbbaccc`cbbdaaddadcc`ccaa",
"daaacaac`ccaaddbdbbdaddbbdbddacaaaa`ccdddddaaddeebbddbdaccccc`ccaccc`cccaaaaacaddddddddaaeebeeeeeebbeebbbdacccaadebbdedaaac`ccad",
"dddaacc```````ccddbdaaddddddacccaddaccadddddddbbeeddaebaccc`````acccacccccaadccaaadadadaabbbeeeeeedbebbbeedaacadaddddddc`````cdb",
"bbbbdcc````````adbeddcaaddbddc`caadcacadbdbbebeebbeebbbaacc`c```aacddacc``ccaaacadddadbcddeeeeeeeeebeebdeebddcddaadebdcc````cdbd",
"bbddac````````caddddcccdaddddccacaaaccaddbdbbbeebbeebbbdac```cc`acccadaccc``caccaaddddddccadbbbeeebbbbbbbbbdacadaadddda````cddad",
"dddcaaaccc```ccaaddddcccdaaddaaadcccccaaddbbeeeeebbbdddaac````c`cccaaacdaacdaacaaaaaadbddaccaabbebbdbdddbbeddddbaaaddddccccadadd",
"cadacccc`cccc`c`adbdacccadddddddddccca`cabbbbbbebbaaaaaaadacccaacaaadaacaddddaaaaccadbbbddaacacadddbddaddebdbbadaacaaddaccaddaac",
"aaac``aaaaaaccccadbddaacddaddddbbddaacccddbbbbbbbbdaddbadabddadaaddadddaddbbdbddcccdddbdbbbdddaaacadddddbbeeedaacacccadaacdddaac",
"caca`cccccddccacddbdddddddddddddddddaaccdddbddadaaadabdaaaaaadacadaadddaaddddddaacccadaddbdddddddccbbdadbbdebdccccccbddaadddddaa",
"dddaccccccbc`ccdbbdddbdddddddcaaddbddaacdaaccacaddddaddaadddddddddaddbddcaaddbddacccadaadadddddbdaadebddbbdbeaacaadbbbbdadddbddd",
"aaaaaacc``c```adbbdddbdddddacccdadddddaaaaaacc`acacacccccdddbdadbdddaadcccdaddddaacccdaaddddddddaaaadddddedbbaaccabeebbddbddddbb",
"dddccaac``````adbbddddddddaaa`ccaaaabaacaadddaccccccaccaadddbaadbbdddaadcacaaaabdaacaaaaaddddddaaadcadbddeeebbdadbbebbbebbadaabe",
"ddaacaccc`cc``adbddcaaddbddacc`cccaaaccccadaaac``ccacabdddddddaaebbdddacc`cccaaaaadacaaaaddbddddacaccdbbbebeddaaddbdbbebbaacccdb",
"ebdaacaca`ccc`caddcccdaddddaccccc`ccacccaaadddaa`caabbebbbbbbbddebbbddaccacccccaadaccaacadbbddbbbaccaadbbdbbbbbadaabbbbbdacccabb",
"deeaacacac`c``cadddcacaaadbdcaaacc``c```aaddddaaddaadedebbbbeeeeebbbbdacadacc``caccacaaadbdddbdbbdaccaaaddbbbddaacdddbbeedaccaad",
"beeddadcda````caaac``cccaaaaaccaccccc`ccdbebadadbddddeebbbbbbeeeeedbbbaccaaacccccaaaccaddedddbbbbddaacadddddbbdddddbbbbebbdacacd",
"bbedaadaaaccc`caaacccc```caaaacc`cccaaaabdbbdcacaddddeebbbeeeeeeeebbebdaaaacaaacacccaadddddbbbedddaaaccaaaadbdddbddeebebbbac```d",
"bdbadddddbdcaaadadcaac````ccacc`cccaaaddaaaacccccadbbbebdaadbbbeeeddbbddaddaaddddaaccdddaaabbeeddddacacccadbdbbbbbdbdbdbbbaac`ad",
"ddaadbddbbdaddaaaaaccc```````c`ccccddddddadac`c```addbbedaccaabbebdddadacadddddddaacadbaacabeeeddddaccc`cddadbbdbddabbbabddbdddd",
"ddaadbdddddaadaaadaac````c```ccccccddddccccc```````ccadaadaacacaddddddadaaddddaaaaaaadbdacabbeebdbbbddcccdadddddadbbdbbbbbbbbbed",
"dedcdbbdbcaaaaacddada```cccccaaaaaaddaaccccc````````ccaaadddadaaacadacaacaddbdddaacdadbbdaaeebebbddddaacaaaaccddaadaaddbddddddbd",
"bddaadaaacccaadaddaddcccacaaccaddbbdc```````````````ccaaadddaddddccddaccaaaadddddacacaddbaabbbbbdbdbddaaaaaa`cadaadacacaaaadaadd",
"addaaaaca`ccaddadbdddacaaaaacaadbbebdccc`````````````ccaaadddddbdaadbdaadaaabbddbbaccadbbaddebbbdadddaaaaccccaaaaaaaacccccaaacca",
"cadddddaaccadeddbddbddddaddaccadaeebdbdbdac````````c`caaaddaddddaaaadddaddaadbddbbdaacddbdccaddbddaaddaaacccdadadaddaaccccabdc``",
"cadddddaac`cdbeddebaaddaddadaacadbeeeedbbda```````cccaacadbddddaaadcadbddaaaaddbdbddaaddbddcccaaddddaacaaacaadddaaddaaacadbbda``",
"cdddddaaaccaadbbeebbddedbdddaccabdbeeebbbddc`````caaddacadddddddacaccdbdaaadaadbdddadaadbdbdaacaaaaaaaaadbddbedddadccccaabebddcc",
"addddaaaaacadddebeedddeebdddaaccadddddddddda`````caaaaaccaddddbebaccacdddacacaddddaacaadbbeebdddaaaaadaaddddebddddcccddbbbebddaa",
"aabdddddbdadbeeeebbeebbebaddaaaaaddbcaaaadadadadaadbdaac`cadabbebdacccaddbaccaadddddacadddbbbbdddddaaddadaddeeeaddaccadddbdbbdaa",
"adbbbbbdbbbbdbeeebbeebbbbaadacaccaaaccccccadbbbdddbbdddaccaaddbbbddaaaaadbdaacadddaaacaddbbdbddddbddadbdaaabbbddadaccaadaaddbdac",
"dbddeeebeedbdbeeeebbbdddaaddbaccacadcc`cc`cddbbbddbbaddddaaaadddddadaccaddddaaaadbaacccdddbbdddddddddaddaaddbddadadc`ccaadddbdda",
"dbbbdddddbbbbdbbebbaaaaaaaadbdaccccaaaccacacdbeebdbaaadaaccadddddaacacaaaddaaaaadbdaacccdabeebdddadadaadaacdbdaaaaaa`ccddddbbddd"
};
