/* XPM */
static char *Circle[] = {
/* width height ncolors chars_per_pixel */
"64 64 4 1",
/* colors */
"` c #000000000000",
"a c #04044343B0B0",
"b c #020222225B5B",
"c c #06066060FFFF",
/* pixels */
"``````bbbbbbbbbbbbbbbbbbbbbbbbbbbbbbbbbbbbbbbbbbbbbbbbbbbb``aaa`",
"aaabb```````````````````````````````````````````````````````aaa`",
"aaaabbbbbb```````````````````bbb`bbb````````````````aaaaaab`aaa`",
"aaaaaabbbbbbb``````````cccb``cab`cab``bccc`````````aaabbbbb`aab`",
"``````aaabbbbbbbb```cccaaab``cab`cab``baaaccc````aabbbbbbb``abb`",
"bbbbb````aaabbbb``ccaaaabbb`caab`caab`bbbaaaac```bbbbbb`````abb`",
"ab`bba``````aa``ccaabbbb````cab```cab````bbaaacc``bb```````abb`c",
"ab`bba`````````caabbbb``````cab```cab``````bbbaac``````````abb`c",
"ab`bba````````caabbb```````caab```cab````````bbaac`````````abb`c",
"ab`bbba``````caabb```b`````caab```caab````aaa`bbaac```````aabb`c",
"ab``bba`````caabb``bbbb````aab`````cab```aabbb`bbaac``````abb``c",
"ab``bba````caabb```abbbb``caab`````cab``abbbb```bbaac`````abb``c",
"ab``bbba``caabb`````abbbb`caab`````cab`abbbb`````bbaac```abbb``c",
"ab```bba``aabb```````abbbb`ab```````c`abbbb```````bbaac``abb```c",
"ab```bbba`abb`````````abbb`ab```````c`abbb`````````bbaa`abbb```c",
"ab````bba`bb```````````abbb``````````abbb```````````bba`abb````c",
"ab````bbba`b```````````abbb``````````abb`````````````b`abbb````c",
"ab`````bbba```````````b`abbb````````abbb`b````````````abbb`````c",
"ab``````bbba`````````cab`abb````````abb`bac``````````abbb``````c",
"ab````b`bbbba```````caaa`a``cccccc`abb``baac````````abbbbbb````c",
"ab````cbbbbbba`````caaab``ccaaaaaa`abb``bbaac``````abbbb`bb````c",
"ab````cbb`bbbba```caaab``cabb``````abb`b``baac````abbbb`bbb````c",
"ab````cbb``bbbb``caaab`ccab``b````abbb`bb``bbac``abbbb``cab````c",
"ab```cab````bb`ccaabb``cab`abb````abbb`bab`bbbac``bbb````cab```c",
"ab```cab``````caaab```cab``abb````abb```cab``bbacc```````cab```c",
"ab```cab````ccaaab`a```````abb````abb````cab``bbaacc`````cab```c",
"ab```cb``cccaaabb`bbaaa`````bbb``abbb`````ca`a`bbbbaccc```ca```c",
"ab``cab`ccaaabb```bbbbbaaaa`aba```````aaa`ca`bb``bbbaaacc`cab``c",
"````cab`aabbb```````bbbbbbb`aaa`aaaaaabbbb`cab`````bbbaaa`cab```",
"ccc`cab`bb`````````````bbbb`aaa`aaaaaabbbb`ca`````````bbb`cab`cc",
"aaa`cab`````````````bb``````aaa`aaaabb`````ca`````````````cab`aa",
"bbb`cab`````````````ca``````aaa````````````ca`````````````cab`bb",
"````cab`````````````ca````````````aaa``````ca`````````````cab```",
"ccc`cab`````````````ca``````aaaab`aaa``````ca`````````````cab`cc",
"aaa`cab`ccc`````````ca`aaaaaaaaab`aaa`aaaa````````````ccc`cab`aa",
"bbb`cab`aaacc```````cab`bbbbbaaab`aaa`bbbbaa```````cccaaa`cab`bb",
"````cab`bbbaacc```aacab`bbb```````aaa`bbbbbbbaa``ccaaaabb`cab```",
"bb``cab``bbbbaacc`bb`bac```abb````abb`````bbbb`ccaabbbb```cab``b",
"ab```cab````bbbaaccb`baac``abb````abb```c````ccaabb``````cab```c",
"ab```cab``````bbbaac``baac`abb````abb``caa``caabbb```````cab```c",
"ab```cab````aa`bbbaac``baa`abb````bb``caab`caabbb`bbb````cab```c",
"ab```caab``abbb``bbaac``bb`abb``````ccab``caabb``bbbbb``cabb```c",
"ab````cab`abbbb```bbaac```abb`ccccccaab``caabb````bbbbb`cab````c",
"ab````ca`abbbb`````bbaac`abbb`aaaaaa````caabb``````abbbb`ab````c",
"ab``````abbbb```````bbaa`abb````````bba`aabb````````abbbb``````c",
"ab`````abbbb`````````bb`abbb````````bbba`bbb`````````abbbb`````c",
"ab`````abbb```````````b`abb``````````bba`bb```````````abbb`````c",
"ab````abbb`b```````````abbb``````````bbba````````````b`abbb````c",
"ab````abb`bbb`````````abbb```````````bbbba``````````cbb`abb````c",
"ab```abbb`bbc````````abbb``b````````b``bbba`````````cab``abb```c",
"ab```abb``baac``````abbbb`bbb```````bb`bbbba```````caab``abb```c",
"ab``abbb```baac````abbbb`bcabb`````cabb`bbbba`````caab```abbb``c",
"ab``abb`````baacc`abbbb```ccab`````cab```bbbba``ccaab`````abb``c",
"ab`aabb``````baaac`bbb`````cab`````cab````bbb``caaab``````abb``c",
"ab`abbb```````baaac````````cabb```ccb``````b`ccaaab```````abbb`c",
"ab`abb`````````bbaacc```````cab```cab```````caaabb`````````abb`c",
"ab`abb``````aaa``baaacc`````cab```cab````cccaaab``aa```````abb`c",
"ab`abb```aaabbbbb`bbaaacccb`cab```cab`cccaaaabb`bbbbaaa````abb`c",
"``abb`aaabbbbbb`````bbbaaaab`cab`ccab`baaabbb````bbbbbbaaa``````",
"a`aab`bbbbbbb``````````bbbbb`cab`cab`bbbbb`````````bbbbbbbaaaaaa",
"b`aaa`bbbb```````````````````cab`cab``````````````````bbbbbbaaaa",
"b`aaa````````````````````````aab`aab``````````````````````bbbaaa",
"``aaa`acccccccccccccccccccccccccccccccccccccccccccccccccca``````",
"a`aaa`bbbaaaaaaaaaaaaaaaaaaaaaaaaaaaaaaaaaaaaaaaaaaaaaabbbb`abb`"
};
