/* XPM */
static char *Darkblue2[] = {
/* width height ncolors chars_per_pixel */
"64 64 11 1",
/* colors */
"` c #000000000000",
"a c #000000001010",
"b c #000000004444",
"c c #000000005454",
"d c #000000008888",
"e c #000000009898",
"f c #000000002222",
"g c #000000003232",
"h c #000000006666",
"i c #000000007676",
"j c #00000000AAAA",
/* pixels */
"faa`fbidei`aaffffffgchbgfffbcbgggbchhihcbffffgggbgffgbfgccbbbbgg",
"ffa``bhdejb`aaffaffgbcbgfffbcbgggbcchhhhbffffgggbgffgbgfbbbbbbgg",
"ffaa`ghdejda`aaaaaffbcbffffbcbbbbbcchhihbffffggbbbffgbgafbbbbggg",
"fffa`fciejdbf`aaaaafbcbffffbcbbbbbcchhihbgaffgggbbffgbgfagbggggg",
"fffa`fbhddicba``a`aabcbffffbcbbbgbcchiihbgfafgggbbfffggfafggggff",
"ffaa`fgchcbcgf`````agcbffffbccbggccchihcbffaffggbbfffggfaaggffff",
"aaa``aaggfbcgfa````afbbffffbcbggbcchiihcgffffffgbbgffggfaafffffa",
"aaa``````fhcgga```a`agbfffgccbbchcchiihbggfffffggbgffggfa`affffa",
"a``````a`cihbga``affaabgffgccbchhchhiihbgggggfgggbgffggfaaafffaa",
"a````aa`fiihcc`a`afbaaggffgcccihhchhiicbbbbbgggggggggggffffaaaaa",
"``ff`aa`bhhhhi`aaagcb`fbffgchiihhhhhiicbccbbbbgggbgggggffffaaaaa",
"``gcf``fbcccdi`aaagchaagfafciiihhhhhiiccccccccbbbbbgggfggfffaaaa",
"``ghcfafgbfbdi`aaagcig`ffafchiiiihhiihcccchhhcccbbbggffgggffaaaa",
"``ghhgaffa`bdi`a`agcic`agaabhiidihhiihcccchhhhhccbbbffgbbggfaaa`",
"``ghhbf````bdh`a`afchbaagaafciidihiiihccchhhihhhhccbffbbbggffaaa",
"``ghib`````bdbaa``fccga`fa`abhiiihidihcchhhhiiiihhcbfgbcbbggffaa",
"a`fiib`a```bd`fa``abga``af`afciiihidihhhhhhhiiiiihcgggccbbbbggfa",
"a`giif`a```bcafaa`aa```aff``abhiihidihhhhhhhiiiiihbggbccbbcbbgfa",
"a`giif`a```cbafaa```aaaaffa``fbhhhidihhhhhhiiiiiihbgbcccbcccbgga",
"a`fhcfaaa``bafffa``aafffffa``agchhhiihhhhhhiiiiiicbbccccbbccbbgf",
"gfa`baaaa``b`fffaaaffggggf`a``fbchchihhhhhhiiiiiihccccccbbcccbbb",
"cbga``aaa`abagfaaafgbbbbga````agccccihhhhhhiiiiiihcccccbgbcccchh",
"hcggfaaaa`agagfaaagbccbbfaaaa``fgccbchchhhhiihiiihcbbccbgbbcccii",
"hcbbgffa``ffagffaagbhccbffffa``afbbbbhcchhhhhhhiihcbchcbggbcccii",
"hhcbbgfaa`fafgffafbchccbgbggfaaaagbbbbcbchhhhhhhihcbhhcbggbcbcii",
"fhhcbgffa`a`fgggafbchcccccbggfaaafggggbbbchhhcchhhchhhcbggbbbchh",
"hghcbgffa```fgggaabchcchhcbbgfffaafgfggbgbhihcchhhhhhhccgfgbbbhh",
"hhhcbggfaaafggggaagchchhhccbgggfaafgfffgbfbhhcchhhhhhhccgfgbbbcc",
"hcccbbggfffgbgggaagchchhhcccccbgfffgfafggffchcccchhhhhccgfgbbbcc",
"bcccbbbbggbbbbggaagbhchhhcchiihcbgggfaafffafccbbcchhhhccgfggbbbb",
"gbccbgbbbcccbbggaagbcchhhccidiihcbbgfa`afffagcbbbcccccccgfgggbbb",
"gbbbbggbccccbbbgaafgcchhhccidiihcbbgfa``affaabbgbcccccccbffggbbb",
"gbbbbggbccccbbbgaafgbcchhcbhiiihcbgfa```aaaa`fbggbccccccbfffgbbb",
"gbbbbbggbccccbbfaagbbcccccbbhiihcbgfaa``aaaa``ggfgbcccccbfffgbcb",
"bgbbbbggbccccbbfaagbbcccccbgciihcbgfaa``aaa``aagffbbcccbbfffgbcb",
"bgbbbbggbccccbbfaagbbbcbccbggcihcgffaaaaaaaaa`ffgagbccbbbfffgbcb",
"gbbbbgggbcccbbbfaagbbbbbbbbgfgchbggfaaaaaaaaa`c`gafbcbgbbffggbcb",
"gbbbbggbccccbbbgaafgbbbbbbbbffgbbggffaaaaaaa``cbffaggfgbbggggbcb",
"bbbbbbbccccbbbbgaafgbbbbbbbgfaagbbgfaaaaaaaa``chafaaffbbbggggbcb",
"ccbcbcchhhcbbbbgaafgbbbbbbggfaafgggfaa``aaa```bh`f``fggbbbgggbcc",
"cbcccchhhhccbbbgaafbbbbbbbgffa``fggfa```aaa```ag`f`gaffgbbgggccc",
"ccbchhhihhhcccbgaagbbbbbbbgffa``afffaaga`aaa`a`a`aabaaafbbggbccc",
"ccchhhhhhhhhccbfaagbbcccbbgffa`a`aaa`gcf`aaaaa```aafc`aaggggbchc",
"hcchiihhhiihcbgfffgbccccbbgfaa`fg`a`fbbg`aaaaaa``aaaia``fgggbhhh",
"hccidihhiiihcbggggbccccccbgfaa`fcgaafgbbf`aaaa``aaaadc``fgbgbhhh",
"cchddihhiiihcbbbbbcchhhccbgfaa`fhhafaabcg`aaaa``aaafeia`afbbgchi",
"chdddihhiiihccccchhhhhhhcggffa`ghbff`fchbaaaaa`aafabeia`gagbfchh",
"chdddiiiiiihcchhhhhhhhhhbggfaa`bccca`fci`aaaaaaaff`idcffc`fbfbch",
"chdediiiidhhcciiiiiihhhcbbgfaa``gicf`gig`aaffaaafabhcgfghaagfgch",
"ccdddiiidihhcciiiiiiihhbbbgfffaa`bbfacdg`aaffaaff`bbfaacigafffbc",
"cbhddiiddiihccidiiiiihhcbggbbgffa`afghdb`aaffafgf`fa``fbcf``fagb",
"cccddiidddicchiiidiiihhbbbbbbbggfa`abhdc`afffaffa``aa``aa``afaag",
"bcbiiiidddhcchiiidiiihhbbbccbbbgffa`bhhbafffaaaga`aaaaaaa``affaf",
"gbgcihiddihcchihiiiiiicbgbccccbbgfa`fcigfffgf`fg`affffffaaaaaaaa",
"fgbgchhidihcccchhhiiihbbgbccccbccba`abfafffgaaggaaffgggffffaaaa`",
"`fggghchiihccbccchiiicbggbccccbhicbgfaffaffgafgffffgbgggbbffffaa",
"aafffchchihccbbcchiihcbggbcccbbiiihcbbgfffggaffgfgfgbbbccbggffa`",
"a`aafabcchhcbbbbhihihcggfgcbbbbcfiihhcbgggggaafgggfgbbbcccbggfa`",
"````aaacbcccbbbbhcchhcggfgbbbbbcifiiihcbbbgga`fgggfgbbchccbgffa`",
"``aa```fbbbbbbbbcbchhcggffgbbbbbhiiiiihccbbf``ffggfgbbbhccbbgfaa",
"a`aff```fggbbbgbggbhhcgggfggbbbbchiidiihcbga``ffggfgbgbhcccbbgfa",
"a``ffagb`fggbbgggggchcggffgbbgggbchiiihcbgfa`afgggfgbgbcccccbbgf",
"aa``acihcaffgggggggbhcbggfgbcggggchhiihcbgfaafgggbffgbgccccccbgf",
"faa`ghhdigafffgffgggccbggfgbcggggbchiiicbfaaffggbbffgbfbcccccbgg"
};
