/* XPM */
static char *Eyes[] = {
/* width height ncolors chars_per_pixel */
"96 96 6 1",
/* colors */
"` c #E7E7DEDEDEDE",
"a c #BDBDB5B5B5B5",
"b c #DEDEDEDEDEDE",
"c c #C6C6C6C6C6C6",
"d c #BDBDBDBDBDBD",
"e c #DEDED6D6D6D6",
/* pixels */
"`````````````````````````````````````````````````````e```eeeeeecccdcdddddceeeeee````````````````",
"```````````````````````````````````````````````````````e``eeeeceecccccccceeeeee`e```````````````",
"````````````````````````````````````````````````````````e```eeeceeeccceeeeeee```````````````````",
"```````````````````````````````````````````````````````````e`eeeeeeeeeeeee``````````````````````",
"```````````````````````````````````````````````````````````````e````e`e`````````````````````````",
"````````````````````````````````````````````````````````````````````````````````````````````````",
"````````````````````````````````````````````````````````````````````````````````````````````````",
"````````````````````````````````````````````````````````````````````````````````````````````````",
"````````````````````````````````````````````````````````````````````````````````````````````````",
"````````````````````````````````````````````````````````````````````````````````````````````````",
"````````````````````````````````````````````````````````````````````````````````````````````````",
"``````e`e`ee`eeeee`e````````````````````````````````````````````````````````````````````````````",
"eeeeeeeeeeeeeeeeeeeee```````````````````````````````````````````````````````````````````````eeee",
"eececcedccccacaccceeeee`````````````````````````````````````````````````````````````````e`eeeeee",
"ececccccdcddddddddddeeeee```````````````````````````````````````````````````````````````eeeeeeee",
"cccccdddddddddddddddddeee````````````````````````````````````````````````````````````eeeeeeeeecc",
"ddddadaadadadaaaddddddccee``````````````````````````````````````````````````````````eeeeeeeecccd",
"dcccdaaaaaaaaadadadddddcee`````````````````````````````````````````````````````````eeeeeecccdddd",
"dccccddaaaaaaaadadaddddace````````````````````````````````````````````````````````eeeeeecdddee`e",
"aaaaaaaaaaaaaaaaddddddddce````````````````````````````````````````````````````````eeeeeddceeeecc",
"aaaaaaaaaaaaaaaaaaddadddce``````````````````````````````````````````````````````eeeeeccddceedaaa",
"aaaaaaaaaaaaaaaaadadddddce`````````````````````````````````````````````````````e`eeeecddedaaaaaa",
"dceaaaaaaaaaaaaaaaadddddce``````````````````````````````````````````````````````eeecedceedaaadda",
"dcedaaaaaaaaaaaaaaddddddce`````````````````````````````````````````````````````e`eeedecedaaceedd",
"cecaaaaaaaadcdaaaaadddddcee`````````````````````````````````````````````````````eeeeeddaadeeeeac",
"ddaaaaaaaaadccdaadaddddcce```````````````````````````````````````````````````````eececccee```eda",
"aaaaaaaaaaaceccaaadcccccee`````````````````````````````````````````````````````e``eeeccccee``eca",
"aaaaaaaaaadceccaaaddccccee```````````````````````````````````````````````````````e``e```eee```ea",
"aaaaaaadaacecccaaadeeceeee`````````````````````````````````````````````````````````````eeceee``c",
"caaaaaaaacceccaaacceccecee````````````````````````````````````````````````````````````e`eeeeee`e",
"eedaaaddeeccddaacceeeceeee`````````````````````````````````````````````````````````````eeedeeeee",
"eeeececcccdcdcccccdeceeeee````````````````````````````````````````````````````````````e`eeeeecee",
"ceceeeccccdcccccddeeeeeee```````````````````````````````````````````````````````````````eeeececc",
"ccddacccdddddddadceeeeeee``````````````````````````````````````````````````````````````eeeeccecc",
"cccdcddddaddddaddeeeeee`e````````````````````````````````````````````````````````````````eeececc",
"dddddadddddaaaaceeeeee`e````````````````````````````````````````````````````````````````e`eeeccc",
"ccccccddaaadddceeeeee`````````````````````````````````````````````````````````````````````eeeeee",
"ecccdddddddddeeeeee``e`````````````````````````````````````````````````````````````````````eeecc",
"eeccdcdddddceceeee`e`````````````````````````````````````````````````````````````````````e``eeee",
"ceccccdcccceeeeeee``````````````````````````````````````````````````````````````````````e``eeeee",
"eeeeececeeeeeee```````````````````````````````````````````````````````````````````````````e``eee",
"eeeeeeeeeeee``````````````````````````````````````````````````````````````````````````````````ee",
"````eeeeee``````````````````````````````````````````````````````````````````````````````````````",
"````````````````````````````````````````````````````````````````````````````````````````````````",
"````````````````````````````````````````````````````````````````````````````````````````````````",
"````````````````````````````````````````````````````````````````````````````````````````````````",
"````````````````````````````````````````````````````````````````````````````````````````````````",
"`````````````````````````````````````b`b``b`b``b`b``````````````````````````````````````````````",
"````````````````````````eeeeeee`b``b``b``b```b``b``b````````````````````````````````````````````",
"```````````````````e`eee`beeb``b`b``b``b``b`b`b``b``````````````````````````````````````````````",
"``````````````````eeb``eb`````b````b`b``b``b```b``b`b```````````````````````````````````````````",
"```````````````eb`````b````b`b``b`b````b``b`b`b``b``````````````````````````````````````````````",
"`````````````````b`b`b``b`b```b``b`b`b``b````b``b``b````````````````````````````````````````````",
"``````````````b```b```b``b`b`b`b````b`b``b`b``b``b``b```````````````````````````````````````````",
"```````````b`b``b``b`b``b```b````b`b````b`b``b``b``b````````````````````````````````````````````",
"``````````b`b``b``b`b``b`b`b``b`b`b``b`b````b``b``b`````````````````````````````````````````````",
"`````````b```b``b````b````b``b`b```b``b`b`b``b``b``b````````````````````````````````````````````",
"```````b``b`b`b``b`b``b`b``b````b`b`b````b`b``b``b``b```````````````````````````````````````````",
"````````b``b````b`b``b`b`b``b`b``b````b`b````b``b``b````````````````````````````````````````````",
"```````b``b``b`b````b``````b`b``b``b`b`b``b`b``b``b`````````````````````````````````````````````",
"`````````b``b`b`b`b``b`b`b````b``b``b```b``b`b``b``b````````````````````````````````````````````",
"``````````b``````b`b``b`b`b`b``b``b``b`b`b````b``b``````````````````````````````````````````````",
"````````````b`b`b````b`````b``b``b`b``b````b`b``b```````````````````````````````````````````````",
"`````````e`b`b`b``b`b`b`b`b``b``b````b``b`b`b``b````````````````````````````````````````````````",
"````````````````b``b```b`b``b`b``b`b``b``b```b`b````````````````````````````````````````````````",
"````````````b`b``b``b`b```b````b``b`b``b``b`b`b`````````````````````````````````````````````````",
"`````````````b``b``b```b`b``b`b``b````b`b``b```b````````````````````````````````````````````````",
"````````````b``b``b`b`b`b``b`b``b``b`b````b`b`b`````````````````````````````````````````````````",
"`````````````b``b````b```b````b``b``b`b`b````b`b````````````````````````````````````````````````",
"```````````b``b``b`b``b`b`b`b``b``b````b`b`b``b```````````````````````e`e`e`eeee`e``````````````",
"`````````````b``b`b`b``b```b``b``b`b`b`b``b``b`e```````````eeeeeeeeeeeeeeeeeeeeeeeee````````````",
"````````````b``b``````b`b`b``b``b`````b``b``b`be```````eeeeeeeececedeccccccdacccceeee```````````",
"````````````````b`b`b````b``b`b``b`b`b``b``b`be``````eeeeeeeeeeedccccacddddddddcccceeee`````````",
"```````````````````b`b`b``b````b``b```b``b``````````eeeeeeecedccccddddddddddddddddcccee`````````",
"``````````````````````b``b``b`b`b``b`b``b``b`e````eeeeeeeecccddddddadadadadadadaddddccee````````",
"```````````````````b`b``b``b`b`b``b`b``b`b`b`````eeeeeeecddddddccccaaaaaaaaaaadadddddcee````````",
"`````````````````````b`b`b````bbb````b```````````eeeeeddacee`edcccdddaaaaaaaadadadddddcee```````",
"``````````````````````````b`b```bbbb`b`b````````eeeeccdceeeeccaaaaaaaaaaaaaaaaadddddddce````````",
"`````````````````````````b`b`b```ee`b```````````eececddceedaaaaaaaaaaaaaaaaaaaaadaddddce````````",
"````````````````````````````````````````````````eeecddedaaaaaaaaaaaaaaaaaaaaaaadadddddce````````",
"````````````````````````````b```````````````````eecdceedaaaddadeedaaaaaaaaaaaaaaddadddce````````",
"````````````````````````````````````````````````eececcdaaceedddcedaaaaaaaaaaaaaaadddddce````````",
"````````````````````````````````````````````````ececddadeeeeaccccaaaaaaaadddaaaaddddddce````````",
"````````````````````````````````````````````````eeecccee```edaddaaaaaaaaadecdaaddddddcce````````",
"`````````````````````````````````````````````````ecccecee`eecaaaaaaaaaaaaceccaaaddcccceee```````",
"`````````````````````````````````````````````````ee``eece```eaaaaaaaaaaaaceccaaadcccccee````````",
"`````````````````````````````````````````````````````eeeee```caaaaaaaaaaccecddaadceceeee````````",
"````````````````````````````````````````````````````eeeeeeeeeecaaaaaaadceecddaacceeeceee````````",
"`````````````````````````````````````````````````````eeedeeeeeeedaaaddeeccddaddceeceeeee````````",
"````````````````````````````````````````````````````e``eeeceeeeeeeeecccacdccccccceeceeee````````",
"``````````````````````````````````````````````````````eeeeedeccecedecccccddccccdcceeeee`````````",
"`````````````````````````````````````````````````````eeecececcccddcccdcdddcddaaceeeeeee`````````",
"``````````````````````````````````````````````````````eeeeedeccdccdddddaddaaaaceeeeeee``````````",
"```````````````````````````````````````````````````````eeeeeddccddddddddaadadceeeeee``e`````````",
"`````````````````````````````````````````````````````````eeeeeccccccdddadaddceeeeee`e```````````",
"```````````````````````````````````````````````````````e`eecececccddddaddddeeeeeee``````````````"
};
