/* XPM */
static char *Greydrops[] = {
/* width height ncolors chars_per_pixel */
"96 96 23 1",
/* colors */
"` c #9C9C9C9C9C9C",
"a c #94948C8C9494",
"b c #6B6B6B6B6B6B",
"c c #424239394242",
"d c #9C9C94949C9C",
"e c #737373737373",
"f c #6B6B63636B6B",
"g c #4A4A4A4A4A4A",
"h c #B5B5B5B5B5B5",
"i c #84847B7B8484",
"j c #848484848484",
"k c #7B7B7B7B7B7B",
"l c #525252525252",
"m c #B5B5ADADB5B5",
"n c #8C8C8C8C8C8C",
"o c #7B7B73737B7B",
"p c #5A5A5A5A5A5A",
"q c #52524A4A5252",
"r c #949494949494",
"s c #8C8C84848C8C",
"t c #636363636363",
"u c #A5A59C9CA5A5",
"v c #A5A5A5A5A5A5",
/* pixels */
"ijknjokkjokkkkibkjoknsjjskkkjojookkjkniokijktbokksjkknikkkkijjojorrkokonjijkkjjosktinkkjkvroobok",
"ijkjkokokkjiokjokjkkikkokkkijknokjjjijjonkskbokojjjkkkkjsjkikkonkanoojjsbojikkkokkokokjakajfbtte",
"okkkikjjnkojjokkjsjsjkjinsnrnjsonnijkjkokojkookjnojkjinskjkjjiknojobbkobkjnnijnsbobkksjkeobtotte",
"ikkijjjkokijkkskkjijjknjjjsranjkjkinokjkjkikkjjnjojksjkojkokikknbnjjkokjjnskkijksjjjojkennjokbek",
"jkkjsjkiknjkokjkjikjkojkijjrjikbiokjoknojjjjjjoooknokkjjsjkkjjijonjoookoobookksjkjooojkjokkijjin",
"jokjikknnikjjikonjkjikjokiknoootjkksjnibjjikkjjnrjjejnjkjkjinjjikjoonjjkriknjkkjnoooknoksjjjjsob",
"nijkikkjekskjrjojiojkonkjikibbbbkkinjjkjnskksjinbknikkiksojokkkjjkjjnkoknkjjjisrrjkjjrknskoookok",
"skiknrjkrkikjskjjkojoojkjjjjkkjijkknooknookokkokkkioonjokonkjsjajksjiookikkookkkjokkkrjajijnkjkj",
"oknjkkoikokijnrri`kojkjijojjjkjbinkijjjokjjjjsjrd`nnkknjjkjknrajikjjikknkniknookkooookkiobkokkkj",
"jikkijikjksnrjkokrkjnksjjojjkkjojskkkokonkdrn`rdrrjokijjkokknjjiojkikjknjijjetobfbbokjkkotksjkok",
"jojjjikkkkjarjikjjkjjonkokjkookknjkjkinsrj``rurdrajkjnjjijjjnsikbjookkokoojjookbkottoookbtkjsjjn",
"`anjokjijksnnijnijkkijrskjikknnjjiojokjoksjjdrnrrkotokoobjijsjktookojnkjkjioobookobjjobbbtokkkkk",
"njkoojkonjrarkkjjskkijnjjjkkoskojjojkkskkjknrnnrriobokbknskokikojkjjjikkkanjjjkjnjijkbotobijnksn",
"soboknjjkjrarkiksjokjkkijjonjjjjjjkskjnsnkrdannajbobokojjoojjkeojokikjkksjjiokkikkjjookbiojnkkns",
"kobokkokin`snksjjkkjnkjakoojokkkokojkkkokojnjsjjotbtfkjnjokjkkoknkskjijinkijkjikjijnokjojkniks`j",
"bookjnkjjd`jjinnjiijkeknebbjensjjnokksnjirkonjookbbttokkkknnonjinikknkojkookkjknakjjkikknikkjjjf",
"ebokkjii`rrrsjiokkknojnikonojjkiojkjijkkkkjajnokotlleojnkikjjkoknkkjikknkkkkokkikokjjijjkojakkko",
"ikokkkojvrnajokjikkskjjioojkjksjjajnkjokjkojokboptttijjiokkkkkjrkkjjokojjsjnsnkkrkdnikookkkobkij",
"skknsjkuvrnjokkjokjjjsjkbbkkkojjnnjjojkjikkskikotbbejjiotjnsjkniijjijnnrokkikiks`ndnkkoknnjknikk",
"jkokokonrjikkjikjnikjnjiojijjkjjnskjbkoknijnjjkkokkosjjkjskooojkkikokjkikjknokjjnkokookjjikjnjij",
"nkjnjskjrkojskksnkoojikkbkekjksjokbookjjsjkjokkookkokkooknkjnjriknrjjiokkoojokkojobkkjjonjkskojn",
"nojsknjkobbobokjikjjnnijjiknijjkkkookkkskkojkjijknkjsjkkkajjnokojnrjsjjkjjkjikjkjokjokbojikjiknk",
"nkkkeokkjnikokjkoojokkjjikkjojkijjkkjkojojjjsjijjskjjikninoboonrrrrinjkjsjkskkjjjknsookjkjokjkio",
"ooojkikijjksjojokknkjjikkikjojonkjiknjkjknkkiokkjninjkkjokoknnjbnsrjjobikobjkjakjiijkojnonjjsook",
"jknknkninkijjokojjjsjnrj`nnajnnkokkkokijksjkkjnibnkkijokjjkjikeoakkiotbkjjajkjookjnrokjjkijokjok",
"jkskninjnokjijjrkkokkkjasknnjjnojjnnjjikokkoojkbanijjsjijjinjkinnoobbbkjikjikjjknjjnijjkkokkkskn",
"ikjknjjonokokkkjokkjiokjsjrdnrdjnkkkjikkjnjiknkijkonjnskkkokkoknkjiobbokjojjoikkkkijkskkjoksjjko",
"ajsnannjkkkkjikjokkokjjajjrnjnjoookjkkijekkkknkikjj`rrrsjkkijijnkjjkjjkkiokjkkkoijnnksjnjokkokkk",
"iokrnsjojjiknkjijsjboketoojjijetpkjikkijinojinkkinnrjijkansjnksijkkojikkjkjskknrjnsjjsjjsjjsjnsn",
"nkjajkkfokkknkjkjikbokbfkokbbopptbkkkjikkjokkjjjndnnjkjkjiknjokjokikijjkoikjookn``drjrjjokjjjjik",
"koknikobkjjijkkeokkkjsoobbofttlgpojjjijnkiknjkskjajdnkjijjknjknjsjjjnjjojnnjnkjsnjjjjranajkokkkk",
"jninjkokkkikkikknjsokkkjnjkotflpojjkkkjnikkskojojrn`jojkkobkjjrjotkijookksoojjjanjikjrnjaktokkjs",
"okkjfbeoojkojnjjnokkaknkjoknoboonkajonrjkikjjiknvurniokjojnjnkajkinjkksjjknjkokjkjikrjjsktpbijjj",
"okjiknjbkjkkssokjojknojkikjnkjjniokjkaribokijokdvrjskkjjkjjojokotkkjkjsjokkkokijjjkkrjanotbkskkk",
"kkjinkjinnikjkokjkjokejsokjkokskjkkkkikbtokjnksv`sknkksijkjojkkbbkokkiookjjkkijjjijnajjotteinjkj",
"ksnokojiokkkjjokoojjnkjkojikkjskjokjkokokjjnikrvvrkniknjiknkjjkookknjjkjjijkjijijikkkkiotptokkik",
"jjjonojkkjkokjjnnjkkijnijnikokkokojsjjjjsjnskk``dnkakijonkskkkkoojknsjj`rjsjsjnjkkkjiobtbtojjjkk",
"nokjrokjjjjjsjkjokjskjranakkjjjnnkijkkkkikbokrm`niokokjkakkiikkebjjokkjsnkkkkkikkjookkokbokijooo",
"ikjokknsjkkoojksjnijoonnjjfokkijsokkokiknjkkjn`ikjjnknjjjoknjikboksojknsiokkijsjojksjjoooookjjjr",
"jikjjknnarnkkskkijokknnkootkjikjkbjakjjkojijjksjkjjjeskikojskooboojbnonjobikjkjoknksknkkkkknnkob",
"nkjkoravrdrajkkkjkokiknkookkkjkskijkkjskjjiojnjookbokkjjkjnjokkjokjjiookbkkboooojijkkkkkoknkojjn",
"jkjsj`r`rnikobkjkjsnjokkokkojjkrikjiokjookkkjojobjeokjijookkkjnjkjjjjjjskkjkjkjjjkokjjsjnjjkkjij",
"jkikjrsdjjookksjskobkjnskjikjibjkkkjjjnknniknkjokjkkjiokbjsjjijkjskikikkijijjkkskskkjokokoojjsjk",
"kikiknjnsjkbttoksjrjsjoojjjjjioksjsnjkkokokkjskjkkiokjojjjjjinajnjkjjkkkkjkjsojjknkkjinjkkkjjkik",
"bijjnnojootppfkjkekbkkknsjkkokjjkojjkkjijkakkkkkikjkjiojbokjjnnsnrnrsjjjkaijjojkojkijjjojsjsjjjn",
"kjjkjokjobtteojjjijkajkijkokokjkskkkoijjjjnikjsskknsnjknkijookjrjrrdjnskonjkokjonjokjsjjknkkkoob",
"sjiekokijkfbbojnojnksoknkjkjrrannsjikkjkkojijjkkjnsknkijkkkjjjinojjakjobkjikksnjskkkjkkkijnsnkki",
"kkjorjnkkkokjikiojkojojjs`js``najkokjnjeso`jjjonojjkjonjobfbotkjjjirjottsjnkojkkkjsnikkksnnnskkj",
"konkjikoknjjksjnbjoknja`rr`rvrnjikksjnkjkjnkkokjojkeikikbobkojbobeojtlgbokkokkjjkjokkkkjakskkjka",
"jkjijkkjikikkjijknsjninnsnrnunskktkknkkijijokkinkikokkjijkoototobooplggobjiknnikikkijjjs`nanijoj",
"jijjskkjskjjkjjjojnjskrn``un`jkoopikjokjkkjookokjjninjjkiojjjkkkbootppgbsjkksnjjjijojokjrkikookk",
"jjkjkkijjokkkkkookkkkonjnajnnjkobokkikkkikjokjkjkojkjjjkionnnijjjkblppfjskijrskkijjkjkrarjsjjjjn",
"bokninkojkkjsjijksjkkojjinirksooptjojijjjokkinijkkajkokojknokkjkkininkjsnkksnkeokkkojkdrrjjjkikk",
"jskobkkjokikjjkkjjjinjjrinonbopptbsonokkkokjknjjjkjikknnijjkkikkoknijkikjobkjoknjnkjnnu`jikkkkij",
"okjkjskikjjjsjsjnjjkjookknkjobobpbjojkjjnsjajkookkikjijkjjkkojkijnikkikjkiksjkoojkoij``rbokojikj",
"nkskkkkioojijnarkokojkjnjjjiktbppokkkjnjkkojokjksjjinkjokskksrknjioonnkijjjkjjkknibjjvajijjijjij",
"ooknjjkkjnjjr`nrekjknkinikibbttqkkikjoookkjjjnjsokkijjorkkkkinrjjkkjkjojnjkjskknkkikv`nnobkijkjj",
"jjjjboksjjkkarijeokojokjikjkobbbijkkjjkjniijkikkjjkkkjkjkijknrakkkojjnokijijkkkkskjjvdjikokkjkok",
"sjkiojjbikkksjobookksjjjnkokoojrjjkkkikjkoojkjojijjikjjkikjinjkeokjjsjojojkkkijjskojrjkjkokkijjs",
"ijjibkkikjijjjbebtkksnnijiknjjkokjijnsjijkkjsnnr`jojkjiokkjojoobbkkijkknojookkjjiokjjeeobbijnjoo",
"nibknnkojjjjikooobkkijkojjojkjiokjkijjkjojkinrnarkksjjjjkkiknkkkjjjijkikjaknnjijsjnjjoookobkjobj",
"kjjnnjojnjojkjojjjskkskokjojkijjsjkokkokjnsjnrjnjjskkokjkkjknkkskkjkiokkjkokjokokkoookkokookjkoj",
"jnisjijrnjojojknokjojnknojkrkkjokjijnjikjkkkonjskiopkjsjkijkjoksjsnjnkjskjkkkkikkkkojnnkjkokobki",
"kkijnnjinkinkjkaojnksjokknikokjojjikjjkjkekajnkobbbtsnkoojkkikirokobjojjonskjjiknnikjkjookkskjnk",
"okjjikjinj`akjikkjkokjjnojojkijjndnjkojojnajoookoptonjionkonkkjkkoknkijkjskijkkkjbjkanojjjknkoot",
"ookjjjnjrjnjikkkjskkjikjijkikknarrjijjnkjikookjjkojjiokkjikjkijkjarra`rikjookjjniojojjokoojrkjsk",
"bbkikikjdjiobokijjikjjijkjkkjknnnskjnniookjnkjsjnojjkksookjjjjjsjrranrjokjkjjsokjjnksjjjjknskijj",
"jjskooookokkttjjkokjjijkijjojirrnjkijiknjjjjjjjkjokjkjnkjjkjjsavvu`v`rijbkkikikjikjonjokiksjkiko",
"jkikbobokbobppikjokjokjkkjjknsrrnsnjskkjjikokjsjikkjikikksksnrrvanndjkokbjjnsjknjkjjjjojkkjkkjkj",
"rikkkjjkkoplpbijjojnkinkjjkoknr`ijjsjkoojjnsookkjkkjkikknsojnjarn``djjkebiokkkokkokjokojoksjijij",
"ikokjjsjobtbojjjokrdjjskjjikn`drkjobkoknnkjjkjnokjjnokijkkenjjrnndrnokbttokjjskjikjrojjnokjkiksj",
"kkkskkjkjjirkjokknnibokikjkjn`anonkjkokkoksjkokknookojjojnosoonkrrsjkotfojjjojojjjirokkoknjknjjk",
"nkkkjskikjjjjijkjsnjookojkknvvrnjnojjjsknjkiotjnjjkjorijksokjjnoskkotppfbokknjjkskk`fkjjnkjjbojk",
"ajiksnikjjjikkikkjibokojkkinvujikjkikojjkikjobjskkknknokknknjijjnnnotbbbtjiknojjokkntijsijsnijjk",
"jjnn`rkkjikookkjikjookkrnjn`mvjjjjkjkjjojkkotbkkjiorrunjonkokooksjottptponkjkejiojojojnjbkikkikk",
"jinnrrijkojjnjookknjkjjjkonvvrijkijrkinijijkokjjokj`drjkinkokjkjjktttppfjiojkinkknokjkoojnskjiji",
"oojnnsbekikkkikrkijkjjojokdv`skojkeijsjbjkkobkijknjrnnokkikojnjiikobefonkoknknjokjkjsjjjjijkiokk",
"kkrrskftbjnikiknojjkajojjsrrsjoojkkjookonkiobksnokjranokbbkkkikkojjookjkaknjojookjkojjjjjokjjksj",
"akjkfttfkajkokkkonkjnojjokjkoobkjiokjjkjkokkokjkokjioototojsjjnikjjikniokokkkjjnjkjkdrarnijkjkjj",
"jojjoobokjobkjjojjojotnokjjkjkbokkjskjkjnjijkkooknsjkktbtojkjinkjkkjkjikjksrkokokonjvdnvsjnkjkji",
"jkikjkrksnjjnijjjjjijknkjikikbokjkbkeeojnojjjjjsknbjkijsjkkkkobkokksikjjskkjookjnoij`raneobonoob",
"kokikjsknikojokonijokinkokkjjojnbikjoknjjojjjikjojjnkkjnookikjjnojjnkkikjojnjjjikkkj`nikoboojnja",
"kknnksnjiookjjkjjojoknjknjjsjkjiokkkojjknsjjnjjnijojkkiikjjjksnjojjiokjijkkikkkkjkjkskjiopbbkjkj",
"jjjsokkojjnjjkoknojkijkkjokjkkikknikkjkokjjsrnnarnijjinkokkikknbjjjkkjran`jjkorikijjjootppobksko",
"kjijknkjjkjeokjakkikjjiajoknjkikokokkkokkkjsnjnnjijkjojjkiknjjaojkikknsnjaksjknojjikkkkepokjjokk",
"kjioksojjsrnajokkkjjskjrjkjskikijnjjkokekokkiknjskotkokojjjnkksonkskjdnnnsjjnnjokokksnnjokkkskjj",
"kjnknrn``rrjjjjrijkjkkrreeoookjnjjokokkeefkboobekbbpjnajjnsjkinksojokrnnnjsjjskonksjkjoonkjjjkij",
"eesknrdvdrunnebkksjnikrkfknikjkkskjsobkfebotobbotptqiokksjikokjokknkirnjkskikojjjojjinkjoonjkikn",
"jnjndrvarrnijobijjsookjbjeokknjiokokkkooknnjkbfoptcbokjjj`jrokknknkjv`jdjkjjjnjjjjojonjkjriokjjo",
"ijkjajrnrnikottjkkikjjnojokkkkiknkkjjijnkjkkjikkttpjkjijkvnjtjikkkkjrnoijijkjsjksnnjjiookjokjook",
"ikkjnjnraskotpfkskjjjijojkjniijnkkkijjsneiokjjojokjnkjkjdvobtsjsjijrdrnnskjikjookjetjokjojokjkkk",
"okkkjinrkkbbtpokkojjkokkikknjkjjkinkjjkkkajjkibnokjsksjdvnbebskkkja`dnkinjjjjjkoksobnkikjskjjsji",
"ojkjikjjjibbtfkjkijjjijjnkinikkkjojkjijjijokkiksjnnikjokjotookkikj``nikjjookjokkjjotjonnjkj`nokj",
"bskjiknnooppltoojjjokjkonkjjkkijskjookookkkkjjksokkkijjkkoobbjjnijvmnnsjnjjnskjsjobtkkkjbjdvajkn",
"ojkjookjobttfokjsnjonnjksokkojkjookkkrjnnndnnojkojkkjojkskjoojijjnvdkkjknsjnkojjkbbbknokjvhvjjoi",
"okkjjksrnkookkknkskojjoknbikjnkojkkiknkijknojbjjojiknojksojkksksjn`akjijkiikkojjobbokneijurjootj"
};
