/* XPM */
static char *Greysea[] = {
/* width height ncolors chars_per_pixel */
"65 65 55 2",
/* colors */
"`` c #D2D2D2D2D2D2",
"`a c #F1F1F1F1F1F1",
"`b c #C9C9C9C9C9C9",
"`c c #E8E8E8E8E8E8",
"`d c #C0C0C0C0C0C0",
"`e c #DFDFDFDFDFDF",
"`f c #D6D6D6D6D6D6",
"`g c #F5F5F5F5F5F5",
"`h c #CDCDCDCDCDCD",
"`i c #ECECECECECEC",
"`j c #C4C4C4C4C4C4",
"`k c #E3E3E3E3E3E3",
"`l c #DADADADADADA",
"`m c #D1D1D1D1D1D1",
"`n c #F0F0F0F0F0F0",
"`o c #C8C8C8C8C8C8",
"`p c #E7E7E7E7E7E7",
"`q c #DEDEDEDEDEDE",
"`r c #D5D5D5D5D5D5",
"`s c #F4F4F4F4F4F4",
"`t c #CCCCCCCCCCCC",
"`u c #EBEBEBEBEBEB",
"`v c #C3C3C3C3C3C3",
"`w c #E2E2E2E2E2E2",
"`x c #D9D9D9D9D9D9",
"`y c #D0D0D0D0D0D0",
"`z c #EFEFEFEFEFEF",
"a` c #C7C7C7C7C7C7",
"aa c #E6E6E6E6E6E6",
"ab c #DDDDDDDDDDDD",
"ac c #D4D4D4D4D4D4",
"ad c #F3F3F3F3F3F3",
"ae c #CBCBCBCBCBCB",
"af c #EAEAEAEAEAEA",
"ag c #C2C2C2C2C2C2",
"ah c #E1E1E1E1E1E1",
"ai c #D8D8D8D8D8D8",
"aj c #CFCFCFCFCFCF",
"ak c #EEEEEEEEEEEE",
"al c #C6C6C6C6C6C6",
"am c #E5E5E5E5E5E5",
"an c #DCDCDCDCDCDC",
"ao c #D3D3D3D3D3D3",
"ap c #F2F2F2F2F2F2",
"aq c #CACACACACACA",
"ar c #E9E9E9E9E9E9",
"as c #C1C1C1C1C1C1",
"at c #E0E0E0E0E0E0",
"au c #D7D7D7D7D7D7",
"av c #F6F6F6F6F6F6",
"aw c #CECECECECECE",
"ax c #EDEDEDEDEDED",
"ay c #C5C5C5C5C5C5",
"az c #E4E4E4E4E4E4",
"b` c #DBDBDBDBDBDB",
/* pixels */
"`d`d`dayac```yaj```xatahahat`eabb`b`aiao`h`b`oa``o`h`fanatazam`wah`q`e`q`qabb`ananb`auaoaj`t`b`baeawac`q`q`lac`maiatat`eab`xacaw`b",
"`d`d`dagaq`hawaj`y`fab`qat`e`qabb`ananb`auaoaj`t`baqaw``auabahat`q`xauaiaiai`lb`b`b`b``xauaoaj`t`t`t``atatatan`xanahahatatat`qai`r",
"`d`d`d`d`vayal`oae`y`r`fauauaiai`lb`b`b`b``xauaoaj`t`t`h`y`fanab`x`rajajaj`yao`r`r`fauauaiauac`y`h`t`y`qah`wah`e`e`wahahat`e`qb`b`",
"`d`d`d`d`dasag`vaya``b`t`tawaj`yao`r`r`fauauaiauac`yaw`haw``aub`b`au`yae`o`baqae`t`hawawaj`y`yajaw`t`tacaianababatah`q`e`e`qabb`an",
"`d`d`d`dasag`v`v`jayala`a``o`o`baqae`t`tawawaj`y`y`yajajajajao`rauauacawa`a`a`a`a``o`o`o`b`b`b`b`b`oa``baeaw`y``ai`l`fauauaiai`lb`",
"`d`d`d`dag`jayayayayala`alala`a`a`a`a``o`o`o`b`b`b`baq`tawajaj`y`y`y`yaw`o`oa`alala`alalalalalalalal`j`v`vala``oaqaeae`tawaj`yaoac",
"`d`d`d`dagay`oaq`b`o`o`oa`a``o`o`oalala`alalalalala`aq`h`m``ao```yajajaw`t`tae`o`oa`alalala`alalalay`vagag`v`jala`a`a`a``o`o`baqae",
"`d`d`das`j`o`h`y`maj`h`t`t`t`t`tae`b`oa`ala`ala`al`b`macaianabab`lai`f`r`f`f`r`y`t`b`o`o`o`oa`alalal`v`v`jayayalala`a`alala`a`a`a`",
"`d`d`d`v`t`y`fb`aban`xau`r`r`f`f`r`y`t`ba``o`o`oalaq`xanabatatahahat`qab`q`q`ean`r`m`taq`b`o`oa`alalayayal`o`b`b`o`o`oa`a``o`oa`al",
"`d`d`day`raib``eatahahat`qab`q`q`ean`r`m`taq`b`oa`ae`l`q`q`qab`q`qat`e`eatahah`eab`l`r`y`taeaq`oa`a`a``oaqaw`y`yaj`h`t`t`t`t`tae`b",
"`d`d`day`f`lb`anab`q`qat`e`eatahah`ean`l`r`y`taqaqaeacai`x`l`x`xai`x`x`lanabab`qanabb`aiaoawawawaeaqae`macaib`aban`xau`r`r`f`f`r`y",
"`d`d`d`vawaoacau`x`l`lb``l`lb`abababanabb`aiaoawawaw```r`f`l`x`r`m`y`m`m```r`fauauai`l`l`xauac```maj`manababatat`w`wat`eab`q`q`ean",
"asas`dag`o`h`y`fai`x`x`xau`rac`fauauauai`l`l`xauacaoac`r`f`x`l`f``aj`t`t`h`tawajajaj``acau`x`xaiauau`x`w`w`e`e`eah`w`k`wahahahah`e",
"a``jagag`ja`ae`m`r`raian`xai`faoacac`m`y``acau`x`xauai`l`l`l`l`x`f``awae`taeaeae`t`t`haw`yao`f`xb`an`q`kahabb`b`atazazahat`e`e`q`q",
"`m`t`oayalal`oae`y`raian`e`eab`l`x`facajawaw`yao`f`xb`ab`eatan`xauau`r`y`haeaqaqaqaeae`t`haw`macaib``qaz`pazatabanah`caa`w`qabb``l",
"`q`xaoawaq`o`baq`t`y`fabat`w`k`wah`q`f`yae`hawaw`mac`xanat`w`w`e`l`x`x`x`raj`haeaeaeaeae`t`tawajaoauan`w`car`p`kat`w`paaamamatab`l",
"at`eabai`raj`hae`t`h```lahazamazam`w`l`maeae`t`taw`y`r`lab`wazam`e`xaib`an`l`r`m`haeaeaqae`t`haj`macauatafafaa`k`kaaar`paaaaam`k`e",
"at`eabanab`l`f```yajajaob``waa`c`paaan``aqaqae`tawaj`r`xb`ahazam`qau``acb``e`q`x`raj`taeae`t`t`haj`macan`car`kababamaf`uaraaam`kah",
"`q`qaban`eat`qb``x`fao``acb``k`c`uaraz`x`yaeae`t`t`y`lb``l`q`k`kan``aeawacanahah`qai`m`h`t`tae`tawaj``au`e`eb``xai`e`c`u`uaraaaz`w",
"aiaiaian`k`watat`ean`x`facauanazaf`zak`pan``aw`taeajanatab`q`q`e`lau`maj`y`f`qah`k`kan`r`y`h`tae`t`h`maoacaoaj`m``auab`k`car`camaz",
"awaj`y`fahazat`qan`qan`lai`r`fabaa`zadap`i`wau`y`hawauah`katb``f`r`lai`racac`x`eazaaazat`laoawaeaeaeaj```m`haqae`haj```ran`k`paaaz",
"`o`o`b`h`f`eat`q`lauauauauai`f`fabarapav`g`a`cb`ac`yacanamamahau``aub`ab`lai`lanatazaaaa`w`l`yaq`b`bawau`f``aw`tae`haw`y```xahamaa",
"a`a`a``oaw`xah`w`qauac`m``au`facauat`iad`s`sapar`e`rao`f`eaaaaahau`f`x`qat`e`ean`lan`w`caab`aja`a`a`aeaian`xacajaw`haj`yaj```laham",
"a``o`oa``baj`l`waz`q`f````anaiacao`xazaxap`sadaxamab`x`faian`wazabai`faian`qat`e`f``auahazaiaq`d`v`ja``yab`qanai```y`y`yaj`yao`lat",
"`t`t`tae`oaq`yaiatahb`acaoan`x`fac`rab`pax`aap`i`kb`abb`ai`f`l`q`lao`y`mac`xabab`r`taqacan`x`tas`d`das`bauaham`kabai`racaoaoao`f`l",
"`r`f`f`r`y`t`tawauanai`yawaoac```m`mau`eazafax`u`kanananb`aiauau`raeaqaeaw``aib`auaja`a`awaoae`v`d`d`dayacatafak`uaaah`qb``lb`b``l",
"ab`q`q`ean`f`m`haw````aqa``baqaeae`h```faianataz`eanb`b`b`b``xauaoaj`t`t`tawacai`xaoae`jas`d`d`d`d`d`dayau`qaaax`z`i`cam`watahahah",
"`eatahah`eab`l`raj`taeaq`oa``o`oa`a``o`bae`tawaj`yao`r`r`fauauaiauac`m`h`t`taj`raiau``ae`j`d`d`d`d`d`day`fanataaaf`cazazahatah`w`w",
"`lb`abababanabb``xaoawaw`h`t`taqaq`oa`a`a`a``o`o`baqae`t`tawaw`y`m`y`yaw`taqaeaw``````aj`o`d`d`d`d`d`d`vawao`r`l`e`e`x`lai`lb`abab",
"`m```r`fauauai`l`l`xauac``ao```maj`h`b`o`oala`a`a`a`a``o`o`o`o`b`b`b`b`b`oa`ala``o`b`baq`o`d`d`d`d`d`das`o`h`y`r`fao`y`y`m`m```r`f",
"`t`h`taw`yajaj``acau`x`xai`x`lb``xacaw`t`b`oa``o`o`oalala`alalalalalalalal`j`vag`j`j`j`vag`d`d`d`d`d`das`ja`aq`macao`yaw`t`t`h`taw",
"ae`taeaeae`t`t`haw`yao`f`xabatazazat`x``aj`t`t`t`tae`o`oa`alalala`alalalay`vas`dasasagagas`d`d`d`d`d`d`dag`ja`ae`yacao`m`h`t`taeae",
"`y`haeaqaqaqaeae`t`haw`m`f`eazaraxaxaf`wan`f`r`f`f`r`y`t`ba``o`o`oalalalay`vag`d`d`d`dasas`d`d`d`d`d`d`d`dagay`oaqajac`rac`y`haqae",
"ai`raj`haeaeaeaeae`t`tawao`waaaf`z`n`aax`cahab`q`q`ean`r`m`taq`b`oa`a`alalay`v`d`d`d`d`d`d`d`d`d`d`d`d`dasag`jal`oaqawacaiai`raj`h",
"b`an`l`r`m`haeaqaqae`t`haoahaa`c`iak`z`u`c`watatahah`ean`l`r`y`taqaq`oa`a`al`jagas`d`d`d`d`d`d`d`d`d`dasag`v`jal`o`o`b`hac`lan`l`r",
"aoanatat`l`faj`taeae`t`t`y`l`e`w`pafafaz`e`x`lb``q`q`eababb``xaoawaw`haeaq`b`b`oay`vas`d`d`d`dasasasasagala`ala``o`b`baq`hacabah`e",
"aw`fah`p`p`kanacaw`h`hae`hac`xab`kazah`xac`m`mao`xb`b``l`lb``l`xauac```m`y`y````ajaea``vasasagal`oa`ayalajaw`b`b`o`o`baq`haoan`kam",
"aq`hau`waf`uar`wb``f`m`h`hajaoaiab`eb`ac`y`h`taj`rab`q`lauauau`x`l`xaiauau`fac`rauac`y`h`b`oa``hacaoajawau`x`m`h`b`b`o`baq`h`rahaa",
"`baqaw`xazax`zaxarazan`rawawajaoauai`x`rac`y`haw`r`qamaz`eb`au`fauai`lananaban`x`x`l`laiacao`yac`latab`lb`at`qai`m`taq`b`baq`y`x`k",
"aeaqaq`y`lamax`n`aak`cb`aj`b`t`y``ao`raib``l`rao`f`eamamam`kahan`xaiaib`an`eatahatab`q`w`e`ean`lanatahah`wam`caa`e`rajae`bae`h```l",
"aw`taq`t`y`xazaxapap`uab`h`o`bae`haw`m`rahatatabanahaaaaaaaaamazat`q`l`lb`abahazam`wataa`kaz`k`q`qahahatahazar`u`u`k`x`m`h`t`hajac",
"aoaw`t`t`t`yai`k`i`narb``baya``o`baeae`y`qat`kazazaaar`p`pamaz`k`w`k`w`eababahazam`eabaz`kamazat`qatahahatah`waa`u`u`k`x`maw`t`taw",
"`l`r`m`hae`taj`fatararab`yaqalal`o`o`baeaoaiab`k`paf`uar`pamaz`k`w`k`k`k`wah`w`k`wb`ac`fanah`kat`e`e`q`e`e`q`q`eamaraaabaiaoawaeae",
"b``xauao`yaw`hajacabam`eau`f`yaq`b`o`o`baeaw```l`war`uaf`p`watatahah`w`k`kazam`w`q`f`yaj``aiab`e`qan`xauaiaiai`l`qah`wan`xauaoaj`t",
"auauaiauac`y`h`t`taj`rai`latabao`t`b`b`o`bae`tajaiahaa`caraz`eanananan`q`eah`wahanacaj`t`h`maub`anaiacajawaj`yao`r`r`fauauaiauac`m",
"awaw`y`y`y`yaw`taqaeaw`macan`w`q`rajaq`baqaeae`t`y`f`eaaar`paz`e`lau`r`rauai`l`x`r`yaw`h`t`h`mac`f`f`raw`o`o`baqae`t`tawaw`y`y`yaj",
"`o`o`b`b`b`b`b`oa`ala``oaq`yb`ah`q`x`m`t`t`t`h`haw`yau`eam`caram`q`r`y`y`y`m`````y`t`baqaqaeaeaw`haw`y`hala`a`a`a`a``o`o`o`b`b`b`b",
"alalalalalalalal`j`vag`v`jal`hau`eah`l``ajaw`y`yajajajacabamafar`eac`t`h`t`h`t`h`haq`b`o`baq`t`taeaeae`ba``o`o`oalala`alalalalalal",
"alalala`alalalay`vas`dasasagayaeacan`qau```maoacacao`y`m`f`e`par`e```oaqaqaq`b`b`b`o`b`baeaw`y```yajaw`h`t`t`tae`o`oa`ala`a`a`a`a`",
"a``oa`a`a`alalal`vag`d`d`d`das`j`o`mau`rac`r`xab`qab`l`xaib``k`caa`x`h`b`o`oa``oalal`b`yaoaub`aban`xau`r`r`f`f`r`y`t`b`oaqawaw`haq",
"`taq`b`oa`a`alalay`v`d`d`d`d`d`dasayae`yauaib``eatahahah`q`e`wamar`wai`m`taq`b`oa`a`ae`xb`ab`eatahahat`qab`q`q`ean`f```t`t```xaiac",
"`r`y`taeaq`oa`a`ay`jagas`d`d`d`d`d`d`day`f`lb`abab`q`qat`e`eatahah`eabb``r`y`taeaq`o`tb`abab`q`q`q`qat`e`eatahahat`eanau```r`qaz`w",
"b`aiaoawaw`haeaq`oa`ay`vas`d`d`d`d`d`d`vawaoacauaiaiai`x`x`lb`aban`qanabb``xaoawaw`haw`r`x`x`l`laiai`l`x`lb`abab`qahat`e`qabah`p`p",
"`l`l`xauac```maj`haea``jagas`d`d`d`d`das`o`h`y`r`fao`y`y`m`m```r`fauauai`l`l`xauac``ao`rauai`l`x`r`m`y`m`m```r`f`l`wahahahaz`pafaf",
"``acau`x`xaiauau`f```ha``jagas`d`d`d`das`ja`ae`m`rao`yaw`t`t`h`taw`yajaj``acau`x`xaiau`l`l`x`l`l`f`maw`t`t`h`tawao`qabab`q`w`c`i`i",
"`haw`yao`f`xb`ananb``r`hal`vas`d`d`d`d`dag`ja`ae`yacao`m`hae`taeaeae`t`t`haw`yao`f`xb`ab`e`ean`lai`r```hae`taeae`hac`fai`xan`war`u",
"ae`t`haw`mac`xb``q`e`q`x`ya`ag`d`d`d`d`d`dagay`oaeajac`rac`y`haeaeaqaqaeae`t`haw`mac`xb``qah`w`eb``x`f`r`y`haeaeaq`haj`y```fb`ah`k",
"aeae`t`tawajaoaub``eahah`lajay`d`d`d`d`d`dag`jal`oaqawacai`x`raj`haeaeaeaeae`t`tawajaoaianahazamat`laiaiai`raj`haeae`t`haw`y```rai",
"aqaq`t`haw`y`macauabatah`x`ya``vag`v`vag`v`v`jal`o`baqawac`lan`l`r`y`haeaeaq`t`h`y`yao`f`x`e`kam`qauao`r`lan`l`r`maw`h`h`haw`y``ac",
"`t`t`y```m`m`m```r`xababac`bas`j`o`t`taqaeaqa``oaeaj`yaj`y`ranat`q`x`raj`t`taw```fau`f`xb``q`w`k`l`yaq`haob``e`q`x`f```yaj`y`y`mao",
"`maj`rb``lai`fac`r`fauac`tay`d`d`vaq``ao`xau`m`yawac`l`xau`r`x`q`wah`qai`m`h`tawao`lan`w`watatab`raw`baq`hacabahah`eb`au`rao```m``",
"abauai`eam`k`eb``xauaoawa``v`d`dasa`aj`x`kam`eb`au`l`qam`w`qb`abahazaz`kab`r`yaw`mauatarafaa`kabac`haqaq`t`m`latazaa`paz`ean`x`f`r",
"`caz`waz`paaam`kahab`f`ya``jagasasayaeao`w`i`iafaz`eahazamaz`kahahaz`p`caaah`lac``acb`aaak`z`uaz`faj`baq`tacanataa`iakakak`i`pah`q",
"af`uafararamamamam`k`q`l`y`bal`j`jay`bajan`i`n`a`z`pazaaamazaz`k`k`k`parararazan`r`m`f`qar`z`aaxatac`taqaeaoanaaar`napad`sap`zafam",
"araxaxar`camamaz`kah`eatanac`h`b`oa``oaqaoamaxapapax`paaamamaz`kahat`k`paf`iarat`raw`m`f`q`c`z`nar`e```yaj`ranaz`p`zad`gav`s`z`cam"
};
