/* XPM */
static char *Honey[] = {
/* width height ncolors chars_per_pixel */
"128 128 21 1",
/* colors */
"` c #000000000000",
"a c #9999CCCC0000",
"b c #111111111111",
"c c #222200000000",
"d c #000032320000",
"e c #CCCCC9C90000",
"f c #CFCFFDFD0000",
"g c #CCCC99990000",
"h c #666631310000",
"i c #FDFDCACA0000",
"j c #000010100000",
"k c #989863630000",
"l c #333366660000",
"m c #000022220000",
"n c #323230300000",
"o c #656598980000",
"p c #101000000000",
"q c #323200000000",
"r c #666664640000",
"s c #FDFDFDFD0000",
"t c #989895950000",
/* pixels */
"rhttifieifr``````rtttrkrrokrrorkrtrkorkrortrrrrnn`jhtifgotkrrrrrrrktfeifeerj`````rtttrkrrkorrrokrtrrrkorrtrorrrnn``ntiftttkrrrrr",
"htaifefiab`````mketttrrorkrorrkorrtortrtrkrokokrr`pdrrkaeitorrrrrkaseifitn`````btettkrrrtrrrrrkrortrtokokrokrtrrr``nrrkaietorrrr",
"teseifer``````rratgtttrkortrkorkorrkokortrkrorokrrnh``lksetttkrttfiefeilb`````rrttetttrtrtrtrtrokrrtrkokorkrortkrrln`jntestkttrt",
"eseefgn`````nrkaggattttttttttrkokrtrkorkrtrokokrtrtl``nrrkaietteeifeiem`````nrkagagttotttttttrokrrtrrorrrtrtrkrrorkrp`nrrkaifkte",
"seser``````nrtttetgtrrttttttottttttorkortrtrrkokrokrrhn``lkfitesefifr``````nrtttegatkrttttttttttttttrktrtrortrtokorrrhn``lkfiaee",
"estn`````brttttttetortrrrtrtrktttttktttttttrtokrokokror``nrrtaiefiac`````brtttttgttrrtrrrrtrrrtttttkttttttktrtrkrkokror`jqrroges",
"er``````nrttttttetkrtrrtrrrrtrokotrtttttttrtttrokrrorkrrnn``ntfier``````nrttttttagtrorkokorkrtrttokottttttokttororkrrrrrnn`phoie",
"r``````rtttrtktgttttorttrtttrtkotrttrttttkokttrrrrrrrrrrrn``rrtth`````prtttrtkttetrttkokotkotrtkokotrttttokottrrkrrrrrkrrn``lktt",
"`````nrkotkttttagtokktrotrtrtrtkotrtkokororrrrrhrorrhrorrrnhrttnj````nrkotktttttgttokokokotkttroktkotrkokrrrrrrnrorrrrorrrnrrttn",
"```prokotktrttttttktrrokrkrrrtrorktrokrrkrrrtrhlrrklrrkrrrrraesn````rokotktrtttettokrrokrrrrrrkrtrotkrokrrrrtrhrrkrlrrrrrrrrgefn",
"```rrkttrtttkagttorrtrrrtokokrtktttttokorrrrrrrrrrrrrrrrrrrreier```rrkttrtttktattkortrroktrtokotktttttrrrrrrrrrlrrrrrrrrrrrreser",
"```rttoktotkattttkttrrttttttttttattttkorrkrrrrrrhrrrrrrorhrriefr```rttokttrttetktoktrrtttttttttttatttkrortrrrrrrhrrrhrrtrhrrfeir",
"```trtkoktrttetotttttttttttttttttttrtrrrrrrrrrrrlhrrrrrrrrhrfier``btrttoktttttttttttttttttttttttttkororrrrrrrrrrlhrrrrrrrrnrifer",
"``nrttrttktttttkttttttttttrtrtotktkorrrrrrrrrrrrhlrrhrrrrrlriesr``nrttrktokttttttgtttttttttrkokttkorrkrrrrrrrrrrhlrrrrrrrrrreesr",
"``mtkotrtottttrttettrtrtrrtrtrktokorkorrrrorrrrrrhrrohrrrhrrfieo``btrrttrtttttrttattkokokrrtokokttrtrrrrrrkrrrrrrhrrrrrrrhrrifek",
"``bkokotkttttkttgttrorkrrtrtrttokorrrkrrrrkrrrrrrlrrrrrrklrriefk``btrttotttttktttgtrorrkorokttktorkrrtrrrrorrrrrrrrrohrrrlrrfeio",
"``bokttrttgtotkottkokottkotktrrkokrtrrokrrrrrrrrrrhrrrlrrrrreser``brttrkttttotkottkoktrtkttororrtrorkrrkrrrrrrrrrlhrrrrrrrhrifer",
"``bkotrttttokrttttoktkokotkroktotrkrorkrorrrrrrrrhlrrrrrrrrreesr``brttkottttkrttttotkotkotrktrtttrkrortrorrrrrrrrhlrrrrrrrrreifk",
"``nttrtrtttkotttttttrtkokrotkttgotrrkorrkrrrrrrrrrhnrrrrrrrrefer``ntrtoktttrotkttttktkorkokotttttrokrrrrkrrrrrrrrrhnrrrrrrrrefir",
"``btrtrttttrtktttttktrokottttatttrotrrrtrrrrrtrrrrlrrrhrrrrheesr`jcttrrttakoktttttttrorkottttgttrtkorrokorrrrtrrrrlrrrhrrrrneifr",
"``nrtrttetrokoktttrtrtktttgtttkorkrtrrtrrokrrrrrrrrhrrlrrrhlieerp`nrkottgtrtokotttkokotttttttttrtrrtrkrorkrrrrrrrrrhrrlrrrrreeir",
"``btrttttrokttotttttttattttotkorkorrtrrrtrrkorkrrrrrnrrrrrrreesr``mtrttttroktrtttkotttgttttttorkrrorkorrkrortrrrrrrrnrrrrrrheifr",
"``mkttttkrktokttttrttttttrrkotkorrkrrtrtrrorkrlrrrrrrhrrrrnreser``cttttttrkotktttttktttttrkrrttrokrroktrorkorrrrrrrrrhrrrrhlefir",
"``btttgtortokrtttttktttrrokotkokokororkorrkorrrrrrhrhlrrhrrreesr`jcottgtrkotkottttkttttrrrotttkokrrtrrrtrtrrkrrrrrrrhlrhrrlreifr",
"``brtatrkoktrttttrtottkrktoktokrkrkokrokrrrrrrrrrrrrrhlhrrrheeer``mktttrortkoktttrtottrtrtktkortrokrkorrrrrrrrrrrrrrrhlrhrrhefir",
"```tttkorkokotttokokttortoktokttororrrrrrrrrrrrrkrrrrrnrrrrreesr``cotttrkoktrtatrtoktttrtktoottkokrrorrrrrrrrrrrkrrrrrnrrrrreifr",
"``mktttrtotrktttkoktttkttktkttttktrkrrrrrnrrrrrrrrrrrnrnrnrreser``btktotrttrkttttrtottkotoktttttkokorrrrrnrrrrrrrrrrhnrnrhrleeir",
"``btkoktrtkkotakokotttokortttatkorrrrrrrrnnrrhrrrnlhrrnrhrrneesr`pmkoktkoktrotttrktkttotkrtttgtrtrrrrhrrrhnrrhrrrnnrrrlrhlrheifr",
"``mtrttttrorkttoktkottkokortttrrkrrrrrrrrhnrrlhrrnhrrrrnrrrheeer``nokottkorktttrtokottkrokotttokrrrrrrrrrnnrrrnrrnrhrrhlrrrlgfir",
"`jcrtrttrkrtttttrtokttokrrtttrkorrlnrrrrhlnrrhrrlnnrrrnrnrhleesr``jkokttokorttttrtorgtrokokttrrorrrnrrrrhlnrrnrrrnnrrhlhlhlheifr",
"``ntrtrtorkrtttrtkrottkotkrttrrkrrnlhrrlrnlhlrnrhnlrhlhnlhlheeerp`nokoktrrkotttrtkkotttrokoktrkrrrnnrrrrrnhlrhrhnnlrrlhnhlhleeir",
"``porrtktkorttkrtrtrgtorkotrrrrrrnnhrrlhrhnrrhrrnnrrlhrlhnrreesr``jkrrtrtkorktkokookttrrkokorrrrrnnlrrhlhlnrhlrrnnrrhlhrlnrreifr",
"j`bkortokokorrokrorkotkrokrrrrlnnnnlrrhrlnhlhrrnnlhrrrrrnrnreser``bokrottrkoorrkokrotttrtrrrrrnrnnnhrrrhrnlhrhrnlhrrlhrrhlhreeer",
"```okroktkokrtrrokroktrorrrrrrhrnrnrrhlrhlnrrlhlnhrrrnrhlnrheesr``jkroktktorkrkorrrrktrrrrrrrrrnlnhrlrnrrnhrlrhlnnrlhrrrnnrneesr",
"p`ptrtrortrrtrrrkrorrkrrrrrrrrrrrrrhlnrhrnrnrhrnrlrhnrrnnnlrgfer``botrrrokkororkrtrorrrtrrrrrrrrhrrhlnrrlhnrhlrnhrrhlhrnnnlrgfer",
"``brtrrktrttrrokotrkorrrrrrrrrrrrrhlhrrrrhnrhlhlnhrnrrnnnhrneesr``jktrkoktokokrrtrokrkohrrrrrrrrrrrlhrrrhlnlrhlhnrrnrrnnnhrheesr",
"```trtrokokokrkorkrokrrrrrokrrrrnrnrlrrrlnnrlhlnnrrnrrnnnrrrtier```trortrrtokrtrokrorrrrrrrkrrrrhlnrrrrrrnnhlrnnlhrlhrnnlrrrtser",
"``brtrokoktkokorkrokrorrrrrrrrrrrhrhrhlnhnnnhlnnhrnrrnnnrrrheesr``brtrkrtttkorrtrokrrtrrrrrrrrrrrrhrhlhnnnhnrnnnnrnhrlnnhrrlgesr",
"``btrkrokoktrortrorrkrtrrtrrrrrrrlrnhlnnnlhrrhnlrnrhrnnrrrrlgfer``jtrtrtrrttrtrrkrokrrrtrrorrrrrrhrnlhnnnlnrhrnrrnrrhnnrrrrhaier",
"``jrkorkokrotrkrrrkrrorrkrrrrrrrlhnnnnhlrhrlhlrnhrnrnnnrrrrneesr``prtrrrrtrktrrrokrrortrrkrrrrrrnlnnnnnlrhrrlhlnhrlhlnnrrrrneefr",
"``porkorkotrkortrtrokrrtrrrrrrrnnnnrnrrhrrrnlhnnlhrnnnrrrrnrgfer``jrkokokrortkokrokrrkrororrrrrnnnnrnrrrrrhnrnnnlhhlnnnrrrnrgfir",
"``prtokrorrkokrrtrrroktrortrrrrhnnrnrrnrrrnrhnnhlhlnnhlhrrnreesr``jkokorrtrtkorrokrortorkrkrrrrhnhrlrhrhrhlrnnnhlhlnnnrrrrnreifr",
"``jkokorkokokotrrrtrrokrrkrrrrrlhrlrhlhlhrhlrnnlhlnnnrrlnnrreier``brtorkorkroktrrrrkrrtrorrrrrrlhlhrhlnrhlrrrnnlhlnnnrrrnnrrefir",
"```oktrroktrrtrrrtrrkrrokrorrrhrrnrhrhrrrrrrnnnhnnnnhlrhrrrreesr```trtrrkotrrtrrkokokorkrrtrrrhrrnrhlrrrrrrrnnnhnnnnhrrnrrrreifr",
"```rtrkortrtrktokrokorkrorkrrrlhrrrrrrrrrrrrnnnlhnnnrrhlhrrrefer```rtkorrtrtrktorrokrrorkorrrlrhlrrrrrrrrrrhlnnlhnnnrrhlhrrreeir",
"``brrtokrrtrorttrrkorkorrkorrrrrrlhrrrrrhlnnnnlnnnnrrrnrrrrreesr``pokortrrtrrotkorkrorkrorkrrrrrrrhrrrrrlhnnnnhnnnnrrrnrrrrraifr",
"``jkorrrtrrkrtrtrorkorrtrorrrrhnnhlnnnnlnnhnnrnnnnnrrnrlrrrneier```rtrkrokrtrkotkrorkorkrtrrrhrnnnlnhnnnhnlnhlnnnnnrrnrnrorneeir",
"``jrkokorrkorrtktrkrrokrrrklhnlnlnnrnnrnhnrrrrncnnrrhnrrrrrneesr``brrkorrrtrrrtkorrtrrkorrrlnlnnnrnhnnnrnlhrrrnnnnrrnnrrrrhneifr",
"``brrtrkorokorrtrorrkrorrrrnnnnhnrrhrrrrrrrrrnnnnrrnlrrrrnrteset``btrokokrrtrortkrrrtrrrrrrhnnnnhlrrrrrhrrorrnncnrrnrrrrrnrtefit",
"``nroktrrrkokrtrtkrkorrrrrhnrnrnrrrrrrrrrrrrhrcnlhrnrrrrhreeseet``nrokokrrortrkrtokorrrrrrrnlhrnrrrrrrrorrrrrnnnnrrnrrrrlreifiet",
"rnrtttokrtrrokrokorrrrrrhlrrhrnrrhrrrhrrrrrnlcnnhrnrrrrroiesesetnrrtttkortrkrortrkrrrrrrhlhrhrnrrhrrrhrhrrhnnncnrhnrrrrrksefifet",
"rrtsetkorrrokrrrorhrrrrlrhrrrrrrrrrlhrlhnrnrnmnnrlnrrrraiefestrrrrteitorrrrrtrrrkrlrrrrlrhrrrrrrrrrrhrlhrnrrnnnnrlnrrrrgfeiefgrr",
"nntesttkorrkrrrrrrlhlhnhnlhrrrrrrrrrrrrrrrrrnnnrnhrhrteifiesn```nntifttkorkorrrrrrnhrnhnnlhrrrrrrrrrrrrrrrrhnnnrnhrrrkefifesn```",
"`prkogfekrrrrrrrhlhrhlnnlhlhlnhnrrrrrrrrkrrnnnrnhlrreeefiet``````cntttifkrrrrrhrlhrlrnlhlhrllnhnrrrrrrrrrrrlnnrnnrrrgffieet`````",
"``nlhoieaktrrrrrrrrlhrrrhrrrnrnrnrnhnnrrlrhnnnnrlkteeseefh```````jnnhteettrrrrrrrrrhrrhlrrrhhlnrnrnnnhlrrrnnnnnrrrteeiefil``````",
"rnn``htttseorrrrrrrrrhrrrrrrrhrrrrhlnrnnrnnnnnrnkaeifeit``````nnrnn`jhttaeitrrrrrrrrlhrrrrrrrrrrrlhlhlnhrnnnnlhlrgefifet``````nn",
"rrr``nnhteetrrrrrrrrrrrlrrrrrrrrrrrrrrrrrnnrnrrteifeifn`````brrtrrr``nnhtefkrrrrrrrrrrrrhrrrrrrrrkrrrhrrhlhnrnrtefiefil`````brrt",
"rrrhln`jnttktktrrrrrrrrrrrnrrrrrrrrrrrrrrrrlhrtfeeift``````nrtrrrorhln`jhtttkttrrrrrrrrrrrnrrrrrrrrrrrorrrrlhraeiefit``````nrtrr",
"trroknb`nnrrkfeekrrrrrrkrrrrrlrrrrrrkrtrrrrroeiesefh`````nrrrrtrkrroknb`nnnrteeekrrrrrrrrrorrhrrrrrrrrkorrhroiesesen`````nrrrrtr",
"rrtrrrnrn``nteseetrrrrrrrrrrrrrrrrrrrrrrrrrgeieset````jcnrrrtrrkortrrrhln`bntififtrrrrrrrrrrrrrrrrrrrrrrrrraieiefk`````cnrrrtrrt",
"okrtrokrlp`nrrtseektrrrrrrrrrkrrrrrrrrrrrteesefer`````nokrtrrorrkortrorklp`nrrteiatkrrrrrrrrrorrrrrrrrrrrkeefefir`````nokrtrrkrr",
"korrokrrrrnn``nrttfetrrrrrrrrrrrrrrrrrhraiefeeec````brttkortrrkrorkrokrrrhln``nrogestrrrrrrrrrrrrrrrrrrrgfesesgm````brttrtrtrror",
"rrkrkortrrtn````ntieetkorrrrrrrrrtrrrotsiesesr`````nttkrokrrtrokrrokrokorrklp``phteeetkorrrrrrrkrrrrrtteseiefr`````nttkrtrrrtrko",
"okrorrtrrtrrrn``nhrtteetkrrrrrrrrrrrteseefegb`````ntttrorrrtrtkortrrkrrrtrtrnn``nrrtteetkrrrrrrrrtrrteeseifac`````ntttrorrokokok",
"kokrokrrkrtrrrrnnj`htiftttkrrrrrrrkaeieseirj````brtttrrkokorrrokortrokorrtrtkrlhn``htifgotkrrrrrrhogeeseferp````prtttrkrokrrrokr",
"rrotrtrtrorrtrtrrjpdrrkaietokrrrrreeiefeem`````nrettrkrokrrrkokrrkrokokokrrrrokrl`pdrrkaeitrrrrrrrefifeitn`````coettkrokrrkorkro",
"okrrtrtrtrtrrrrtrhlh`jlkfitttrtkaifefier``````ntttettokrotrtrrrtrokroktrokokortrklrn`jntiftttkrttseefifr``````rrgtatttrokorkorrk",
"krtrrtrrrtrkokokrokl``nrrkaietkeefifitn`````nrtttegttttttttttrtrokorkorrkokortrkokrr``nrrkaiettefeifiac`````cokategatkttttttkoko",
"ttttrrtokrokorkokokrrhn``lkfiaefieeirj`````nrttgagatrkotttttotttttttrkokokrkortrrtrrrhn`jnteiteeifeir``````ntkttetgtortttttttttt",
"tttrttttttkokrtrokokror``nrrogeifeed`````brtttttettrtrrtrkokrktttttrtttttttortrrtrokror``nrrrtfifeem`````brttttttetrrtrrokokortt",
"otrtttttttttttrkrrrorkrrnn`phoseir``````nrtttkttgakorrkrorkoroktkoktotttttkttkokrokrrrrrnn`pltifir``````nrttktttettrrrkrrokrrtrt",
"krttrttttkorttrrrorrrrrrrn``lkttl``````rtttokttagtotkttoktortktroktokttttkorttrrrrrrrrkrrn``rtetn``````rtttkottagtrttktottkotrto",
"tkoktrtrorrkorrnrkrrrrrrrrnhrttn`````nrkoktkttttatktortkokttrokttrtkokokorrtrrrrrrrrrrorrrnrgfir`````nrkotrttkttattkooktrrtkotrt",
"rokortrrkrrrrrhrrrrrnrtrrrrotfin```prokottkotttgtttrrkrorrrrrkorrtrokokrrrrrrrrnrrrrrrrrrrrreier````rtrttrtktttettkokrrrkorokrrk",
"tttttrtrrrrrrrrrrrrrrrrrrrrreifr```rrkttrttkttattkrokrrkokokorkttttttrokrrrrrrrrrrrrrrrrrrrrefir```rrrttkttokagttkorrtrrokrkokot",
"ttttttrortrrrrrlhrrrrrrrrhrrifer```rttoktokttagtkotkorttttttttttttttttrrrtrrrrrrhrrrrrrrrhrreifr```rtttrtotkagttkotrtrtttttttttt",
"tttrkrrrrrrrrrrrrrrrrrrorrnreifr``ptrtkotkotttttttttttttttttttattttrtrrrrrrrrrrrlhrrrrrtrrnrifer``btrttkokttttttttttttttgtattttt",
"ttrkorrrrrrrrrrrnnrrrrrrrhrrifir``cotkotkttttgottgttttttttokotkttkokrrrrrrrrrrrrhlrrrrrrrhrreesr``nrttrtkotttttotgtttttttokokokt",
"tkorrtrrrrkrrrrrrrrrrrrrrrrreifr``ntrokotrttttkttattrtrtrrkokorttokrokrrrrtrrrrrrhrrrrrrrrrrifek``btrrtotkttttkttattrtrtrrrkokok",
"korokrrrrrorrrtrrnrrrhrrrrlrifek``jkokttkttgtrtttttrorkrokokoktkokrrkorrrrrrrrrrrlrrrhrrrlrrfeio``btrtttkttttrtttttrtrrrrtkottto",
"okrrorkrrrrrrrrrrrhrrrrrrrhrfifr``bokotrttttttrtttktrtokttttkorokrorrrtrrrrrrrrrrrhrornrrrhriefr``brtokottttttktttkorttktotkrokr",
"trrkrtrrtrrrrrrrrrlrrrrrrrrrefir``jkttokttttrrtttttokoktrtrrorttkorkokrrtrrrkrrrrhlrrrrkrrrresek```ttkokttttrkotttotktrtokokokrt",
"tokrrrokrrrrrrrrrrhnrrrrrrrreifr``noktrttttrttkttttktkortrtktttttrkorrrtrrrrrrrrrrhnrrrrrrrreesr``nrttrttttrttkttttktrtrkokotttt",
"tkokorkorrrrrkrrrrlrrrhrrrrhefir``bttrrttakokottttotkortrttttttttotrrrtrrrrrrorrrrlrrrlrrklheser`pmtkortttkokottttttrtrkotttgttt",
"rrtokrrrtrrrorrrrrrhlrrlrrhleifr``nkrtttttrktkotttktrktttttttttrrkrtrorrkorrkrrrrrrhrrrlrrrriefr``ntrkttatrttkotttkokotttttttttr",
"korrrrtrrrkokrrrrrrrhrrrrrrhefer``cokotttkrttotttttrtattttttttrrkrorokrkorrkorkrrrrlhrhrrrrnefir``cokotttkrtkotttkottttttttkotro",
"rkrtrrtrtrokrrrrrrhrrrrhrrrreifr``mttttttrtrtrkatktttttttrkroktorrkrkrtrrtrrrrrrrrrrrrrhrrhriefr``mktttttrtrtrtttttktttttrtrtktr",
"trorkortrrrrrrrrrrrrhlhrrrlhefir`pmkttgtrortrtttttrttttkrrotktokrtrororotrrkorrrrrrhrnrrrrlrefir``bttagtrortokttttrttttkrortkotr",
"rrkorkrrrtrrrrrrrrrrrhlrrrrreeer``cotttrkrttrktttktrttroktkotkokorkkorkrrrrrrrrrrrrrrrnrrrrhiefrp`brtttrkrtkrttttktottrokktotkrt",
"rtrrorrrtnrrrrrrrrrrrlnrhrhreesr``mktttroktoktatrtottttrkottrttokrorkrrrrrrrrrrrrrrrrhnrrhrrefir```ttttroktokoetrtoktttrkottrttt",
"trrkrrrrrrnrrrrrrrrrrhlrrnrreier``ctotkokokrotgtkokottttoktktttttrkorrrrrnrrrrrrrrrrrnrnrrrriefr``ctkttrkotkotttkokottttoktktttt",
"rtrrrrrrrnnrohrrrhlhrrhlhrrneesr``nrtktkoktokttkokokttkokoktattkrtrrrrrrrhnrrhrrrhlhrrlrhrrnefir``nrtoktotkokttkokotttkokoktattr",
"rrrrrrrrrnnrrrhrrnnrrrnrhrrheesr``btrttttrtrtttrttrtttrtrtrtttrrrrrrrrrrrnnrrrhrrnnrrrnrhrrheser``btrttttrtrtttrttrtttrtrtrtttrr",
"krlnrrhrrhnrrnrrlnnrrhrnrlhleser``nrtrttrtrrtttttrtrtttrtrtttrkokrlnrrhrrhnrrnrrlnnrrhrnrnrliesr``nrtrttrtrrtttttrtrtttrtrtttrko",
"rrhnrrrlrnlhrrnrhnrrlrnnnrlheefr``ptrtkokroktttrrtrtttrrrtrtkorrrrhnrrrlrnlhrrnrhnrrlrnlnrnrefer``btrtkokroktttrrtrtttrrrtrtkorr",
"rnnnrrrhlhnrlhrrnnhrrnrrrnhreeir``btrroktokrotkrtrtrtttrtrtrrrrrrnnnrrrhlhnrlhrrnnhrrnrhrnrrseir``ptrroktokrotkrtrtrtttrtrtrrrrr",
"nnnrrrnrrnhlhrrnnlrrhrrhlhlreefr``brtrttrkokrortrtrrttrtrtrrrrnrnnnrrrnrrnhlhrrnnlrrhrrrnrhreser``brtrttrkokrortrtrrttrtrtrrrrnr",
"nlhlrnrrhlnrrrnrnnrrrnrrnlhrgfir```trorktotrokrrkrrrttrrrrrrrrrhnlhlrnrrhlnrrlhlnhrrlhrrnnnreesr```trorktotrokrrkrrrttrrrrrrrrrh",
"rrrhlhlhrnlhrnrnrrrnnrrnnnlheefrp``ktrtrktrrkororrtrrrrrrrrrrrrrrrrhlhlhrnrhrhrnlrrhlrhnnnrnifer```ktrtrktrrkororrtrrrrrrrrrrrrr",
"rrnrnrrrrhnrnrrnnhlhrrnnnhrlgfir``potrrkortkorkrttrrrtrrrrrrrrrrrrnrnrrrrhnlhlrnhnrnrhlnnnrreesr``potrrkortkorkrttrrrtrrrrrrrrrr",
"hlhrrrrrlnnhrnnlhlhlhrnnnrrhaifr```kokooktrtrrokrtrtrrrrrrrtrrrrhlhrrrrrlnnhlhnlnrhlhrnnrrrhifer```trtroktrtrrokrtrtrrrrrrrtrrrr",
"lhrrrnrnnnhlnrnhnrlhrrnnrrrrgfir``potrrktrttkokorrorrkrrrrrrrrrrrhlrrhlnhnnlhlnnlhlhrlnnrrrrfeir``brtroktrttkokorrorrkrrrrrrrrrr",
"rrnhnnnnnrnrrnrnrhrlhnnrrrrlgefr``ptrorortrtrrrkokrrortrkorrrrrrrrhnnnnnnrnrrhlhhlrrhnnnrrrniferp``trrkortrtrrrkokrrortrkorrrrrr",
"hnnnlnnrrnrrnrnnhrlhlnnrrrrnefir```rtrkrtrkokokorrrtrkrrorrhrrrrnnnnlnhlrhrlhlhnrrnhlnnrrrlreesr``jkrtrrtrkokokorrrtrkrrorrhrrrr",
"nnnrnrrhrrrnrnnlnrhnnnnrrrnrgefrp`brrtrrrtokokrrtrrrtrrtrkrorrrnhnnrnrrhrrrnlhnnnrrnnnhrrrhnifer``jokrorrtokokrrtrrrtrrtrkrorrrn",
"nlrhrrnrrrnrnnnnrnlnnnrrrhlhefir```rttrkokrokortrrtrrotrrrorrrrnnlrnrrhrlrnrhnnrnrnnnnrrrrnreesr``prtokrtrrokortrrtrrotrrrorkrlh",
"nhlrhlrhlhrrrnnhlhnnnrrrnlrreifr``brtrorkokrtkorkorkrkokrtrrrrrrnhlrhllhrhrlrnnnrnnnnrrrnnrriferp``rtkrorktrktrrkorkrkokrokrrrrr",
"rlrhlhrrrrrrnnnlhnnnhrrnhrrrefir```okokrokokrokrokrrtrrrorkrrrrhrlrhrhrrrrrrnnnrnnnnhrrnlrrrfeir``brkookrtrkortrorkrorrrokrrrrrh",
"hrrrrrrrrrrhnnnhlnnnrrrnrrrreefrp`prtkrortkorktrrrtrrokrrrorrhlrhrrrrrrrrrrhnnnnrnnnrrhlhrrrifer``jtrtrrrtorkoktrrokrtrrkrorrhlr",
"lrhrrrrrnrnnnnlnnnnrrrnrrrrreeir``jkrtorkrorkrotkortrkrortrkrrrhlrhrrrrrhlnnnnlnnnnrrrnrrrrreesr```rtkrrtrkorktorkrokrrtrorrrrrh",
"hnlnhnnnhnlhlhnnnnnrrnrnrrrneifr```okrrkorkortktrrrrtrrkrrorrrrlhnlnnnnnnnrnhlhnnnnrrnrhorrniferp`jrortrrrokrokttrrrokrrrkorrrrl",
"nlnhnnlhlnrrhrnnnnrrnlhorrhlgfir``brrokorrokrrtotrkorrortrrrnhnnnlnnhlhlhlhrrrncnnrrnlrrrrnreesr``brrtrkrokorrttrrrtrrokorklhnnn",
"nrrrrrrrrrrrrnncnrrnrhorrnrtfiet``brtkorkokorrrtrtrrkokrrrrnnnnhnrrrrhrrrrrrrnnnnrrnrhrrrnrtifet``bkrotrrkokrrrtkokrrokrrrrnnnhn",
"rrrrrrrrrrrrrnnnlhrnrrrrnreeieft``nkrotrrkorkokrtrrtrrrlrrhnrnrnrrrrrrrrrrrrrnbnlhrnrrrrnreefeit``nroktrorkrokokokrorkrlrrnhlhln",
"rhrrhrhrrhrnnnbnrrnrrrrrtififietnrrttkokorrtrkokokrrrrrrhlrrhrnrrhrrrrhrrhrlnnnnhrnrrrrrtsesifeehlrtttrtrrokrokokorrrrrrhrrrhrhr",
"rrrrlhrlhrnrnnnlhnlhrrrtifefiarrrrteeakrrrrkorrrrrlhrrrrlhrrrrrrrrrnrhlrnrlhncnnrlnrrrreeesefesrrrtiettrrrrrtrrrrrrhrrrrrnrrrrrr",
"rrrrrrrrrrrrnnnhlhrrrteseieen```nntiftttrrrorrrrrrhlrnnhnrnrrrrrrrrkrrrrrrrrnnnhnhrrrkeeseesir``nntesttkokrorrrrrrnrnhnnnrnrrrrr",
"rrrrrrrrrrrnnnhlnrrraeieeftp`````cnttgeetrrrrrrrrhlrhlhnlnrrlnhnrrrrrrrrrrrnnnrnlrrrtfeseet``````bhtogefkrrrrrhrrnrrrnlnrnrlrnnn",
"nrnnhnrrrrnnnnlhrrteifeseh```````jnnhoiettkrrrrrrrrhlhrrhrrhnrnrnrnnnnrrrrnnnnnrhrtesesesn````````nnhoiettkrrrrrrrhlrrhrlrrhnrnr",
"rrhlnrnnrnnnnlhlrgeifiet``````nnrnn`mhtteeethrrrrrrrrrrrrrrrrrrrrlhlhlhnrnnnnrnrraifeiet``````nlhln`mhttaeetrrrrrrrrrhrrrrrrrrrr",
"rrrrrhrrrnhlhhrtefifefh`````mrrtrtnb`nnntiftrrrrrrrrrrrlrrrrrrrrrkrrrrrrhlhnrnrteifiefn`````brrkrrr``nnhtesrrrrrrrrrrrrrhrrrrrrr",
"rrrkrrorrrlrnraeeifet``````nrokrrrrrnnjbnttrttkrrrrrrrrrrrlhrrrrrrrrrrrrrrrrnraeifeet``````nrtrrorrhln`jntttkttrrrrrrrrrrrrhrrrr",
"rrrrrrkorrrrteesefin`````nrrkrokorrrtnp`nnhrtefgtrrrrrrrrrkrrlrrrrrrrrtrrrrrteifeifh`````nrrrrtrkorrklp`nnnrteeekrrrrrrrrrrrrrrr",
"nrrrrrrrrrrteeiesk`````bnrrkorkorkokrrnrnbjnteifetrrrrrrrrrrrrrrhrrrrrrrrrrteefiet````jcnrrrorrkorkorrlhnjcnteseftrrrrrrrrrrrrrr",
"krrlrrrhrteififer`````ntrrorrkrrtrrokorrr``nrrtifgtkrrrrrrrrrkrrrrrrrrrrrteeseifr`````nokrtrrkorrkokrrkonb`nrrtieetkrrrrrrrrrrrr",
"orrrrrrreiefiftn````brtoktrtrrokrorkorkrrrnn``nrkaeetrrrrrrrrrrrorrrrrhreeeseiac````brtkotrrkorrkorrokorrhln``nrtteftrrrrrrrrrrr",
"rrrkrttfefiefrp````nttkrokrrtrrorkrrkortrrtn```jntifgttrrrrrrrrrrkorrttfieseer`````ntttrkrtorkorrkrtrrkokorhj```htieetkorrrrrrrk",
"rorroeeifieec`````ntttrokrokoktrtrrorkorrtrrrn``nrrkaeetkrrrrrrrrrrokefiesetn`````ntttrororktokrtrorkorkorkrrn`pdrrtteetkrrrrrrr"
};
