/* XPM */
static char *Maze[] = {
/* width height ncolors chars_per_pixel */
"128 128 13 1",
/* colors */
"` c #000000000000",
"a c #CCCC00000000",
"b c #545400000000",
"c c #FDFD00000000",
"d c #EEEE00000000",
"e c #767600000000",
"f c #444400000000",
"g c #989800000000",
"h c #666600000000",
"i c #BABA00000000",
"j c #888800000000",
"k c #DCDC00000000",
"l c #AAAA00000000",
/* pixels */
"``````l```````````b`b`````````c```c```c`c```````j```````b`h`e`e`j`e`````l`i```k`k```````j```j```i`d`c`c`d`d```c```k```````````h`",
"ejggliiiligjj`bbbbb`b`ejgikdc`ccc`ccc`c`ccccdkalg`ehbbbbhbe`e`j`g`ggg`lii`akd`d`d`dkkilgg`e`heejg`a`c`c`d`akk`ccccc`kalgjehhh`he",
"``````````````e```b`b`````a`````c`c```c`c`````````j`````````j`g`l```i`i```d`c`c`c`d`````g`e```````l`d`c`d`a`a```````c`a`````````",
"gglli`kaaaaiilg`ehb`hhejg`a`ccc`c`kdd`c`ccc`ccdkail`jeh`hhe`j`gli`i`aak`ddc`c`c`c`c`dka`gje`bbbbheg`adc`ckk`i`akdcccc`c`killggg`",
"l```a`a```````l`j`e`````g`a`c`c`k```k`d`````c`````````j`e`e`````i`a```````c`c`c`c`c`d`a```e`b`````e`````````i`i`````c```d`````l`",
"i`iaa`k`ddddkki`l`jee`eel`idc`ccdka`a`kdccc`c`cdkaailgg`g`j`ggl`a`kdddccccc`c`c`c`c`d`a`lgj`h`fff`hegikcccd`a`iiiak`ccccc`dkkai`",
"a`a```d`````````i```j`j`````````````a`````c`c```d```i```g`l`l`i`a`k```````````c`c`c`d`a`````h```b```j```````k`````a```````c`d```",
"k`k`kddcc`cccck`a`l`jjjjggiakcc`cddaa`k`dcc`ccccc`dkk`aii`lll`i`akk`dcccc`ccccc`c`c`d`aailgje`bbffb`e`ladcc`kka`iiaak`ccc`c`c`dd",
"``d```c`c`c```d`a`i```````````c`c```k`k`d```c`````````k```````a`````d```c`c```c`c```d`````````h`b```h`j```c```k`````a```c`c`c`c`",
"c`dcc`c`c`ccc`cdk`illggjj`gli`kcc`ccd`k`kdccc`ccccccccd`ddkkk`aaaak`kkk`d`d`ccc`ccddd`kaaii`gjj`h`bfb`e`l`dcc`kkaaa`akkdc`c`c`cc",
"c```c`c`c```c```````````g`j`l`````c```d`````c`c`````````c`````````a```a`k`k`````d`````k```i`l`j```b```h`j```c`````a`````c`c`c```",
"c`ccc`c`ccccccc`dkail`g`e`j`j`likdccccd`dkd`c`ccc`cccccccccccdkka`aiiii`a`aakkd`d`ddcdd`k`a`i`ggehh`ffb`hjl`dcc`cdk`kkd`c`c`ccc`",
"c`c`````````````k```l`j`j`e```g`````````d`d`````c`````````````d`k```````i`i```k`d`c`````c`k`````j```b```b`````c`c```d`d```c`c```",
"c`ccccccccccccd`k`a`igg`h`hbhhe`giadccccc`kdd`ccc`ccccccccccc`d`k`allllgl`lii`kkd`ccc`ccd`ddkai`gjh`ffb`b`heg`dcc`ccc`ccccc`c`cc",
"````````````d`d`k`a`````e`b`````j`````````d`d`c```c`````````c`d`k`i`````````i```````c`c```````i```e```b`h`b`e```````c`````````c`",
"ccccc`ccd`ddd`kka`ilgjj`h`b`bbb`h`gia`ccc`c`d`d`ccccccccccc`c`d`k`illgg`ggggliakdcc`c`ccccccc`a`lgehb`h`hhb`hhjladccc`ccc`ccccc`",
"d`````d`k`k`````````g`e`b```````b`j`l`````c```d```c`c```c```c`d`k`````g`g```i`a`````c`c```c```k```````h`e`````b`````````c`c`c```",
"aakaa`a`aka`aaaiillgj`e`b`bbhhbbb`h`g`adccc`ccccccc`ccc`ccc`d`d`a`aii`l`g`g`l`ikdcccc`ccc`ccccd`iljehbb`jgj`e`h`helak`dcc`d`d`k`",
"````l```````i`````g```e`b```h`````b`e`l`k```````````c`````c`d`d`k```a`i`l`l```````````````````d`a`g`````````g`e`b```l`a```k`a`i`",
"jee`jjg`gllli`lll`g`g`hhh`bbh`ehh`b`h`g`a`ccccccccc`c`ccc`c`d`d`kkkka`i`illli`akd`ccccccccccc`c`a`l`ebb`jgl`llleh`hhe`l`iii`g`jj",
"h`````e`j```````g`g`j`e```b`````e`h`b`e`l`k```````c```c`c```d`d```````k`````i`a`k```c```````c`c`k```e`f`e`l```````h```e```g`j`e`",
"bhb`bbb`bhh`ejjgj`j`e`e`bbf`hheee`h`b`h`g`a`dcccc`c`ccc`ccddd`kddddcd`dkk`a`aaa`kdd`ccc`ccc`ccc`kalgj`b`e`lii`aai`j`h`hhh`b`b`b`",
"``e`e`````b`h`h```e`e`h`b```h```e`e`h`b```l```c```c`c```````````````c```d`k```````k`c`c`c```c`````````b`h```i`a`a`i`g`e`b```b```",
"ejj`j`ehhbb`h`bbhee`j`hhh`fbh`eej`e`h`bbheg`iak`dcc`ccccc`ccc`ccccc`ccccc`ddkaaaa`a`d`c`ccccc`cdkailg`hbb`jgl`a`kkk`llg`ehh`h`ee",
"````g`g`````b```````h```````h`e```j`e`````e`g`i`k```````c`c`c`c```c```````c`````i`i```d`````c`c`````g`e```e```a```````````g`g`g`",
"lllii`l`ggjee`bbb`bbbhb`bbb`h`e`e`j`j`hbb`bhe`g`a`kddcccc`c`ccc`c`ccccc`ccc`dkk`lilli`a`dcd`c`dkkai`l`j`hfh`g`ikdcc`cddka`i`l`l`",
"i```i`i`i`````e`````b`b`b`b`h`e`j`j```j`h```````l`a`````c`c`````c`````c```c`d`a`````l`l`a`k```````i`l```h```j`````c`c```k`a`i`i`",
"i`aaa`a`iil`ggj`ehbbb`bbb`hhe`eej`jgjjj`jhbbhbheg`aak`d`c`c`ccc`ccccc`ccc`c`c`kai`g`jjg`l`aakkk`aai`lggje`bfe`l`kcc`ccc`c`kaaii`",
"a`a```a```i`l`g`j`e```````h`````````````````````j```k`d`c`c```c`c```c```c`c`d```i`g```g`g`````a`a`````````b`h`g`a`````c`c`````a`",
"a`a`kaa`aiiil`l`g`j`eeehh`e`eejjjjggl`gggggeh`bbe`g`i`kdc`ccc`ccc`ccc`c`c`c`ddk`i`ljj`e`jggli`i`i`ilggjjehb`heg`i`dcccc`ccdkk`a`",
"a```a```````````g`g`j```e```j`````g```l```g`e`b```j`i```````c`c```c`c`d`d`d`k```i`g`j`e`````l`i`i`l`````h`````j`l`k`c```````k```",
"i`aaa`aaaaa`iil`l`g`jjj`eeeeeejjj`gglllll`g`e`h`bhe`llakdcccc`c`ccc`cdd`k`k`k`aai`l`j`eeeej`g`lll`llj`ehb`bbbhe`g`i`d`ccc`d`k`aa",
"``i```a```a`i`i```````j`````````````g`````g`e`h`b`e`````````c`c`c`````k`a```a`a```l```e`````j```````j`h`````h```g`l`a`d`d`d`k`a`",
"iii`iii`a`iai`illlggjjj`ehhhh`eeejj`g`ggg`j`e`hbf`h`jgliakd`c`c`c`cck`a`illli`lii`llgjj`eeeej`ggggjje`bbbbh`h`eej`g`ika`d`d`kka`",
"i`````i`i```````````````````b`h```e```j`j`j```````h`e`````k`c```c`d`k`i`````````l`l`````e`````j```````````e```e`````````k`d`k```",
"i`iliii`iaaaaii`lggjj`ehhbbbb`bbb`hbhhh`e`eehhhbbfb`e`jglaa`ddccc`d`a`i`gggjggg`l`lllgg`j`e`eeeeeeeehbfbh`ejjjj`jjggl`iak`kkk`aa",
"``i`````````a```l```e```b```b```b```````h```````````e`j```````````k```l```j`````g```````j`e`e```````````h```````g`g`l`i```k```k`",
"kaaiiii`iii`iii`l`jeehhbb`fbb`hhh`bhbbb`b`bbbbbffbbhh`e`jgl`iiaaa`aaiil`gjj`eejjg`glllggg`eee`hhe`hbbbb`ejj`gllll`l`l`i`a`kdd`k`",
"``````a`i`a```i`l`j```````````e```j```e`h`b```````````e`j`g`l`i```a`````g`e`e`````g```````j```h`h```b`````g`l`````l`i`i`a```d`d`",
"cdddk`aaa`iii`lll`j`eebbb`bhe`j`ggg`gjj`ehh`bbb`hbheh`e`e`ejj`gll`iii`llg`e`h`hheej`gggggjj`ehh`bbb`ffb`ejg`lii`iii`iia`kkdcc`cc",
"````c`k`````l`l`````e```f`h`e`j`l```````````e```h`h`e`e`````````g```i`i`````e`````e`````g```e`````b`b`b`e```````k```````k```````",
"c`c`d`d`a`ill`gggjgee`b`bbh`e`g`liiii`iillg`jjeee`e`e`eeeeeeeee`gglllii`lgg`hhb`bbb`eej`jjj`h`bbf`f`f`h`hej`liakk`k`kkk`d`cccccc",
"c`c`c`d`a`i```````e```b`````e`g`l```k`a`i`i`l`````j```````````e`````````l`j```b`f```h`e`````h```b`b`b`b```g`l`````d`d`d`d`c`c```",
"ccc`c`cdk`i`ljj`e`e`hbbfbbh`jgg`i`aka`k`k`a`iii`g`jjjjjeeee`eej`jgg`liiil`gjehb`bbb`b`b`bhhhbbbfb`b`b`bhh`j`l`akkdd`d`ddd`c`c`c`",
"``c`c`````i`j`j`e`h```b```e`````i`a```d`c`d```i`l```j```````g```g`g`l`````````````h`h`b`b`````````h`````e`j`g`i`````c`````c`c`c`",
"c`c`cccdk`l`g`e`bhfbb`bbh`eej`g`i`akd`c`c`ccd`k`all`ggj`jgg`ggggg`l`l`iil`ljebbbhee`j`e`b`b`bbbbhhh`ehehh`ejg`i`kkd`ccccc`c`c`cc",
"c`c`````a`i`j`e`````h`h`e```j`l`i```d`c`c`````d`a`l```g`l`l```````l`l`l`l`g`````e```l`g`g`e`h```````e`````````l`a`d`````c```c`c`",
"c`c`cdd`ail`j`hbb`b`h`e`j`j`ggl`iia`dcc`c`ccccc`k`i`l`ggg`lli`iiill`lll`l`jge`bbj`lia`k`llg`eee`eej`ejjjeejjjglia`kdd`ccccccc`c`",
"``d`d`k`````j```b`e`j`g`g`g```l```k`````c`c`````d`a`l```````i`i`````l```g```h`````a```d```i```j`j`j```g`````````i`k```d```````k`",
"aakkk`a`ilg`e`b`bhe`g`g`g`lll`lii`kdd`ccc`c`ccc`c`k`illllll`i`i`iiilllg`gjj`bbheg`kdc`ccccd`a`lgg`lgl`l`ggg`ggl`i`akk`kdd`kaa`aa",
"``````i```g`e`h```e`g```l```l```i```d`c`c`c`c`c`c`d`a```l`l`l`i`i`````````e`````i```c```````d```````i```l`l`l`l`````k`k```a`i`i`",
"gglll`lll`g`e`fbhhe`gll`iii`iii`a`k`d`c`c`c`c`ccc`c`aii`g`g`g`l`l`llg`jje`b`bhj`ikc`ccd`dcccccdkk`aii`aaa`iii`iiiii`aaa`aii`l`g`",
"j```g```g`j`e`````````l`i`i```a`a`k`k`c```c`c`````c```i`g`j`j`g```g`g`j`h`b`h`j```c```k`````````d`k```k```````````i`````i```g```",
"j`j`jgg`ggj`ehb`bhejg`l`i`a`aaa`aaa`k`kcc`ccc`ccccc`cki`g`e`e`ejj`j`jje`h`bbe`gia`ccc`a`lliakcccc`dcd`d`dddkk`aai`iiiii`lll`gjjj",
"``e```g```````b`h```j`l```a`a`````a`a```d`````c```````a`g```h```e`e`````f`h`````a`c```i`g```````````c`c```c```k`a`````l```g`````",
"e`eee`jjggjje`h`f`eej`l`iaa`akkaaaa`a`a`dcccc`c`cdccc`k`gee`fbb`b`bbb`bbb`h`jglik`c`cki`geeejgi`dcc`ccc`ccc`ccd`kaaiill`ggg`j`ee",
"e`e`e`````j```h`b`````l`l`````a`````a`a`````c`c```c`c`d```h`b```b```b`b`````g`````c`c```j`````j`i`d`````c`c`c`````````l`g```j`e`",
"ehh`ejejj`ggj`ehf`hej`l`iiaaa`aka`aii`aaa`dcc`c`cdc`c`c`ije`fbh`hhhhb`bhhee`j`llikdccdk`jhhbb`h`j`adccccc`c`ccc`ddkaiii`ggj`j`e`",
"````e```````j```b`h`j`l```a`a`a```a`````a`k`c`c`c```c`c`a`j```e```````````j`j`````````d```````b`e`l```````````c`````a`````j`j`e`",
"hhhhh`eejjjgg`ehb`h`g`gii`a`k`a`aai`iiiia`k`d`ccc`ccc`c`k`jhb`ejg`ggjjeee`e`ejjgl`akc`cdi`ebf`fbb`jlakdcc`ccc`c`ccd`a`ill`g`eee`",
"h```h`h`````j`e`````j```i`a`a`a`a```a```i`a```````c```c`d```````g`l`````e`h`h```j`l`k```k`g`h`````e`````c`c`c`c`c`c`k```l`g`j```",
"b`bbb`b`bhheh`e`b`hejgiii`a`a`a`iaiii`iii`iia`ddccc`ccc`cdi`ebheg`lllgj`hhh`bbb`eeg`i`cccdi`ebbfb`h`gladc`c`c`ccc`c`dkaii`g`jeh`",
"b`b```b```````h`b```j```a```a`````````i`````i`a`````c`````k`j```j`````g`````````````g```````````b```j`````c`c`````c`d`````l`j```",
"b`bhh`h`bhbbhbb`bbh`ggl`a`kkk`aka`aiiii`ill`lii`kdc`ccc`ccd`g`bhe`l`lgj`h`bfbbbbbbb`ejl`dcccaij`ehh`jgiadcc`ccc`ccc`c`kaail`j`hb",
"``e```j`e`````````e`````a`k```k`k`a`````g`l`````a`d```c`c```i`h```g`g```e`f`h`````b`b`j`i`````i```j`j`````````c`c`````d```````h`",
"b`j`gll`g`gjj`eee`ejgli`k`ddddd`k`aiill`l`gglll`i`addcc`c`cda`jhbhj`ggj`hbf`h`eeehb`b`bhgikcc`d`lgj`gli`dcc`ccc`ccccc`d`k`lgjeh`",
"b`j`l`i`a`i`l`g```````i`k```````d`````l`g```g`l`````````c`c`k`````h```j`````h`e```````````````c```i`````d`c`c```````c`d`a`l`j```",
"heg`i`k`kdk`kai`l`lglli`kdc`ccc`ddkkill`g`g`g`g`llliakkdc`d`k`ige`b`ejj`ehbbb`jjjjjeehb`fhjla`ccc`kkkak`c`c`ccdddcd`cdd`k`i`j`h`",
"h```a`````````k`a`i```````c`c`c```d`````l`j`j`j`g```````k`d```a`j`b`e```j`````````````h`b```g`k`c`````c`c`c```````d`````a`l`g`b`",
"h`gia`ccccccccd`kaa`iiakd`ccc`ccc`d`k`lgg`j`j`eej`j`gllia`kddka`g`b`h`jgg`ehbbbhegj`j`ehb`b`e`i`d`ccc`c`c`ccddkkkaakkkk`ail`j`b`",
"h`g`a`c```````````a```a`````c```c`c`k`i```e`e`````e`j```````````g```h`g`````````e`e`e`````f`h```i`c`c`c`c`````````````a`````j`b`",
"h`g`a`c`ccccccc`ddkkaaa`kdc`c`ccc`c`k`i`gje`b`hbb`bbh`jjg`iaaai`l`hbe`l`iillg`bbb`hheeehhbb`bbejg`a`d`ccc`dkaai`illii`liillgj`hb",
"``g```d`c`c```c`c`````a`k`d```c```c`d`i`j```f```h`b```h`j`g```l`j`b```l`a```i`g```````````````````l`a```````i`l`g`g```````````f`",
"h`jglia`d`c`ccccc`k`aai`a`addcc`c`c`kkl`jhb`bbh`hhb`bbb`bhe`jgg`ebb`e`ikkdc`k`i`ehbbb`bbh`bbffb`heg`iaakkaail`l`j`jejjj`jjjjehbb",
"``e```````d```````k`````i```````c`c`d`````f```j```j`e```````e```````g`a`````c`k`l```b`b`b`b`b```h`````````i```j`e```h```j```````",
"b`hjjgg`iak`ddddk`aaiil`gll`iak`ccc`kalge`bhj`gll`g`j`ehb`b`b`bhbbbeg`a`ccc`c`cdk`g`ebb`bbb`bbffbhe`jglll`l`jje`b`b`bbbbh`hhhhbb",
"f`````j`g`i`a```a`````g```g`l`a`k```````e`h`````i`a`l`g`j`e`h```b`````a`c`c`c`c```a```````````````h`j`g`l`g`````f`h```````h`````",
"bfbbb`eej`g`lii`iiill`jjjjj`j`l`a`aaaig`h`h`giaak`k`aai`l`jjehhhe`jjl`k`c`ccd`cccckalgehb`bfbbbbb`h`e`j`g`jjehbfb`hhhhbhb`bhb`h`",
"````b`````````l`````````````e`j`l`i`````h`h`l`````d`````a`````````j`l`k`c`````d```````````b`````h`h```e`j`````````j```e`h```b`h`",
"hhh`bbbbbhh`ejj`gggjjjeehhhhh`e`j`g`lgjehbh`l`kdc`ccccc`dkkaallgljl`lik`c`cdk`a`dcc`kal`jhhbb`bhh`h`hhe`e`e`hbfbeejgg`g`j`b`f`h`",
"e`e```````b`h`````````````b`b```e`j`j```````l`k`c`````c`````k```````````c`c`k```k`c`c`i`j`````h```h`e```e`e`h```````g`g`j`e`b`h`",
"e`eeehb`ffbbh`hhh`eeehh`bbf`b`bbb`hhe`eehbb`gik`ccccc`ccccc`ddkai`iiiak`c`c`d`aak`ccc`aigge`heh`hhe`h`ehhhh`h`bbhej`l`l`gje`b`bh",
"``e```e`b`````b`h`````h`b`````b```b```e```b`````````c`````c`c`````a```a`d`c`c`k```````````g`e```e```h```e```e`b```j```l```j`b```",
"e`jjj`e`b`bfffb`b`bbb`b`bbbbhhh`bbb`bbh`h`bbjgadc`ccd`ddccc`c`ccd`k`a`a`dcc`ccckk`dcccc`ilj`e`e`h`eeeee`e`eeh`hbb`heg`llg`j`h`bb",
"h```j`e`h`b`````f`f`f`b```````````h`f```h```````c`c```k```````c`c`d`k`a```````````d```c`````j`e`e`````e```e`````b```e```g`j`h`f`",
"hhe`j`e`h`b`b`fbf`b`b`bbh`eeejjje`e`b`bbb`fbhjl`dcc`dka`kkddccc`ccc`k`a`akddc`cccdc`c`c`kilgj`eee`eee`jjjjj`eee`hhb`beejj`j`ebb`",
"``h```e`e`h`b`b`````h```e`j`g```j```h`b```b```g`````d```````d```````d`k`a```d`c`````c`c`k`````j```e`e`j`````g`j```h```````e`````",
"b`hhe`eje`h`h`bbheh`ejjjg`g`l`lgggjje`h`bbffb`jgi`ccc`aaiii`akdcc`ccc`kaa`a`kdc`ccccc`c`d`ilg`jee`e`j`jgg`ggg`g`jje`bbbbhee`hhbb",
"b```h`````e`h`````e```````i`i`i```````e`h`````e`i`d```k```i`a```c`c`c`````a`````c`c```c`c```l```j`j`j`````g```g`g`````h`````````",
"bfb`hhe`jjj`jej`ejg`gilii`a`a`iii`llg`jeh`bhbhe`l`kcccd`i`l`i`akd`c`cccdkaiaakdcc`c`ccc`cdk`lgg`jjj`jjgglll`ill`i`llg`ebb`bhehhh",
"``````e`j```j`j`j```l`i`k```k`````i`l```j`h`````g```````a`i```a```c```````````d`````c`````d`i```````````````i```i`i`l```h`b`````",
"hbb`bbh`e`jgg`jgg`lla`a`kkkdd`kkk`a`ill`g`e`ehe`g`adc`cdk`lii`aak`c`ccc`cdkkk`kdccc`ccccc`c`kalggjjjgggll`iii`aaa`i`lig`ebb`bhh`",
"h`b`b```e`j```````````k`````d`d`k`k```i```j`e```g`i`c```d```a```k`c`c`c`c`````````c`````c`c`d```````g`g```i`````a`a```l`````b`h`",
"e`hbf`bhe`jgl`lii`iaa`kdddc`c`c`ddkka`i`lll`j`jgjli`kccccdk`aak`d`ccc`c`ccccccd`c`ccccc`ccc`c`aalgggg`g`lii`aaa`a`a`i`lgg`hbb`bh",
"``````h```j`g`l`i```a```d`c```c```````a`i```g`g```````````````k`d`````c`c```c`c`c`````c```````d`````g```l```i`k`a`a`i```g`e`b```",
"bbbbf`bbh`j`gli`i`a`akk`d`ccccc`cccdd`k`i`lllgggg`liakccccccc`d`ccc`ccc`c`ccc`c`c`ccccccd`ccccc`ail`g`ggl`lii`i`a`a`iillggj`h`bf",
"````b```h```````i`a```k`d```````c```d`k`a```````g`g```````c```c`c`c`c```c`c```c`c`c`````d`d`````k```l`g```l```i`i`i```````````h`",
"bbb`bbb`hhejjgg`iiiaa`k`ddccccc`c`c`cdd`kai`llg`g`ggl`akd`ccc`c`c`c`ccc`c`ccc`ccc`ccc`c`ccc`ccc`dai`g`ggg`ggl`lli`iiill`llgggee`",
"``h`b`````````g`l`l```a`````````c`c`````k`a`l`g`j```j```a```c`c```c```c`c```c```````c`c`````c```c`a`l```j```g```l`````l`l```````",
"jee`hhhheheee`j`j`glliiakkdcccc`c`ccc`cdk`ail`g`jeh`hej`lak`c`c`ccc`c`c`ccc`c`ccccccc`ccc`ccccccc`a`l`j`j`jjj`ggg`l`lli`iiill`gg",
"l`j`````````e`e`e`````````````c`c`c`c`c```````j```h```h```i`k`c`c```c`c`c```c`c```c`````c`c```````k`l`j`e`e```j```g`i```````i`i`",
"i`lggjeeeee`hhh`heejjglli`kdd`ccc`c`c`c`kaiig`e`b`bbb`bbbhj`a`dcc`ccccc`c`ccc`c`ccc`dcd`dcc`ccc`cdk`igg`e`e`e`ejjjg`lliiiiaaa`a`",
"a`i`````````````````````l`a```````c`c`c`k```g`e`b```e`````e`l`````k```````k`d`c`````k`k`k`````c`c`````g`e`e`e`````g```````````a`",
"k`a`illgj`ehhhbbbbb`hej`g`l`kdccc`c`ccd`kal`j`h`bbe`eje`h`h`hjlia`k`kaaaaaa`k`kkkkkaa`i`i`aakkd`d`kkalg`jeh`hhe`ejj`gliiaaaak`k`",
"d```k```g`j`h`````b`h`e`j`i`a`d```c`````a`l```b`b`````l`j`h```j```i`i`````l```````````l`l`l`````k`k`````````e`e`e```````i```k```",
"d`dkk`i`l`j`e`hbbbb`b`hee`g`i`addcc`cdkka`l`ebb`hejgg`l`l`jhh`hhe`g`lll`gjj`ejjjjgggg`j`jjg`gli`aaaaa`ilg`jee`e`eejjgglli`a`kkk`",
"k`d```a`l`g`e```````b`````g`l```````d`````g`e```````g`l`i```j```h`j`j`j`````h`h`````e`e```e`j`g`l`````i`l`j```e```````````a```k`",
"kkkkkka`ilg`jeehh`bbh`hheej`l`iakkkdkka`ilg`ebbbb`ejg`i`i`iil`e`b`b`h`hbbbbbb`hhhhb`b`bbb`h`e`j`lli`aaa`ilg`jjjej`ejjjggl`iaa`k`",
"``````````l`````h`h```h`````g```a```````i```````b`e`g`l`i`a```g`j`b`b`````````````h`b```b`h`h`j```l`i```````g```j`j```j```l`i`a`",
"aakaaaaai`llgjj`e`h`hhh`hee`jgl`laaaa`aii`ggehhbb`b`e`g`i`a`aai`g`e`bbb`bhejjgggjje`h`bbb`b`h`e`jgl`iia`a`iil`g`j`jee`j`jgg`l`ia",
"````````i```````e```h```h`e```g```````a`l`l```````b```j`l`i```a`i`g`````j```````````j`h`````b`h```````i`a`a```l`g`````e`e```l```",
"l`liiii`iiill`gjj`e`hbbbb`hhejjglliia`a`a`l`ggeehbbfbbejj`iiakk`k`ailgggg`glliiii`llg`eehbbfb`bhejjglli`a`aai`llggjje`eeh`eeeggl",
"``l```i`````l`g`j`h`````b```````````i`a`a`i```````````````````k`d`````````l```````i```````````````````l`i```a```````e`````h```j`",
"jjggl`llill`ggg`e`h`bfb`bbb`bbh`jglli`a`k`kiilg`jjh`bfbbhegliak`dcddkka`ill`lliiiii`lgjjeehhb`bfb`eej`l`iia`aai`lgg`jehhb`bbb`h`",
"e`````````l`````e`b`f`b`````b`b`e`````a`k`````l`g`e`h```````````d`c`````i`l`g```````l`g`````h```f`h`e`g`l`i```i`i```````b```b```",
"b`ejggggg`gggjjeh`bbb`heeeehh`b`bhjllia`kdkkk`a`g`jee`hfbbhjgla`d`c`ddkai`ggg`jgg`ggg`gjj`j`eeebb`b`h`ejg`l`iii`illggehhbbf`b`bb",
"``e`````l```j`````````````````h`````````k`````a`l`````````````l`a```d`````````e`e```````g`j`j`````b`b`h`````i`````````````b`b`b`",
"b`bhe`g`jgj`j`ehbbbhe`j`gggggjj`bbbhj`iak`dddka`ilgje`hbf`bhejg`i`kkk`aai`gjehh`h`eee`jgj`ggg`jjjjh`b`h`bhjgg`lii`llgge`hbfbb`b`",
"b```e`j```j`e`h`````e`g`l```````e```j`````k```k`````e`b`b`b`````g`i```i`l`j`````b`h`e`j`j`````l`````e```b```j`g`l`l```j```````h`",
"h`bfb`hjj`j`j`h`bbh`jgg`l`iiilllj`b`bhjli`kkk`kailg`hhh`ffb`bhhej`glill`g`j`hbb`f`f`hhe`g`gllii`iii`ljeeb`bbh`j`l`l`lgj`ebbbb`eh",
"h`h```h`e`j```e```h```g`i`i```````j`````l`i`a`````g```````b`b```````````j`j`h```b`b`````j`g`````a`a```````````e`g`l`l```e```b```",
"e`hbb`b`e`jjj`ehbbb`ejg`i`i`aaiii`jeb`bhe`l`iaail`jjhbbfb`b`bbbbb`hheee`jje`ebbbf`ffb`hej`lli`kkd`ddddaiijj`bbb`e`g`ggg`jeh`bbhh",
"e```h```h```j```````e```i`a`a```i`l```b`````g```l```````b`b`````f`b```e`````h```````b```````i`k`````````a`l`e```h`j```g`j```````",
"hee`e`bfb`hee`eeebbbh`gll`a`a`a`a`ligjehbbh`eej`g`jjhbfbb`hbb`fbf`ffb`hheee`jehhhbb`bbhhe`gli`d`c`ccccc`d`algeh`bbbhe`g`j`jhbbb`",
"``j`e`h```h```e`h`````j```a`k`k`k`````````b`````e`e`````````b`b`b```f`````j```````h`````e`g```k`c`c```c```````g```````j`j`e```b`",
"hej`jjj`bbb`hee`eebbbhj`lla`k`k`dkkkk`ill`ehhbhbb`hhhbb`bhhhh`b`bbb`bbbhe`jgggggj`jeeeh`e`jglik`c`ccc`ccccccd`i`jebbb`bhe`ehh`b`",
"e`````j`e```b```````````l```k`d`````d```a`````````````b`b`````h`````````j```l`````````e`e```````d```c```````c```i```h```````b`b`",
"eejgg`g`geebbbbbh`h`fbejgiakd`ccccc`dcc`kkkilgj`bbbbbff`b`hhe`e`hhhhhee`g`l`iaa`aiillgg`jejjggl`kdc`c`ccc`c`ccc`dai`jhhbbbbbb`b`"
};
