/* XPM */
static char *Sky[] = {
/* width height ncolors chars_per_pixel */
"59 62 77 2",
/* colors */
"`` c #9C9CADADD6D6",
"`a c #F7F7FFFFFFFF",
"`b c #B5B5BDBDF7F7",
"`c c #9C9CBDBDEFEF",
"`d c #BDBDD6D6FFFF",
"`e c #B5B5C6C6F7F7",
"`f c #7B7B9494D6D6",
"`g c #FFFFF7F7FFFF",
"`h c #CECED6D6F7F7",
"`i c #C6C6C6C6EFEF",
"`j c #84849C9CDEDE",
"`k c #DEDEDEDEFFFF",
"`l c #B5B5B5B5E7E7",
"`m c #BDBDCECEEFEF",
"`n c #DEDEE7E7FFFF",
"`o c #ADADBDBDF7F7",
"`p c #ADADC6C6F7F7",
"`q c #F7F7F7F7FFFF",
"`r c #C6C6D6D6F7F7",
"`s c #A5A5ADADDEDE",
"`t c #9C9CB5B5EFEF",
"`u c #BDBDCECEFFFF",
"`v c #D6D6DEDEFFFF",
"`w c #ADADB5B5E7E7",
"`x c #CECECECEF7F7",
"`y c #D6D6E7E7FFFF",
"`z c #A5A5BDBDF7F7",
"a` c #A5A5C6C6F7F7",
"aa c #EFEFF7F7FFFF",
"ab c #BDBDBDBDEFEF",
"ac c #BDBDC6C6EFEF",
"ad c #9494B5B5EFEF",
"ae c #B5B5CECEFFFF",
"af c #F7F7EFEFFFFF",
"ag c #CECEDEDEFFFF",
"ah c #A5A5B5B5E7E7",
"ai c #C6C6CECEF7F7",
"aj c #8C8C9C9CD6D6",
"ak c #BDBDC6C6FFFF",
"al c #B5B5BDBDEFEF",
"am c #D6D6D6D6FFFF",
"an c #BDBDD6D6F7F7",
"ao c #B5B5C6C6EFEF",
"ap c #9C9CADADDEDE",
"aq c #EFEFEFEFFFFF",
"ar c #9C9CBDBDF7F7",
"as c #B5B5C6C6FFFF",
"at c #DEDEDEDEF7F7",
"au c #ADADBDBDEFEF",
"av c #CECED6D6FFFF",
"aw c #ADADC6C6EFEF",
"ax c #E7E7EFEFFFFF",
"ay c #9C9CB5B5E7E7",
"az c #BDBDCECEF7F7",
"b` c #D6D6DEDEF7F7",
"ba c #CECECECEEFEF",
"bb c #EFEFE7E7FFFF",
"bc c #9C9CADADE7E7",
"bd c #A5A5BDBDEFEF",
"be c #C6C6D6D6FFFF",
"bf c #9C9CB5B5F7F7",
"bg c #8C8CADADDEDE",
"bh c #BDBDC6C6E7E7",
"bi c #ADADB5B5EFEF",
"bj c #B5B5CECEF7F7",
"bk c #FFFFFFFFFFFF",
"bl c #9494A5A5DEDE",
"bm c #E7E7DEDEFFFF",
"bn c #CECEDEDEF7F7",
"bo c #C6C6CECEEFEF",
"bp c #E7E7E7E7FFFF",
"bq c #9494ADADE7E7",
"br c #BDBDC6C6F7F7",
"bs c #B5B5BDBDE7E7",
"bt c #D6D6D6D6F7F7",
"bu c #A5A5B5B5EFEF",
"bv c #C6C6CECEFFFF",
/* pixels */
"br`e`ealaobd`oau`tbd`oaubu`tad`tayahaoavaobu`e`e`eaw`obdbuauauawauaobr`raiauahbdbuauaz`h`raoauauauauauaubdauau`eaobraz",
"awauaubdbubuaybuaybubdbdbuayahaybcal`kaxaiapbdbdaubdauawalbdauao`ibt`v`haiaoaoacalaubravaiac`p`wbdaubdauauau`pacaualao",
"alahbdaubdbdbu`c`tbuahahaybqau`oblaiatatacbcbcbdbdbdbdauauahbo`v`kbpbp`vaiacacbjauahaz`racalaobdahbdbdaubdahau`eawal`p",
"awbdbububdbuay`tay`w`zaybubd`baw`waiag`hauayaybdahbdah`tay`wbe`k`kbpbp`v`iaoauaoauah`w`uaubdbdaubdayauaubdbdbdahau`eaz",
"`bahayahbubdayaybuaubd`tayauauauaubrazaiawbcbubdbu`cayaybcbdbsai`vatbpbtaoahauaubdbubqbdauauahbuah`tbdahbdbdah`tao`eao",
"aoauaubuayahbuay`tayaual`tayahawawahacagalblbcaybubd`tay`tahbsbhbt`kbp`nacapauawbuayayayayah`tay`cahbdbuaybuayahbdahal",
"acazaoauayaybdbuaybibdawbu`tbq`tbcaybcazbeaoaoahbcaybcbqahbr`h`v`k`vatbp`xblayauahbuaybuadbubd`tah`cbuaybubday`tbuauau",
"azbr`eaoaualalbdbubu`pal`tbqay`tbqauay`wbebvaiaz`wbqay`tau`r`v`xbpatbabtaxavahbcbuaybuayayayayayayayaybcbdbubcay`w`eao",
"auaoacbraoao`pauayaybubqayalayblaybi`wau`wacavamazaybcbuaoacbobobtbpatataxataybl`cahay`t`tay`taybcbd`tayaybdbdaybdawau",
"albuau`e`eaual`eaybqaybqayaz`ubg`wanbhaiacacaiaiaual`eapbl`w`hbpbpbp`kafaf`v`sapay`tayayayayaybqadbcayahbdbububuauah`c",
"bd`ebdaualbcahbdbualahbgbcaz`halbsbb`q`n`v`haz`wblah`raoayblai`nafafaq`abk`qaibladaybc`tay`t`taybqbq`t`cbubc`tbdayaday",
"`walauahahay`tayalaw`eaualazaibo`xaq`gaqbtbabaag`vahahavazap`iaibtafbkbkbkbbapblbcaday`tbcaybqaybubdahbu`tbqah`cbcahbu",
"`pbdbcahbeaubcbqbqaoag`v`haiai`w`h`q`g`nba`x`kaa`naublavagaiauaybsat`gbkbk`x`f`tay`tbcbq`tbubd`tahbdbuayah`caybq`t`tau",
"`eauahbjbn`bahbqalbrag`vai`r`hboboaq`qatbtaq`qbpav`wbl`eazbv`wahahbobbbk`g`m`jbc`tayaybqbdbdau`tayaualay`tay`tadayayal",
"ah`w`ebrao`eaoahbjacbr`hbtac`x`vai`x`vbp`nbp`qaqaiayapah`pauaualblah`vaabtapbqayaybc`tbqbcau`obqal`u`paybq`t`tbcaybu`t",
"auau`eaz`wauao`eawalbrag`v`h`v`kbp`h`xbpaqbp`n`nbrbc`taybcal`cbqbq`w`r`kavapbuay`tbcaybuay`cbuaybd`ubuayaybuay`c`tayau",
"`eawalbuauaualauau`eaiav`n`kbt`naqaqaiba`vbp`naiapbqay`tay`tbcayahayal`rag`ububq`taybcay`tbc`t`cbualayay`t`tayayaybuaw",
"`oauauaubuaubdbu`ebralaubr`hbm`v`v`k`racai`kbp`majbq`tay`tbc`tayayahayal`e`eaybqay`t`t`tay`taybuay`t`tbcbuayadbc`tbuau",
"aububdaobdauawalauaoaualbuaoaiaiaiaiavao`wav`n`vav`eapbc`tay`taybc`tbcbcaybu`tay`tbuayay`tay`tbc`tbu`c`tayah`t`tayay`e",
"bdaybuauaubu`ebdalbuawauayayalahahauawaubsazai`hagbeahbqay`tbcay`tbuay`tbubcaybcay`tayadaybu`tah`t`tbuay`t`tbd`w`t`e`e",
"au`tauauaualbd`e`zah`palbq`cbq`tay`obububuazaiau`wau`tay`t`tbu`tay`t`t`cay`t`t`tay`t`t`tbcbqbdbubdawaybcayaybubd`wauau",
"bubdauawbraoaualalazbdbd`cayay`tbcaybu`tapay`ebrayblaybuayay`taybcayayah`tayay`tbuayay`t`cayayaybu`zbuay`tau`ebd`cbdau",
"ayayaual`o`baoauaw`oalbu`tay`t`tay`t`t`cbubcbu`obq`t`taybcbuauahau`bahaububcbcbd`tbc`tayah`oaubdapayayayawauauaubuahbd",
"`tbdaubdalaz`e`eahbqay`tay`tbubq`taybqbu`tayayaubuayalay`ebebeazazazauahahaubu`tbuayahbc`paiao`xagazau`tbcbu`tay`taubu",
"bu`tah`tauao`w`eaubq`cbc`tbubd`tay`t`cayay`tbcbuao`eaz`iaiao`w`w`eaz`malawalahay`tay`t`ealapacai`h`vavaoahayay`tbubc`c",
"`tay`tahbuao`caybd`cbc`c`tay`tbuaybc`taybu`taybubj`bazaiazacaiac`sacavaiaiazalapah`eaobr`palbo`h`h`havaiauaybibd`t`t`t",
"bd`tah`cah`tbu`tay`tbubu`cbu`tay`t`tay`tao`ebuayalapalaz`wbh`naaaibhagai`hai`h`v`hbrazazbrayaibp`xba`havaibraoauay`tbd",
"ahau`zau`tbd`cbd`t`tayadbuayaybu`taybcal`paoaualbj`waubs`wac`kaq`kai`xbsabai`k`n`k`hazbs`walai`k`navboaiaz`uazau`t`w`t",
"`taubrau`taybd`t`t`t`t`c`t`t`t`tbdbqay`zaoal`eaoazaiavaibo`xbhbh`k`nacao`s`r`k`kbt`xbtaiaibo`v`hbt`vam`macaz`eaobd`cau",
"bu`ebjah`t`tbd`t`t`cbu`tbu`cbuaybqau`e`e`tau`ealau`m`h`kaxbpai`lbsagai`wbd`h`n`xbtbpbp`nbt`h`vaiacavavaoahalbj`eah`tbu",
"bubdalbuaybdbuay`cbu`tbd`t`t`t`tahbj`pauay`t`bawai`x`nbp`qaq`k`r`bahaualaoalai`xbp`qaabmbtbt`v`iacaiazauaybubdbubu`t`t",
"aubd`t`tbdbu`t`tbubuad`tbu`tayay`e`ebuaybualawalai`v`vaq`qbp`haiahaj`eanaiaobsbr`nbp`k`n`katatbaacacboal`tay`taybdauay",
"aububuaubdayay`tbu`c`t`c`t`c`tbc`oawbuay`pazazaubsai`kaq`qambhbrazaoah`eaibvaz`maiai`x`kbpbb`qaqbbaxbeaubcauau`t`tbdau",
"`paubdbubd`t`tbd`tbc`t`tay`tbu`cbual`talacavbr`wahal`n`qaqat`kbp`k`naiao`walbraoau`s```xbp`qbkbk`q`qatbsau`e`eauah`t`p",
"bdbubdbd`tbu`tbq`tbu`cbu`taybuaua`awal`pbrazazaobsbr`x`k`kbmaxbpbt`vbtaiau`s`salazaz`s`v`q`q`gbkbk`q`kacauaoawauau`tau",
"`tbd`cbubu`cbuayauazaz`tay`t`c`tbu`ba`au`eai`eau`r`vbraibt`v`k`n`xbt`h`k`nai`eai`ham`v`hbp`q`q`g`qaqb`aibj`eau`obdbd`t",
"`tbubu`c`tadayaubjazaubc`tbcbubu`caubdalbu`p`eao`o`e`eaoao`x`v`hbt`n`k`n`v`v`v`h`h`rac`ibtaqafaqax`vaianacbiaubdbdbdbd",
"bd`cbuayaubuayalbraoaiaobcay`talbdbu`o`obuaybcalbualaoal`e`xaiazbt`k`nbp`x`v`vaiacai`h`n`v`kaq`nbt`hal`eazaybqbu`o`pbu",
"bubuaybuauacbv`rac`haqaa`vah`w`uaeayayao`pahay`talauaz`bazaiaoahah`h`v`hbtbp`nat`vaiaiagaiaiagbtaoaoalao`pau`tauaw`ebd",
"`paubdalal`r`y`vbtbtbp`q`naiah`eal`bbjasao`pazawazazazazbr`e`eay`waz`hbt`naqaq`q`qbbbsahbc`saoaibralbj`ealbdau`tbdauau",
"`ebrbr`eavb`am`hb``nbpbpbpavay`eaoazbraobravavaoai`xavaz`pbuau`e`eaoam`naxaqafbk`q`q`h`wapahazbvaobuao`eau`p`eau`tbdau",
"`eazazaz`x`vavavambp`k`k`v`hbraoai`ealal`mavavac`e`havbrauay`taobraz`x`nbpaq`q`g`aaqbp`daoazavaialaoal`wayau`ebibqbuaw",
"bdbiauau`eaiavb``k`v`k`h`hav`hbragacauau`uaiaibracazbvanbubq`t`b`eaiaz`x`k`q`qbbaqaq`n`iacai`r`eal`v`v`rbraoawauau`tau",
"bdaybuauao`ebvbeamagav`v`k`n`havamav`eaz`xaiaiaz`raibvaz`taybu`zaoauacag`kbpafbp`kaqbpavacaoaiai`rbt`v`katazauauaz`ebd",
"`o`pbdbd`palawaubravag`vbb`n`h`vav`havbvbvanbvbvbebvazalahbuaybu`zayalag`n`k`qbpbbaqaqbp`x`m`x`v`k`haiazavavazaoazaiaw",
"`oaubdbubd`obu`tah`uav`v`vavagavaiazbr`rbrbj`eazaeaz`pbu`objbjbjbubcblavaqaf`q`q`qaqbp`n`k`xai`r`v`v`xbsalaibvbrbrazak",
"bjalbdbd`z`t`z`t`tauazbvazai`vai`ebj`e`z`oauau`oaubuau`eaobrav`e`cbuadazaqaa`q`q`qaq`k`k`n`vbral`eavbvaoaoal`eazazbraz",
"`e`pbu`o`o`t`c`tarau`z`bau`obvbv`p`baububu`tbu`c`eauasaoauaz`vaobr`eahah`vaqbbaqbp`kaiai`v`kazap`wazau`e`uauaubj`e`p`b",
"`e`o`zau`z`tbd`tau`zbubd`o`pbubj`e`t`oaw`oau`tal`oaibe`ealbvbeav`kbebiahai`nbb`k`kbeacal`x`v`xbs`eaiahalazbebrai`ealaw",
"`o`p`e`z`tbdbf`z`tbd`t`obj`o`zau`tbububjbj`bbdbuanagavbr`ealai`k`n`vavaiai`h`n`k`n`vacao`x`v`n`v`n`valaobrbrbeavaz`e`e",
"azaz`bau`t`cbd`t`c`t`z`c`oaw`p`taubdbd`z`b`z`tbdbrbeavagacalac`v`kamaqaxbtbh`k`kbb`kalacag`v`kbpaq`vazaiazalaobrbr`eaz",
"aiasaububd`tbd`tbubfbdbd`zbd`o`o`b`e`obdbd`tbuau`t`uavav`v`vaiam`v`nbpaq`vbs`vbmaxavbsalbe`x`v`k`vaiav`hbraz`eau`eao`u",
"azazaw`zbdbd`zbubdbdbd`zbd`obubdbda`bd`oaray`c`tau`eazazbe`v`h`v`vat`nbpatamb``vb`bpacahaoai`racalbhbr`raibrazbrbdbu`e",
"az`eauauaubdau`o`p`obu`cbuaw`zbdbd`t`tau`o`t`t`t`tau`eal`eaibvbn`vamat`vbn`nb``xamagaiacai`vataiazai`e`e`e`eazazal`tau",
"`p`e`oaw`pauaw`eaz`p`obu`t`c`p`tbu`tau`eawau`tbd`tbdau`tbiaoazbraiaiaiaiaiav`hai`h`haiac`ibn`nb``h`haiaubcauaw`pbdau`p",
"`oawauaobr`eau`e`ebrau`cbd`tbdbi`cauau`p`o`cbu`pbd`t`tbd`t`tay`taubdbdah`baz`x`h`h`h`vbnb`avbtai`rbebdbqbdbdbubdbuauau",
"`eaoau`baoazauao`e`pau`tbu`tbibdaybd`e`ebu`taybu`obdaybdahbdbi`tay`tahayahazazbe`x`h`h`v`kb`acacaiaibuaybuawalaobj`e`e",
"`e`bawao`eaoau`cbibdau`t`cbd`tbdbcbd`oazaubdbdau`cbdbdbu`cbdau`tbuaw`p`b`tbcal`haiai`v`v`havbr`mazbr`maubu`ebj`eaz`mbr",
"aoaoaualbjauaubu`tbdauauah`t`taybdbuauaualauaobdau`paw`tbuau`paybd`paubdbuayah`pai`r`xaiboai`r`xbrazaz`eahauazaoaobraz",
"`eao`eaw`eazbdayaubdau`obd`tbc`t`tbd`cbdaw`e`eao`eawbuaybubdbdbdau`eau`tayayadahbr`ebraoazaiazazacaiacalauaw`ebrbr`mbr",
"azbralalazacaubuauao`obdbdayayay`tayahau`eao`eauauau`tahaubdaualauawaobuah`taybubdac`mbraiazbsao`eaoaw`oauauaoaoaobr`m",
"azbraobjbraoauaubdaoawalay`taybuay`taybdalauaobrauauaubuahauaubrawauaoaoauaybqbqbqalbr`rbrao`eaoalauauau`wbdalaw`eao`e"
};
