/* XPM */
static char *Tiles2[] = {
/* width height ncolors chars_per_pixel */
"100 100 24 1",
/* colors */
"` c #F7F7DEDED6D6",
"a c #DEDEDEDECECE",
"b c #F7F7E7E7D6D6",
"c c #F7F7EFEFEFEF",
"d c #EFEFDEDED6D6",
"e c #F7F7F7F7DEDE",
"f c #EFEFE7E7D6D6",
"g c #DEDED6D6CECE",
"h c #FFFFF7F7E7E7",
"i c #E7E7DEDED6D6",
"j c #EFEFF7F7DEDE",
"k c #E7E7E7E7D6D6",
"l c #F7F7EFEFDEDE",
"m c #F7F7F7F7E7E7",
"n c #E7E7D6D6C6C6",
"o c #EFEFEFEFDEDE",
"p c #EFEFF7F7E7E7",
"q c #DEDEDEDED6D6",
"r c #F7F7E7E7DEDE",
"s c #F7F7EFEFE7E7",
"t c #DEDED6D6C6C6",
"u c #EFEFE7E7DEDE",
"v c #EFEFEFEFE7E7",
"w c #E7E7DEDECECE",
/* pixels */
"ooollloouoodgwdidduu`uuuuuuuuuuuuuuuuuuuduudggggdussssslsssoooooossougwddduolsoossodiidwwwwudiwwwwdi",
"oolllllouludgdiid`u`ou`ububu`u`uu`udu`udu`uddwggflssssspssosoololosodigdiduolsoooeoiiidwwqwiiiwwwwid",
"ollllllouludgwdiduuuu`obruuuu`u`duuu`uuuudddiagwlososopmsssoosooolsouwgddfuolsoosoodadiwiwwiigwwwwid",
"oolllloolludgdiid`obuubrububu`dududuuududdiwagdussosopmplsossoosoolsdiwidduolsooosoiiididiwwiawwiwui",
"ollllllllrugwidifuubbubrubuu`ud`ududududidwagiomsoosemoomlmsssoolosouwwwiduolsoesoofididiiwwigwwiudd",
"olllololluwigdidduuuubrruubu`u`udduududdiwagiohsoooossomvmvssossoolsfiwwduuolsooesoufudifiwiiiwiuduu",
"lllollllluwwwdfdu`ubuuubuuu`u`udduududdiwwawosssfo`oosssssmsssosolsoodwwdduolsoosjsoodudiiiiiiidfuoo",
"llollollouwwwdiudduubbrru`u`u`u`uduuduwdaawlssool`fobllsmlmvsssolsosodwwiuuolsoossosoududiiidiiuuuol",
"usssuolsudwwwddudouuuuu`uuu`udu`oudddiggawlvssouuuu`uullsosossoseesosfgddduollssjjesoooofodfufoooool",
"sooooloouwwwidido`u`u`u`ubuu`u`uu`uddiwguulssouubbuubulllosssossososouwdifuollssooosooooouofoollooll",
"oooosoo`wqgdidddu`u`u`u`uuu`ouuu`uodiwiissssou`ouu`uuuuussosessosoosoodddduolllsosoooslslolooollllls",
"oooollodagwddiufududududu`uubbbbuuddiwiussoluuuubu`uuubulossssoseosolofdfuuoulllsoosooslslsllllsssoo",
"olssoodgwwwidufouddudddu`uuubrrruddiwiossoluu`uuu`uu`ouuoulssseoesosoooddduullllolsosloosososososolo",
"lsslowggdididuou`udddfufudubruuu`diiiuselouu`u``ou`uuuuubrllsosopsesoloddu`ouullllososooosolollloooo",
"oooddgwdidiidou`udfifiuddu`oubuudiifusssuouuu`udu`obuu`ouuuolsososesoolo`duuullluulosolsoosososuooll",
"udwwwdddikdidoudduididduddoubuu`iiiuepsufdu`ouububbubuuubbuulosoooesolso`u`uuulluuuoolsoslsosoooolso",
"giwqiiikdddfd``fddidkffdu`uduudiaiossso`ou`o`uuuuuubububuublrlllsssosooouuu`ououu``ouollssssososoluu",
"iwiiddfdffdfufudfdiidduiodu`udiikusssouou`uuuu`u`buububuuuuuuulrsoosoooolbuuobluuo`u``duooufufudiwdg",
"dwdddfufufoufo`fudidfidddudfdiiiosesuouuuuu`ububuubuuuububuouuuuoooosooorrlublrulbo``dddddddiiiididd",
"dddudoubooullou`diiwiffudddiiifusssuo`obubuuuuuubububbuuuuuubuuuoollololbrullrlubbbufo`odufdddddiddi",
"uduoulblllolloofdiwiiidifdiwadusssooouubuuuobuuubbrbrububuuuuuuu`oullllurubrlllluobblbobouuouou`udkd",
"oooulllvlllllloodiwgiwdidiwiiosesooouubrululululrrlruuubuuubuu`o`ouluobuuuuuullrllllllullluoouoouodu",
"lllllllsssososoouddwwiiiwgiiosemuooulbrululuoullrlrrubruuuuuuuouou`obuobbu`uuulllllssooolllllllluoou",
"soomomossooooooooodigdgwgwiummhuluolrrlrouolulullrrlbrubuuuubbblbbobubburu`ddouloooosososssssssslllh",
"sssssosoosoolllolludgwwgguohmllsuooooooolololollllllrouuououuurruuuubrluuu`dduduorllsosososososossso",
"sosoosoosoooolobllodwggnuummvlolsososollooolollllllolulbobubobruuuuuuouuu`ududduuulllsosososososooos",
"soesoosoosoolllllludgwgwlmvslllolsoslssollllllllssuloouoblroubruuuubuuubu`ufuddduuullsooesoslsososoo",
"sososooslooolllllludtadlmlvlmllsllllllollsososssoosooloolrluuubbuuuubuluuu`uddiiddolllssosoesesesols",
"osososlsosolllllruwagiommlllllllollolollsososososoosoolllruoubrruubuuuuuouudddiddduullsosososoososos",
"soosososoosollouudggolmmvlvllololsssossosoosososesosososoluuuuuuuuububobrou`udddwduuuososoosoosososo",
"osoosomomolsoou`dawushoosssloluososoosolsososososjeososollouubbuuuuuuuuuobuou`udduddooooosoosoososes",
"sooslslslsollo`igwdlmmopllloluosooooooooosooesesjooeposolluuuuububububobrrluouddu`udu`uolsosolsososo",
"sosoeosoeoosoodgiusmsommollvloudgwwwwdgwgiifussssjossesosolblbr`rubrubrruubrbuu`idduduoulollseesoeso",
"seseoseoseoouddduosssoomlvluuwiwiwwwwwwwwwqgdfusososososoooubr`uuuuubuuububrruu`dduddduuolososepsoes",
"sosososeosoogidossssoloplluwwwqgwwwwwiwwwwggwidfoosesoooslluuuuu`u`uuubuuuuuubuuudddududouolsssjsoso",
"soeoespesoodgdusesosssssuuwwqgwwwwwiwwwwwwwdidiifuososolsooou`u`u`duububbubububbuudddddddfoosoesjseo",
"sossososoowwuusssposessuigiwwwwwiiuwuwdiwiuididwduolsososoluu`uu`du`uubrrubuubruuu`ufddiddfoosososos",
"oseoeoosodwiummmoeoessfdiwiiiwwwuddududuudidididdfooslesosoouddudu`uuuuubbrubruubuududdidddoooosoeso",
"soesosoodudusmmmopsesodwwigiiiiiuuuuu`uududdddudddfolsoesoso`ddudu`u`u`uuuubruubuuuo`fiddwddfooosoes",
"osseooofidssssomoopsoodgiwgwwiuudououuuouuooou`udffoosooosooudidddudd`du``uubrbruuluudddwdddfuoososo",
"osesosdwiosmsssmoussuiiiwiidio`oooolloooooou`fudfudoolssosooodiddddudiuddudouuuuublroudddiidifuooseo",
"soooo`duovmmlsosoosouiwiiiidddoblllsosololloou`ddufoullllsooudididididdiuduuuuubuoubru`uiidkddddusss",
"oooouidohmvlvsososeuiiiiiidfuoollssosolsooslllodfduuollolllrodidiididididudoubuuuuuuouu`kddidiidfuos",
"sooddiusmvlmlssosesfwqdiidduuolllsoolsooolsslso`dfuuollollolrugdididididudu`ouubuluuuuuodudfiidiidou",
"o`diiussssllmsososoiawiidiuuolsolsososloslsolsofdiuoollololrougdiididifudduuuuouuuuuubuoouddidiwgd`d",
"duiiusemlsomssooosogwwwudduolsosososooosoosooloodduoullolvrolugdidiidduddudouububobubulbloufdidiwdig",
"diduommvmssosooolsfgdwidduoolsoososo`uuoosoolso`dufolllollollugdiiddkududduu`ouuuuuouuuuuouodfiwiwiw",
"wddssmvmllosoolosofgdwwuduulssoosoodwwiooosossofdduolvloloroluwdwidiududududoubulubrobuuuuluudwgiiiw",
"lommssosusoososoosfwwwiu`oosoesesodadiwdsoosssodwdfolllulvlulugwwidudu`udouuuuububuuuulu`lbu`udwgdii",
"vvvsssosooosooososdwqdidfoososossugwiwidosssoodiidfollollluluiwwwiddu`udoububbubuuul`o`oubrududigggw",
"mvhssesosooososolsfqgdidoulosjseskiwiiiwuosoodiiwdfolllolloulwwwwuiduo`uububuubuu``u`ufuuuu`uudiwgtg",
"lmvsssssooosoososougwdidoblsososoiwigdigidfugggiddfolllllulluiwiwidufuu`uububuubu`ufudu`u`u`udiaggwd",
"ssssssssosoosoososdwwidfouosjoesoiiiwidwgwwwwiwidffolllolorouwwwidudou`ubbruubuu`ududududududiaggdos",
"sssssemmsosoosoossfwwiidobsososoouwiidiwdiwwwdiiffoolllloroluwwqdiduuuuuuubububuudududududddiwaaioss",
"soosssmvsoslsolsosfwwiduuloseoossfiidiwdidiidiidfoulllollulliwwwidufubbbrbruuuu`udududududiiwagiseeo",
"oososmvcsosesooossuwwiddollsoeososiwuiwdiidgwwddouloollulolodwiwuifuuubrrlubub`ududududufdiigaiuosmm",
"ooossssosessosososfiwdudouoosososoufddddwgiwdduuooololllulluwqwiddu`uuuubruuuuu`udu`uufuddwaaioessou",
"uoblssossssossososodiidu`oolsooeosofud`dddidduuoollllllloluiwwwwudduubburrbubu`u`u`ududddiggiuopllou",
"obrlossesesssossooougdduoollsospoooooo`oufuuuuoollllllollouwwwiwudu`uuuubruuuu`uu`udufuiwgidussulluu",
"uurulossssssessososfdidu`ollsoosososololoooooolslllllsolluwwqwiwud`u`uu`uuubu`uuuu`uoddiagduessuouuu",
"bbuuullssposssoesooouddufollosoosolslsoloouooollsoolllllluwqgdiiu`udu`u`uu`uuubu`uuuuddgwiosssou`uu`",
"rubuuullossosossoslludi`oubloolsoososlsoooollllllooolllluiqgdiiiuu`u`u`u`u`uubububuu`diikusssoufu`ou",
"bbubuuorsosossesoosoouddu`oooooolsolosoololosoosoooolluuiigdiiifu`u`uddu`u`u`uububuudidiossooouu`uu`",
"rbb`ubuusoosossosoolldud`oulooooollsooosoooloooololllluiwwiiiikuou`uddu`duduuubrbru`widfessoouuu`uuu",
"uuruuubuuoossososooolufifuublrbllllsssososossossollluuwwwiiiidudubu`dddku`ou`uuuuudgiioemlluuu`ouu`u",
"ububububuolllssosoollluddoublrlruorlsssessssososoluuwiiiwuwudiduuuu`didddu``uu`uu`gdiuopllruu`uu`uu`",
"uubububuuuolllssooolllodouuurluuuuuuoossssosoooouddwwwwududduddduu`ddifuddudu`ou`iwiusssouuu`uuuu`ou",
"ubuuubububrrollsosoolloououuouuobuuuuuuoooodudidiigdwwwwu`du`du`u`udididfudu`uddiwiussououuuuu`o`o`u",
"uububububruuulllsololobluuluououbbu```u`duddiidiwwdidiudu`uuuuuuu`didikiddufudidadussooou`u`uouuuuuu",
"ubububrubuuuuullllouobrluoulllbluubu`ududdudddidddidduououo`ollluodiiiiifdfudiwiiusesouu`uouuuuubbbb",
"uububruubbbbbbrrlloobuuuuuoolllluuuuououou`uufufudufuoulooollllloudiwiiwiidiwgddoossoouuuuuuobobrrrr",
"ububruubrrrrruuuoulblu``uoollllulllllluuluouuu`udouuoblrsslsososoudiiiwiiidwagdusosuuouluuboblrrrouu",
"ouuuu`u`uuuuuubouuuluuu`uduullvlssosolsooololooososlssosolsooooolluiwiiwwwwaguomsoooo`oouuubluuooulo",
"obul`o`uuuuouuublubruuu`uduuullloososoosoosoosoosososososoosololllluiiwawwggduopsolooooobboblulbllbl",
"oouuo`o`ouububuluulruu`ududduullososoososlsosososlsososlsolollolollluigwgngdosmvsooooooooulluloloulo",
"ololuo`ouuuuouuuuuuouuou`udddduulusoososososososososososolllllllolvluiiitgdusssoolslslllolllollloolo",
"oooooboulubububobububuuu`udiifduuoolsosesoosolsosesesesesollololllluudiagiusesosoosososoolllllllsoso",
"sooloooouuuuouuuuuuuuluuu`udidiioulolsosoooosooosososososollllollorluiatwosssooosoososoososossssosos",
"osooololubuluuuuuububuuu`udddiiifuloosoesosoososososososolllollolouuiaggplpssoooosoosolsooosoososoes",
"soosoooobluuubuubuuuoubouufudiii`follsosososlsoslsomlesesollllolouuwgtwomcplosoloosoosoososooesjeeoe",
"sososololruuuubbrulbrbrrluu`uddddduulsosoosoeoepoesososoossosssu`odgtqocsossooooolsossssososssososso",
"sesosooorouuuburubrrrrrobruu`dddfiuuoollsoosoeoessjseoeseeoosooolwggiusmosooolslllooooooooooolsmsoso",
"soesoosoouobubuubuuuuubrrubuu`ddddduuollsosesopsjsososoepsooosoffwnwlsmpsooolloouuidwwwwwiwwdfuoosos",
"sososoolobruuubuuububuuuubrbuu`ddfdiduulsosoesoosjseoesosososoodggdomsososooloudgggggwqwwaggggdioosm",
"osesoslsououu`u`u`uuubbbuuubuu`uddfdfuuuoolssjseosossoeosoosoodgtussssssooso`iwgdwiwiwdiwwwwiwiwduol",
"sosomosoluu`u`u`u`uu`uuubbrrubuudddddiduoooososoesjsjsoesesoodwaiomsosoosoodwgwwidiidiidwwwwwwwwidfd",
"osessosllou`dudu`uu`uububruububuu`ddddidfuoolsessososjsssosodggwmvsososlsodwgwdwwiwiidwiwiiidwiwdidd",
"sosesesolluddddouu`uububrruuubrbbuddididffoososseoesjsoesoodwtdommomsooeofwadfdgdwdudfuduuududuwuddf",
"ooosjsosoludiiududuu`uuuuuubuuuuuuudfddiddduossosooospsool`aauocsosossooddiiwiididdfo`udd`ududdudddd",
"uoososoolluiiifiudududduduuuluuuuuuuddidkdfuoossssosososo`iiiovhososoesfdiiwdididfououfooo`o`uf`udfd",
"uloosoosoluiididdduidiuddouuubuubluu`idididduuossjspseooowwissmvsoessoodiiwiidifooullllllloloo`uddud",
"uolooooolluiiikiididididu`oubuuuoubouddidididfuosssssosuiiussssmsosomofiwwwidiuuoolllllllllllooouddu",
"`ooooolllruiiiiidiididdiuduouuuubuluuodddddidifoossosufiwussssssosossodagdiidfuoollllssolssoslsooddd",
"u`olooolroougiiiidiidifuduuulbubluubluuodddiwiddolssodiwilmsoeeososolfigdiidfuololllososoosossoso`du",
"uoooooolrlluwiiwiiddiudduduouuluuuuulbluuddwdiiiduoodiidmvvsssoosoosodwwdiddfoollsoososoosoosesoludd",
"`oblsollrlouwwiiididdududduuluuulbuourruu`ddgdggwdudiwuochvmsooesoslowgdidfiuollsososososoososooludd",
"oblloooololuwwudiddidduduouuulubuobubououuddwgdiwddiaismsssosossoolsdwiwdiduollsosossodffosoooossuid",
"uoolooolllluwwwddifudu`uu`oubulubululubulu`iiwwiigwiismmsosososooosodiwiidduoosooesoodidiuosososouii",
"luolooolloliwwuwifddudo`ouuuuuululububobuuoddwqgdggdspmmlsososoosolsdwwiiddoblsosoosdgggwfsoolmsodii",
"ulollolloluuwwwdddkudu`ouu`oubuluubobobuubu`iiggddwusssmosoosoollosodigdiddullsoeosodwddwuosoosoodii"
};
