/* XPM */
static char *Wax[] = {
/* width height ncolors chars_per_pixel */
"64 64 8 1",
/* colors */
"` c #65656565FFFF",
"a c #00000000FDFD",
"b c #99999999FFFF",
"c c #CBCBCBCBFFFF",
"d c #EEEEEEEEEEEE",
"e c #00000000EEEE",
"f c #FFFFFFFFFFFF",
"g c #33333333FFFF",
/* pixels */
"````gg`b`bfcb``b``gg`b`bd``gdbbbbb`g```bbbbb``gbb`cdbb``bb`cdbbb",
"ga````b`bfcbbb``````b`bfcbbb`gggg`bb```cdbbb``bbbbddb`ag`bbddbbb",
"`g`bb`bbfc`gg`b```b`bbfcbb``eaaaagbbbbcddbb`a`bb`bfc`ag`b`bfcbbb",
"`g`bb`bdc`aea`b``bb`bdcbb`ag````bb``gbddcb`ag`bgbfc`ag`bgbfcbbbb",
"ag```g`b`ag``cdga```b`bb`ag`bbcbbb``a`bbbbge`bggbc`ag`bggbcbbbb`",
"g`bbb``b`g`bbdd``cbbc```ag`b`bfc```b`cdbbbga``gbb`gg`bggbb`bbb`a",
"`b`bdbb`b`bg`dcbbdc``b````b`bfc`g`bb`bcbbb``ccbbc```b`bbbc``bbge",
"`bbfcbb`bbgg``bbbbbb````bb``b`gag````b`bbbbbddc`````bbfc``b``bga",
"cdfbggaa`b``bb`bbbbb```g`bbbgaa``bbbbc``bbbbbbbb```bbdcbb``b````",
"ddcgeaa`cdd`bc``bbb`a`b``cf`a``bb`bd``b``bbbbbbbb`bc``bbbb`````b",
"bbbgabbbddc```b``b`ag`bbcddga````bfcb````bbbbbb`gg````bbbb```g`b",
"dbb`gbc``b`aa``b``gg`b`bfdbaa````cdbbb``gcdbbb`aea`b`gcdb`a`b``c",
"dbbb```b``gg````````b`bfcbgea````cdb`ggbcddbb`ag``cdbcdd`ag`bbcd",
"cbb`aa``b```bbcb``b`bbfcbbga`ccccdd`aeabfdcbbge`bbddbddbag`b`bfd",
"bb`ag```````bbfb`bb`bdcbbb``bdddddbag``cdb`ggaa`bbfcbb`ag`b`bfcb",
"b`ag`bbcb``bbdcga```b`bbbb``gbbbb`ag`bbddbgeaa`cdfcbb`ae`b`bfcbb",
"`ag`b`bfc`bb``b``cbbb``bbbgeb`bb`ag`b`bfcbgabbbddcbb`aeg``bfcbbb",
"ae`b`bfcbb``g`bbbdc``g``bbgab`b`ae`b`bfc`gaabc``bbb`ag``bbbcbbb`",
"g````dcbb`g```cdbb`g`````b`g`gb`g````dc`aea`b`b``bbge`b`bc``bb`a",
"`b`bb`bb`ag``bddb`ag`````bbbbb`b`b`bb``ag``cd``b``bga`bbb```b`ag",
"b``bc```ag`bbdfc`ag`bbb``cdb``bbb``bc````bbddb``b````cbb```gcbe`",
"bbd``b````b`bfcbge`b`bdbcdbgag`b`bd````bb`bfcbb``b``bb`ga`ccdba`",
"cfcb````bb`bfcbbga```dcbdd`ea`b`bfcb``g``bfbgg`b`````gg``cfdd`a`",
"bcbb```g``bfcbbb`g````bbb`aa```bfcbbb``bbbbaea`bb``g`b`bbddbbga`",
"``bbga``bbbcbbbbb``````b`ag``bbbcbbbbb`bb`````cdbb``bbb`bfcbbga`",
"```bga``bc``bbbb`a`b`bb`gg`b`bc``bbbbbb``gbbbbdbgggbbb`bfcbb`aa`",
"`bb```ccb`b``bb`ag`b`bb```b`bb````bbbbb``bbb`bf`eaa`b`bfcbb`ag``",
"bbb`bcddc``b```ag`b`bb`g``bbfb``g``bbb`aabb`bfcgabb`bbfcbb`ae`bb",
"dbbbb`bbbb``b````b``bbcdcbddba`b```bb`aeg`bbfc`aabb`bdbgg`geagbd",
"c`````bbbbb````bb`bbgagbbbb`ag`b```cdgeg``bdc`ag````b`gea``abbbd",
"`ag``cdbbbb```g`bbf`abb`bbbge`b`bccddga``bb`bge`bbbbb``g`ccgbc``",
"```bbdd`gg`ga```cfc`gbc``bbga`bbfdddc``cbbb`b`a`bbd```b`bddb``b`",
"`bb`bfcgeagga`bcddbbb``b``b``cdfcbbbbbbdc``gcc`cdfbg`bb`bdcbb```",
"g``bfcbgabb``cdfdcbbbb`````bbddcbbb`gg`bbbbcddbbb`ag````b`bbb```",
"```cdbb`gbc`bddcbbbbbb```g``bbbbbb`aeagbbbbddcbgeaa`bbbbc``bbga`",
"```cdbbbb````bbbbbbbb`a`b`bb`bbbb`aegbb`bbbbbbbgabb`bbd````bbga`",
"cccbbg`bbb``gbb`bbbb`ag`b`bb`bbb`ag``bc``bbbbb`aabb`bdc```gcd``c",
"ddb`ga`bbbb`````bbb`ag`b`bb`gcd`ag`bbb`b``bbb`ag````b``a`b`cdbbd",
"b`ag``cdbb`gbb`bb``ag`b`bfcbcddge`b`bd``b``b`ag`bbbbc``a`bbddbbb",
"`ag`b`cdb`ag`b```ggg`b`bfcbbddcga`bbfcb````b`e`b`bd``b```bbfcbbb",
"ag`bggbcbge`b```````b`bfbgg`bbb``cdfcbbb``gcba``bfcb``b``cfcbbb`",
"g`bggbb`bga`bbd``bb`bbfbaeagbbbbbdb`g`bbbbcdcg``bcbbb``b`bcbbb`a",
"`b`bbbc````cdfbg`bb`bdbag````bbb`gaeagbbb`bbb``bb`b`gg``b``bb`ag",
"b`bfc````bcddbag````b`gg`b`bb`b`aeagbb`b`aea`bgbb``gea`b`b```ag`",
"`bfcbb``gcdb`ag`bbbbb```b``bc``gg```bc``gg``cdb``g`b``cd`````a`b",
"bfcbbbbbcdd`ae`b`bd``g``bbd````b`bbcb`b```bbddbb``bbbbddb``g```b",
"fcbbbbbbddcgeg```dcb````bdcb``gbb`bfc`````bbfcb`gbbb`bfcbbbccccd",
"cbbbb`gg`bbga``bb`bbb``bb`b`gbb`bbfcbb```bbdcb`ag`bg`dcbbbbdbbbc",
"bb`ggaeagbb``cbbc``bbb`bc``ge`bbdfcbbbb`bb`bb`ag`bgg``bbbbbbgeag",
"``aeaagbb``g`cc``b``bbb``b``g`bbfcbbbb`g``gcbag`b```bb``g`bbgabb",
"`````bbbc``aa`bb````bbbb````bcdfcbbbb`aegbcb`g`b`bd`bb``a`bb`gbc",
"``bbbdd``````cdbb``gcdbbb``gcfdcbbbb`ag``cc```b`bfcb```b`cdbbb``",
"`g`bbfc```g``cdbb```cdbbbb``ddbbbbb`ag`bbb`g`b`bfcb`g`bb`bcbbb``",
"b`bdfc`a`b`bbbcb`aa`cdbbbbbbb`g`bbbge`b``b``b`bfcb`ag````b`bb`a`",
"b`cfcbge`b`bb`b`ag``cdbbbbb`aea`bbbga```b``b`bfbggag`bbbbc```ag`",
"ggbcbbga`bbb`gb`g`bbddbbbb`aeg`cdbbgabb```b`bfcgeaa`b`bd``b````b",
"gbb``g``cdfcbb`b`b`bfcbbb`aeg``bcbb`gbc```bbfcbgabb`bbfcb````bbg",
"bbb``a`cddcb``bbb`bfbgg``ag```bb`bbbb``b``cfcbbgabb`bdcbb```g```",
"c```b`cdb`ggae`b`bfcgeaggg`bbbbb`bbbb```b`bcbbbga```b`bb`a`b`bbb",
"```bb`cdbgeaag`bbfcbga````b`bd``gcdb`aa``b``bbb``cbbc``bge`b`bc`",
"``g``gcbgaabb`bdfcbb`g`bb`bbfcbbcdd`ag````b``bbbbdc``b``ga`bbb`b",
"```bccb`eagbc`bdcbbb`g`bb`bdcbbbddbae`bbcb`b``bbbbbb````bbcdfc``",
"`gbdfb````bb`b``bbb`ag````b`bbbbbbgeg`bbfc``b```gg`bb``gbbbccbb`",
"``bdbag`bbdd``b``b`ag`bbbbb`dbbbbbga``bdcbb`````aa`bbbbb``a`bbbb"
};
