/* XPM */
static char *Wood2[] = {
/* width height ncolors chars_per_pixel */
"64 64 12 1",
/* colors */
"` c #FFFFCCCC3333",
"a c #FFFFC9C96565",
"b c #FFFFABAB4B4B",
"c c #FDFD98980000",
"d c #FFFFCACA9999",
"e c #666631310000",
"f c #FFFFFCFC6565",
"g c #CBCB65653232",
"h c #FFFFFDFD9999",
"i c #FFFFBDBD5353",
"j c #FFFF96963333",
"k c #FDFD61610000",
/* pixels */
"jhfaiadbiibaaabaaaaabaaidaabaaa`iiaaabiibaaaa`dabaaajiibaa`abgea",
"jhfaiadbiibaaabaaaaabaaidaaabaa`iidaabiibaaaa`dabaaajiibaa`abgea",
"jhfaiadbiibaaabaaaaabaaiiaaabaa`iidaabiibaaaa`dabaaajiibaa`abgea",
"jhfaiadbiibaaabaaaabaaaaiiaabaa`iidaabiibaaaa`dabaaajiibaa`abgea",
"jhfaiadbiibaaabaaabaabaaiiaabaa`iidaabiibaaaa`dabaaajiibaa`abgea",
"jhfaiadbiibaaabaaabaabbaiiaabaa`iidaabiibaaaa`dabaaajiibaa`abgea",
"jhfaiadbiibaaabaaabaabbaiiaabaa`iidaabiibaaaa`dabaaajiibaa`abgea",
"jhfaiadbiibaaabaabaababaiiaabaa`iidaabiibaaaa`dabaaajiibaa`abgea",
"jhfaiadbiibaaabaabaababadiaabaa`iidaabiibaaaa`dabaaajiibaa`abgea",
"jhfaiadbiibaaababaaab`baaiaabaa`iidaabiibaaaa`dabaaajiibaa`abgea",
"jhfaiadbiibaaababaaab`abaidabaa`iidaabiibaaaa`dabaaajiibaa`abgea",
"jhfaiadbiibaaababaaja`abaiiabaa`iidaabiibaaaa`dabaaajiibaa`abgea",
"jhfaiadbiibaaababaaja`abaiiabaa`iidaabiibaaaa`dabaaajiibaa`abgea",
"jhfaiadbiibaaababaaja`abaaiabaa`iidaabiibaaaa`dabaaajiibaa`abgea",
"jhfaiadbiibaaababaajaaaajaiabaa`iidaabiibaaaa`dabaaajiibaa`abgea",
"jhfaiadbiibaaababaajaj`ajaiabaa`iidaabiibaaaa`dabaaajiibaa`abgea",
"jhfaiadbiibaaababaj`ajjajaiabaa`iidaabiiibaaa`dabaaajiibaa`abgea",
"jhfaiadbiibaaababajajjkjajadbaa`iidaabiiibaaa`daabaajiibaa`abgea",
"jhfaiadbiibaaababajackjjajadaba`iidaaabiibaaa`daabaajiibaa`abgea",
"jhfaiadbiibaabaabajajkjaajadaba`iidaaabiibaaa`daabaajiiiba`abgea",
"jhfaiadbiibaabaabajajcjaajadaba`iidaaabiibaaa`daabaajiiiba`abgea",
"jhfaiadbiiibabaabajajacaajadaba`iidaaabiibaaa`daabaajiiiba`abgea",
"jhfaiadbiiibabaabajajajaajadaba`iidaaabiibaaa`daabaajiiiba`abgea",
"jhfaiadbiiibabaabajajacajaadaba`iidaaabiibaaa`daabaajiiiba`abgea",
"jhfaiadbiiibabaabajajajajaadaba`iidaaabiibaaa`daabaajiiiba`abgea",
"jhfaiadbiiibabaabaajajaajaaiaba`iidaaabiibaaa`daabaajiiiba`abgea",
"jhfaiadbiiibabaabaajaaaajaaiaba`iidaaabiibaaa`daabaajiiiba`abgea",
"jhfaiadbiiibabaabaaajaaajaaiaba`iidaaabiibaaa`daabaajiiiba`abgea",
"jhfaiadbiiibabaabaaajaaaja`iaba`iidaaabiibaaa`daabaajiiiba`abgea",
"jhfaiadbiibaabaabaaaajjjaaiiaba`iidaabiiibaaa`daabaajiiiba`abgea",
"jhfaiadbiibaabaabaa`aaaaa`iiaba`iidaabiiibaaa`daabaajiiiba`abgea",
"jhfaiadbiibaabaabaa``aaaa`iiaba`iidaabiiibaaa`daabaajiiiba`abgea",
"jhfaiadbiibaabaabaaa`aaaa`iiaba`iidaabiiibaaa`daabaajiiiba`abgea",
"jhfaiadbiibaaabaabaaaiaa`iiaaba`iiaaabiiibaaa`daabaajiiiba`abgea",
"jhfaiadbiibaaabaaabaai`a`iiabaa`iiaaabiiibaaa`daabaajiibaa`abgea",
"jhfaiadbiibaaabaaabaaiiaiiaabaa`iiaaabiiibaaa`daabaajiibaa`abgea",
"jhfaiadbiibaaabaaabaaiiiiiaabaa`iiaaabiibaaaa`daabaajiibaa`abgea",
"jhfaiadbiibaaabaaaabaaiiiiaabaa`iiaaabiibaaaa`daabaajiibaa`abgea",
"jhfaiadbiibaaabaaaabaaiiaiaabaa`iiaaabiibaaaa`daabaajiibaa`abgea",
"jhfaiadbiibaaabaaaabaaiiiiaabaa`iiaaabiibaaaa`daabaajiibaa`abgea",
"jhfaiadbiibaaabaaaabaaiiiaaabaa`iiaaabiibaaaa`daabaajiibaa`abgea",
"jhfaiadbiibaaabadaabaaiiiaaabaa`iiaaabiibaaaa`daabaajiibaa`abgea",
"jhfaiadbiibaaabadaabaaaiiaaabaa`iiaaabiibaaaa`daabaajiibaa`abgea",
"jhfaiadbiibaaabadaabaaaiiaaabaa`iiaaabiibaaaa`daabaajiibaa`abgea",
"jhfaiadbiibaaabadaabaaaiiaaabaa`iiaaabiibaaaa`daabaajiibaa`abgea",
"jhfaiadbiibaaabadaabaaaiiaaabaa`iiaaabiibaaaa`daabaajiibaa`abgea",
"jhfaiadbiibaaabadaabaaaiiaaabaa`iiaaabiibaaaa`daabaajiibaa`abgea",
"jhfaiadbiiibaabadaabaaaiiaaabaa`iiaaabiibaaaa`daabaajiibaa`abgea",
"jhfaiadbiiibaabadaabaaaiiaaabaa`iiaaabiibaaaa`daabaajiibaa`abgea",
"jhfaiadbiiibaabadaabaaaiiaaabaa`iiaaabiibaaaa`daabaajiibaa`abgea",
"jhfaiadbiiibaabadaabaaaiiaaabaa`iiaaabiibaaaa`daabaajiibaa`abgea",
"jhfaiadbiiibaabadaabaaaiiaaabaa`iiaaabiibaaaa`daabaajiibaa`abgea",
"jhfaiadbiiibaabadaaabaaiiaaabaa`iiaaabiibaaaa`daabaajiibaa`abgea",
"jhfaiadbiiibaabadaaabaaiiaaabaa`iiaaabiibaaaa`daabaajiibaa`abgea",
"jhfaiadbiiibaabadaaabaaiiaaabaa`iiaaabiibaaaa`daabaajiibaa`abgea",
"jhfaiadbiiibaabadaaabaaiiaaabaa`iiaaabiibaaaa`daabaajiibaa`abgea",
"jhfaiadbiiibaabadaaabaaiiaaabaa`iiaaabiiibaaa`daabaajiibaa`abgea",
"jhfaiadbiiibaabadaaabaaidaaabaa`iiaaabiiibaaa`daabaajiibaa`abgea",
"jhfaiadbiibaaabadaaabaaiiaaabaa`iiaaabiiibaaa`daabaajiibaa`abgea",
"jhfaiadbiibaaabadaaabaaiiaaabaa`iiaaabiiibaaa`dabaaajiibaa`abgea",
"jhfaiadbiibaaabadaaabaaidaaabaa`iiaaabiiibaaa`dabaaajiibaa`abgea",
"jhfaiadbiibaaabadaaabaaidaaabaa`iiaaabiiibaaa`dabaaajiibaa`abgea",
"jhfaiadbiibaaabadaaabaaidaabaaa`iiaaabiibaaaa`dabaaajiibaa`abgea",
"jhfaiadbiibaaabadaaabaaidaabaaa`iiaaabiibaaaa`dabaaajiibaa`abgea"
};
