/* XPM */
static char * rain_hi_xpm[] = {
"108 108 14 1",
" 	c #A699CF3CFFFF",
".	c #A699D34CFFFF",
"X	c #AEBAD34CFFFF",
"o	c #B6DADB6CFFFF",
"O	c #AEBADB6CFFFF",
"+	c #BEFBDF7DFFFF",
"@	c #C71BE38DFFFF",
"#	c #9E79CF3CFFFF",
"$	c #9E79C71BFFFF",
"%	c #8E38BEFBFFFF",
"&	c #69A6B6DAFFFF",
"*	c #4103B6DAFFFF",
"=	c #CF3CEBADFFFF",
"-	c #D75CEFBEFFFF",
" .XoX   XXOoooooXXXooXOo+oo+@+oooo+@oX.  XX  o++OXoo.  XXXX  .XXOXXXXOooXXXXXXX ###.oo#$   $ ooX.XXo++oo    ",
"  XXO.  XXXOoooooXXooOXo+ooo@@+oooo++XX  .X. X++oXooX  .XXOX  .XXOXXXXOooX.XOXX #$$ o+X$$  # XoX.XXOo++oX   ",
"#  XXX  .XXXOooooX.XooXXo+oo+@+oooo++oX.  .X  o++oOOX   XXOX    XoXXXXXooX.XOXX. $$$.oo $   # ooX.XXo++oo.  ",
"   .XX   XXXXooooO..ooXXooooo+@+ooOo++X.   .. X++oOXXX  .XXoX    XoX XXoooX.XoXX #$$ o+X$#    XoX..XXo+ooX  ",
" #  .XX  XXXXXooooX XoXXXoooo+++ooXXo+o        o+ooOXX   .XoX    XoX  XXooX.XOOX. $$$X+o $ . # oOX.XXo++oOX ",
" ##  .X # XXXXooooX  XOX.Xoooo++ooXXOoo.       Xo+oOX.    XXoX### XoX XXoooX.XoXX ### o+X$ X.  XoX..XXo+ooXX",
"X $   . ##XXX.XoooX #.XX .ooOXo+ooXXXooX        O+ooX. ##  XoX $$$.oX  XXooX.XoOX. ## X+o # X   XX...Xo+ooXX",
"X #$     $ XX..OooOX# XX  XOXXXoooXX XoX #      .oooOX #$# .Xo.$$$ Xo. .XoooX.XoXX     o+X  XX  XXX...Xo+oXX",
"XX $#    $$.XX XooXX $ X.  XXX.XoOXX  XX $$      XoooX $$$  XoX $$$ oX  XXooX.XooXX    X+o  XXX  XX.   O+oXX",
"XX.$$#   $$ XX  XoXX $$ . # XX  XXXX $ X.$$#  ##  oooO $$$$  Xo.$$$#XO. .XoooXXXoXXX   Xo+X .OX  XXX   Xo+OX",
"XXX $$## #$$ X   XXX.$$#  $# .   XX. $$  $%$  $$# XooOX$$$$# XOX#$$$ oX  XXooOXXooXX. .Xo+o. XoX  XX    X+oX",
" XX.$$$$##$%$.. #XXX. %$  $$#  $#    #%$ #%%$ #$$# XoOX %%$$  Xo $$$$XO. .XoooXXOoOXX..XXo+O Xoo. .X.    ooX",
". XX#$$$$$$%% . $ XX  $%$#$$$# $$$    %%$#$%%# $$$ XOOOX$%%$$ .OX#$$$ oX  XOooOXXooOXXXXXo+oXXooX  .     X+o",
"X .X $$$$$$$%$  $$ .  $%%$$$%$$$%%$$  $%%$$%%$ $$$$ XOXX %%%$# XO $$$$XO. XXoooXXOoooXXXooo+oXXooX        oo",
"o  XX#%$$$$$%%$ #$#   $%%%$$%%$$%%%$$ #%&%$%&%##$%$#.XXXX%%%%$  XX$$$$ OX .XOooOXXooooXXOoo+oXXo+O       #Xo",
"oX .X $%$$$$%%%##$$# #$$%%%%%%%$%%%%%$ %&&%%&&$ $%$$ XXXX#%%%$# XX $$$#XOX.XOoooXXOooooXOoo++oXo+oX      $ o",
"oO  XX$%%$$$$%%$#$$$##$$%%%%%%%%%%&&%%#$&&%%&&%##$%$# XXXX%%%%$  XX$$$$.OXXXXoooOXOoooooOo+++oXXo+o.     #$X",
"oo.# X %%%%$$%%%$$$$$$$$$%%%%%%%%%&&&%$ %*&%%&&$ $%$$ XXXX#%%%$# XX $$$ XOXXXoooOOOooooooo+++ooXo++X      $ ",
"XoX  ..$%%%$$$%%%$$$$$$$$%%%%%%%%%&&&&%#$&*&%&&%  $%$# XXXX%%%%$  XX#$$ .OXXXoooOOooOoooooo++ooOO++o  ##  $$",
" oo.  X %%%$$$%&%$$$$$$$$$%%%%%%%%%&&&&$ %*&%%&&$ $%$# XXXX %%%$# XX $$  XOXXoooXXoooOooooo+++ooOo++X  #  #$",
"$XoX  . $%%$$$$%%%$$$$$$$$$$%%%%%%%&&&&% #&*&%&&%  $$$ .XXXX$%%$$  XX#$  XOOOoooOXOooOoo+oo+@+oooo++o. ##  $",
"$ ooX  . %%$$$$%%%%%$$$%$$$$$%%%$%%%&&&&$ %*&%%&%$ #$$  XoOX $$$$  XX #  XXOoooooXXooooo++o+@@+oooo++X  #   ",
" #Xoo. . $%$$$#$%%%%$$$$%$$$$$%%$$%%&&&&%  &&%%%&%  $$# XooOX#$$$# XXX   XXoooooooXooooo+++++@@+ooo+@oX     ",
"   ooX.X. $$$$  $%%%%$#$%$$$#$%%$$$%%&&&&#X$&&%%%% X $# .oooO.##$# .XOX  XOooo+++oOoo+oo+++++@@++oo+@+XX   .",
".  O+oXXX $$$#   %%%%$ #$$$$  $%$$$$%%&&&$X %&%$%%$.. #  XoooX   # .XOX. Xoooo++++oOo++oo+@++@=@++oo+@oXX..X",
"XX.X++oXX. $$#  .#%%%$  $$$#   $%$ $$%%&&% X$&%$$%$ X    Xo+ooX.   XXOoX.Xoooo+@@++oo+++o+@@+@==@++o+@+oXXXX",
"XXXXo++oOX. $   X.$%%%#. $$#  X $$  $$%%%%$XX%%$#$$#XX   Xo++ooXX. XXOooXXo++o+@@@+oo+@+++@@@@@==@+++@@+OXXX",
"OXXXo+++oXX     XX $$$$ X#$$  X.$$   $$%%%$Xo %$  $$.XX .XX++oooOX.XXOoooXo++++@@@@+oo@@++@@@@@==@@+++@@oOOO",
"oooOO+@++oX.   .XoX#$$$ X $$  XX $ .  #$%%$ oX$$ . # XXX.XXo++ooooXXXoooooo+@++@==@@+o+@@++@=@@===@@++@@+ooo",
"oooooo@@++oX   XXOoX$$$$XX $  XXX # X  #$$$#XoX$ XX  XXXXXXo+@+ooooXXooo+ooo@@++====@++@=@+@==@====@@+@@@ooo",
"++oooo+@@++XX  XXOoo #$$ OX## XXoX  XX  #$$ Xoo  XXX XXXXXXX+@@+o++oXooo++oo@@@@@====@+@=@@@===@=-==@++@@+oo",
"+++ooo+@@@+oX...XXooX #$#XO # XXoO  XXX. #  .ooX .ooX.XOXXXXo@@+++++oooo+++o+==@@=-==@+@==@@=========@+@=@+o",
"+++++++@=@@+XXXXXXo+o. #$XoX  XXooX XXXXX   XOooX.OoOXXOOOOOo+@@+++@ooo++++++@==@=--==@@@==@@=====-===@+@=+o",
"++@+++++==@@oXXXXXoo+O  # ooX .XOooX.XXXXX  XXo+oXXooXXXoooooo@=+++@+oo++++++@==@@----=@@=====-=======@+@@@+",
"++@@++++@==@@OXXXXoo+oX  #XoX  XOooXXXXXXXX.XOo+oXXo+oXXOooooo+=@++@@+o+++++++===@=----=@============-=@+@@@",
"++@@@+++@===@+XXXXoo++o    ooX XOoooXXXOOOXXXoo++oXo++oXOoooooo@=@+@=@++++@@++@====----========-=====--=+@@@",
"+++@@+++@@===@OXXXXoo+oX   XoOXXXOooXXXOOOoXXOoo++oo++oOOOooooo+=@++@=+o+++@@++=====----==========@===-=@+@@",
"@++@=@+++@===@+XXXXOoo+O    ooXXXOooOXXXXOoOXXo+++ooo++oOOXooooo==@+@=@++++@@@+@====----==========@@@==-@++@",
"@+o+@@+++@@===@X.XXXOo+oX   XoOXXOooOXXXXOooOXo++++oo+@+oOXOoooo+=@++@=+o+++@@++@====----=========@@@@=-=+++",
"++oo@=@+++@===@oXXXXXoo+O   .ooXXOooOXXXOXooooo++++oo+@@ooXXooooo==@+@=@++++@@@+@=================@@@@@=-@o+",
"+++o+@@++++@==@@XXXXXOo+oX  .XooXOoooXOooOooooo+++++oo@@+oOXXoooo+=@++@@+o+++@@++@================@@+++@-=+o",
"o++oo@=@+++@@=@@oXXXXOoo+O .XXoooooooOXoooOo+ooo+@+++o+@@ooOXooooo==@+@@@oo++@@+++@@=========@@===@@++++=-@o",
"oo+oo+@@++++@==@+OXXXXoo+oX.XXooooooooXooooo+++o+@@++o+@@+ooXOoooo+=@++@@+o+++@@+++@@@=@@====@@@==@@++++@==o",
"oo++oo@@+++++@=@@+XXXXOoo+oXXXoooooo+oOOooooo++++@@@++++@@ooOXooooo@=@+@@+oo+++@+o++@@@@@@@@==@@@@@@+ooo+@=@",
"oOo+oo+@@+o++@=@@+oXXXXoo+oXXXoooo++++oOo+ooo++++@=@++++@=+ooOooooo+=@++@+ooo++@+oo++@@@@@@@@=@+@@@@++ooo+==",
"+Xooooo+@+o+++@=@@+oOXXooo+oXXoooo++++ooo++oo+++++==@++++@@oooOooooo@=@++++ooo++@+ooo+@@+++@@@@++@@@++oooo@=",
"@oXooooo@@+o++@=@@+ooOXOoo+oXXo++o+++++ooo++oo+@++@=@++++@=+oooooooo+=@++++oooo+@+oooo+@++++@@@@++@@++oooo+=",
"=+Xooooo+@+oo++@=@@+ooXOooo+oXo+++++@@++oo+++o+@@+@==@++++@@ooooooooo@=@+++oOooo++oOOoo+@+o++@@@+o+@++oOXOo@",
"@@oXo+oOo++oo++@=@@++ooXooo+ooo+++++@@@+oo+++o+@@@+@=@@+++@@+oooooooo+=@++ooOXoo+++oXXXo++oo++@@+o++++ooXXX+",
"+@+Xooooo+++ooo+@=@+++ooooo++ooo++++@=@@+oo+@+o+@@@@==@@+++@@ooooooooo@@@++oOXXoo++oXXXX++oOo++@+oo+++ooXXXo",
"o@@oXo+ooo++oooo@=@@+++ooooo++oo+@++@==@@+o+@+++@@@@@=@@+++@@+oooooooo+@@++oOXXOoo++XXXXo+oXXo++@+oo++ooOXXX",
"o+@+Xo++oo+++ooo+@=@++++oooo++oo+@@++@==@+oo@@+++@@@@==@@+o+@+ooooooooo@@@+oXXXXoo++oX. Xo+oXoo+++ooo+oooXXX",
"o+@@oOo+ooo++oooo@=@++++oooo+++oo+@@+@==@@+o+@@++@@@+@=@@@+o+@+oooooooo+@@@+OXXXXoo++X.  O+oXXoo++ooo++ooOXX",
"oo+@+Oo++ooo+oooo+@=@++@+oooo++oo+@@++@==@@o+@@++@@@++@@@@+o+++ooo+oooo+@@@+oXXXXOo++o.  .o+OXOo+++ooo+oooXX",
"oo+@+oo+++oooooooo@=@++@@+ooo+++oo@@@+@==@@+o+@@++@@++@@@@@oo++oOo++oooo+@@@+X.XXXoo++X   O+oXXoo++ooo++oooX",
"oo++@+oo++ooooooooo@=@++@+oooo++oo+@@++@==@@++@@+++@@++@@@@+oo++oOo+oooo+@@@@o..XXOo++o.  .o+OXOo+++ooo+oooO",
"oo++@+oo+@+oooooooo+=@++@@ooooo+ooo+@@+@==@@+o+@+++@@++++@@@ooo+oXo++oooo+@@@+X .XXoo++X   O+oXXoo++oooooooo",
"oo+++@+o+@+ooooooooo@=+o+@+oooooooo+@@++@@@@++++++++++++++@@+Oo+oXXo+oooo+@@@@o  .XXo++o.  XoooXooo+oooooooo",
"ooo++++oo+@+ooOOooOO+=@oo@@oOooooooo+@+++@@@@+o++++++++oo++@@oXoooXo++oooo+@@@+X .XXOo++X   O+oXXooooooooooo",
"ooo+++++o+@+oOXXXoOXo@@+o+@+OXoooooOo+++++@@++o++++++++oooo+@oXXooXXo+oooo+@@@@o  .XXoo+o   XoooXooooooooooo",
"ooo+++++oo+@+OXXXXXXX+@+oo++oXXooooXXo+++++++++oooo++++oOooo@+XXOoXXo++oooo+@@@+X  .XXo+oX  .OooOooooooooooo",
"oooo++++oo+@+oXXXXXXXX+@ooo+oXXXOooOXOoooo+++++oooooooooXXOo+@o.XOOXXo+oOoo+@@@@o   .XOo+O  .Xoooooooooooooo",
"oooo++++ooo+@oXX..XX..o@+ooooX.XXXoOXXooooooooooooooooooXXXXo++X XXX.X++oOoo+@@@+X   XXoooX .XOooooooooooooo",
"ooooo+++oooo++XX  .X. X++oXooo. XXXoX XOooooooooooooooooXX.XX+@o  XX.Xo+oXooo+@@+o   .XXooX  XXoooooooOOoooO",
"Ooooo+++oooo++oX   ..  o+oXXooX  XXXX  XXXoooooooooXOoooXX   X++. .XX X++OXoo+@@++X   XXOoo. .XOooooooOXOooX",
"Xooooo+++ooOo++X       .o+oXXOX   .XX.  XXXoXXXooooXXOooXX    o+O  XX  o+oXXoo++++o.   XXooX  XXoooooooXXooX",
"XXoooo+++ooXOo+o        X+oXXXX #  .XX #  XOXXXXOooXXXooXX    X++ # X. XooXXOo++++oX.  .XXoO  XXOOoooooXXXoO",
"XXOoooo++ooXXo+o.  #   # ooXXXX $$  XX $#  XXX XXOooX.XoXX  ## o+X# XX  oooXXOo++++OX.  XXOoX .XXOOooooO.XOo",
"XXXooooo++oXXXooX  ##  ##XooXX. #$#  XX#$$# XX  XXOoX XXXX. ###X+o $ X  XooXXXOo+++oXX  .XXOX  XOOXoooooX Xo",
"oX.XooOo++oXXXXoo #### #$ ooXX. #$$# .X $$$#XX   XXoO  XOX. #$$ o+X$ XX  XoXXXXo+++oOXX  .XXX. .XOXXooooX  X",
"oX.XoooXo+oOXXXOoX#$######XooXX #$$$  X.$$$$ X.# .XOoX .XX.  $$#Xoo # X  XooXXXXo++ooXX   .XXX  XoXXOooooX X",
"XOX XooXOoooXX XoX $# #### ooXX $$$$$ .X $%%$XX $ .XoO  XXX. $$# o+X# XX  XoXXXXX++ooOXX  ..XX. .ooXXo+ooX  ",
"XOX.XooOXoooOX. Xo.$$  ### XooXX#$$$$  XX$%%% X.$# XOoX  XXX  $# Xoo  XX. .XXXXXXo++oOXX.  .XXX  XoOXOoooo. ",
" XOX XoOXXoooXX .OX $   #   ooOX $$$$# XX $%%$XX $ XXoO  XXX. ##  o+X  XX  XXXX..X++oOOOX   .XX  .ooXXo+ooX ",
" XOX.XOoXXooooX  XX $#      XoooX#$$$$ .XX$$%% XX##.XOoX .XXX.    Xoo  XOX  XXX...o++OXoO.   .X.  XoXXOoooo.",
"  XXX.XoOXXooooX .XX # X    Xoooo.$$$$  Xo $$$$XX # XXoo. XXXX.   XooX .OO  XXX.. X++oXXoX    ..  .ooXXo+ooX",
". XOXXXooXXXoooo  XX.# XX  .Xo+ooo $$$  XoO $$$ oX  XXooX.XXXXX  .XOoo. XoX  ...   O+oXXoo     .   XoXXXoooo",
"X .XXXXXoOXXooooX .XX  XOX.XXO++++X### .XooX#$$ XoX XXoooXXXOXXX .XXooX Xoo.       .o+OXXoX        .ooXXoooo",
"oX.XOXXXooXXXoooo. XOX XooXXXoo+++o #  .XOoo  ##XoO..XoooOXXOOXXX.XOoooXXooX        X+oXXoo #       XoXXXooo",
"oXXXXOXXooOXXOoo+o XOX..oooXXoo+@@+o   .XOo+O    ooXXXooooXXOoOoXXXooooX.Xoo.      # o+X XoX##     # OOXXooo",
"ooXXXOOXOooXXXoo++X.XoX.X++oooo+@@@+X .XXoo++X   OooXXoooooXOooooXXOooooXXooX      ##X+o..OO $#      XOXXXoo",
"oooXXOooooooXXOo+@oXXooXXo++oo++@@@@oXXXXoo++oXXXXo+oOooooooooooooXXooooXXOoo.  #   $ ooX XoX$$     # XXXXoo",
"oooOOoooooooOXXoo@+XXoooXo@@+o++@===@oXXOoo+@+OXXXo+oooooooooooooooOo+oooXXo+X  $$  $$Xoo  XX $#    # XXXXOo",
"oooooooooooooXXOo+@+XOoooo+@@++@@====+ooooo++@+XXOo++oo+++ooooooooooo++ooXXO+o. $$# #$ ooX XX.$$   . # XXXXo",
"ooooooooooooooXOo+@@oXo+oo+@@++@@=====ooooo++@@oooo+++++++oooooooooooo++ooXXo+X #$$##$$XoO  XX $$  .  #.XXXO",
"oooooooooo++oooOoo@=+Oo++oo@=@+@@=---=@oooo++@@+oooo+++++++ooooooo+ooo++ooXXo+o  $$$#$$#ooX .X $$   X # XXXo",
"oOoooo+ooo++++oooo+==oo+++o+==@@@==---=++++++@@@ooo++++++++ooo+oooo+oo+++oOXXo+X $$$$$$$.oX  XX#$$  X. # XXo",
"ooOooo++oo++++ooooo@-@oo++++===@@==----@++++++@@+oo+++++@@++oooooOo+ooo++oOXXOoo #$$$$$$#OoX .X $$  .X # .XO",
"ooXOoo+++oo++++oooo+==+o+@++@==@@==----=@+++++@@@+o+++++@@@+ooo+oooo+oo+++oXXXooX $$$$$$$.oO  . #$#  XX   .X",
"oooXoo+++oo+@+++ooo+=-@o+@@++=-=@@==----=@++++@@@+o+++++@@@++ooo+oXo+ooo++oOXXXoo $$$$$$$ OoX .  $$  XX.   X",
"XooXXo++@+o+@@++oooo@-=+++@@+@==@@==----=@@++++@@@+o+@+++@@@+oXo+oOOo+oo+++oXXXooX#$$$$$$$XoOX.  $$# .XX    ",
".oooXoo+@@oo+@+++ooo+=-@++@@++===@@@=---==@@++++@@+o+@@++@@@++OXoooXo+ooo++oOXXXoo $$$$#$$ ooXX.  $$  XoX   ",
" XooXXo++@+o+@@++oooo@-=++@@@+@==@@@@=--==@@+++++@+oo+@+++@@++oXo+oXXooooo+ooXXXOoX$$######XooXX  $$  XoO   ",
" .ooOXoo+@@oo+@+++ooo+=-@++@@++@=@@@@@--==@@@+++++++oo@@++@@@+oXXooOXooooo++oOX XoX $#  ### ooOX. #$# .OoX  ",
"  X+oXXo++@+o+@@++ooo+@==++@@@+@@@@@@@=--=@@@+oo++++oo+@+o+@@++OXoooXXoooOo+ooX. Xo.$#      XooOX #$$ .Xoo  ",
"   o+OXoo+@@oo+@+++oo++==@++@@++@@@+++@=-=@@@+oooo++ooo+++o+@++oXXooXXoooOOooooX .XX $      .ooooX#$$  XooX ",
"   X+oXXo++@+o+++++ooo+@==++@@@++@@++++@-=@@@@+oooooooo+++o+@@++XXXooXXooOXooooX  XX $#      XoooO $$# XXoo ",
"    o+OXoo+++oo+++++oo++@=@o+@@+++++++++==@++@+oooooooXo++oo+@++oXXooXXOooXXooooX  XX#$ X    XooooX$$# .XooX",
"    X+oXXoo+++oo++++ooo+@@@++@@+oo++++oo@=@++@@oXoooooXXo+ooo+++oXXXoOXXooXXXoooO  XX $ XX   Xooooo $$  XXoo",
"X    ooOXoo+++oo+++++oo++@@+o+@@+oooooooo@=+o+@+XXOoooXXO++oo+++ooXXOoXXXoXXXXXooX  X.#$.XX  XXo+ooX$$# .Xoo",
"o    XooXXoo++ooo++++oo++@@@oo+@+oooooooo+=@oo++oXXXOOXXXo+ooo++ooXXXOXXXOOX.XXXoo # X $ XX  .Xo+++o $#  XXo",
"oX    ooOXooo+ooooo++ooo++@@+o+@@oooOoooXo@@+oo+oXXXXXXX.Xooooo+oooXXXXXXXOX..XXooX$ . ##XOX .XXo+++X$$  .Xo",
"oo    XooXXooooooooo++oo+++++oo+@+oOXXOOXXo@+oo++X.XXXXX..OooOoooooXXXXXXXXXX .XXoo $ . $ OO. XXo+++o $#  XX",
"ooX   .ooOXoooooooooo+ooo++++oo+@+oXXXXXXXX+@oXo+o. XXXXX XooOOooooOXXXXXXXXX   .ooX$#  ##XoX XXOo+++X$$  .X",
"Xoo    XooXOooooooooooooo+++++oo+@+XXXXXXX.o@+OOooX .XXXX  XoOXoooooXXXXXXXXX    Xoo $   $ ooX.XXo+++o $#  X",
"XooX   .OoOOooooOooooooooo++++ooo@+oX. XXX X++oXooO  .XXXX .XXXOooooOXXXXXXXX.    ooX$#  # XoX.XXo++++X##  .",
".XoO   .XooOooooXOooOooooo+@++ooo+@oXX  XX  o++XXooX  XXXX  XXXXOOXOOXXXXXXXXX    Xoo $   $ ooX.XXo+++o #   ",
" XXoX  .XOooooooXXooOXooooo+@+oooo@+XX  .X. X++oXooX  .XXXX  XXXOXXXOOOOXXXXXX  ## o+X$$  # XoX.XXO+++oX    "};
