/* XPM */
static char *magick[] = {
/* columns rows colors chars-per-pixel */
"128 128 25 1",
"  c #080818",
". c #020210",
"X c #000008",
"o c #080821",
"O c #080829",
"+ c #101029",
"@ c #131334",
"# c #212139",
"$ c #262644",
"% c #31314a",
"& c #383853",
"* c #42425a",
"= c #54546a",
"- c #51516a",
"; c #666679",
": c #777789",
"> c #6b6b84",
", c #888898",
"< c #9898a8",
"1 c #ababb6",
"2 c #bcbcc7",
"3 c #cfcfd6",
"4 c #fefefe",
"5 c #eaeaee",
"6 c #dedee7",
/* pixels */
"12<;-;<1,>-=;>:,,,<<<<<<<<<<<<,,,,:::;;;;=;==-**&-&$$$@%%++OOOoooOOo   oo  oOo  oooooO@OoO@**OoooOOOO+@@@@$:,<-@@@@$$@OOOOOOOOO-",
"21;$@&::;==;;::,,<<<1<1<1<<<<,,,,:::>;;;==---**&=&$$$@%-$+OOOoooOOooooo oooOOo  ooooooo oO%$OoooOOOO+@O@@@&<1<&@O@%=&@OOOOOOOO&<",
"3<*@$$=>;=;;:::,,<<<<<<<<<<,,<,,:::>;;=====***&=&&$$@@**@OOOOoooOooO++o  oooo    oooo   O$%OoooOOOO+@@@@@@;11;@@@@-=&+OOOOOOOO<5",
"6<&$%&-;;=;>::,,<<<<1<1<<<,,,,:::>;;;;;==--**&&&%$$@@$%$@@OOooooOOOOoOOo  oo oo        O$&@ooooOOO+@O@@@#@,3<$@O@@--+OOOOOOOO&64",
"6<*$&&=:;>>::,,,<<<<<<<<<,<,,::::>;;;====-***&&%%$$@%@@O@@+oooOooO+o O@o..  ooo    .. O&-%OoooOOO+@@@@@#@&<1;@@@@$%@OOOOOOOO@144",
"3,$&*&;,:;::,,<,<<<<<<<<,,,,::::>;>=;=---***&&%$$$$&$@+@$$+ooooooooooO@ .. ooo  ooo  o%;-@ooOOOO+O@@@#@@#;,,&O@O@@+OOOOOOOO%1444",
"1-%&*-:,;>::,1,,<<,<<<<,,,,::::>;;;====-***&&%&$$&*%@O+#%@ ooo     o+@O ..O+O .o+@OOO$--@OoOOOO++@@@@@$#$=>;@@@@@O@++++OO@;34445",
"=&&&-=,;>::,36,,<<<<<,,,,,:::>;;;;;===*-**&&%%$$%-&@+O@$$oooo   oooOOO ..o@+o  O$$@@@**@ooOOOOO+@@@@##$$$&-*@@@O@++++O++*<354442",
"%&*-==:>::,163,<,<<,,,,,,::::;;;;====---&&&&&$$$%$@+OO@@Oooo   ooOOOo    +%o  +$&&$$%&@ooO$@OO+@@@@#$$$#$$&*@@@@@O+++$=,2644445,",
"&*-==;>:::,44,,,,,,,,,,:::::>;>=;====*-**&&&$$$@@@+OOOOOooo ooOO+Oo  .  o++o o&-&%%%%@OooO$+O+@@@@$$#$#$#$*;#@@O@++@;,364444451*",
"*--=;;>::,343,<,<,<,,,::,::;;;;=;-=---&*&&&$$$@@@++OOOoooooooO@@+o.... oooo o+-*%%&&$+OOO@@O+@O@@#$$$$$$$$>>$@@@@@-,3544444441=&",
"--=;;>::,,33,<,,,,,,,::::>;;>=;=-=-*-**&&%%$$@@@++OOOoooooOO@@@Oo ....     oO@&&%*--&+OOO+O++@@@#$#$$$$$#;<;@O@O*,25444444446,&*",
"-=;;>:::,,1,,,,<,,,:::::;;;;;=====--**&&&%%$#@@@+OOOOooooOO@@@O .....  ... o+@$$&=;=&@OOOOO+@@@@$$$$$$$$&:<&@@$>154454444443:&*-",
"==;;>::,,,,,,,,,,,::::>;;;;;====--***&&%%%$@%$@+OOOOooooooOOOo ....   .XX. oO@$*;::;-@OOOO+@@@@$$$$$$$$$><,$@@:265633354442;&*--",
";;;::::,,:,,,,,:,::::>;;;;;====--*-**&&&$$$$&%+OOOOoooo   ooo ....    .... oO@-:,,:=&+OOO+@@@@$$$%%$%$$$,,-@@&,221<,<2653,&&*-*=",
":1<::::,,,,,,,::::::>;;;;=;===--*-**&&%%$$@*-$+OOOoooo       ....  oo ..   o@-:12<>&@OO+$@@@@$$$$%$%%$$*,*@@@-,<<,:,1632>&&*-===",
"11:::,,,:,,:,::,:::>;;;;=;====--***&&&%$$@$;-@OOOoooo     ...... ooOoo  ooO@-:13<:&OOOO@%@@@$$%%%%%%$$$;-@@#$-;>;;:1643:%&*--==,",
"1::,:,,,,,,:::::::>;;;;;=--==-*-**&&&%$$#@-:-OOOoooo     ....... OOo  oO+@%=,232,=+oOOO@@@@$$%%%%%%%%$&&$##@*;;;=;:2651%&&&-==;1",
">:::::,:,,::,::>:;;;;===;---*--&*&&&&$$#@@;,&OOOoooo     .....X  OO .o$*-;:1131,-+oOOO+@O@$$%%%%%%%%%%$$$@#%>:;;=;,231=&&*--=;;,",
"::::,:::,:::>:>>;;;;;===---*-***&&&&$$$@@#::@OOoooo     .....X.oOo . @:<,<3332,-+oOOO+@@@#$$$%%%%%%$$$$#$@-:,,;-*=:<1,&&*--=;;:>",
":::,,:,:::,::>;;;;;======-*--***&&%$$$@@@*:-OOoooo  ooo  ...X. OO . $,3311321,&+ooOO++@@#$%%%%%%%%%%$%$$$-:<<:=$$%;,:&**--=;;;::",
":::::::,:::>>;;;;=;=;==--*-*&**&&%&$$@@@@--@Ooooo oooo   .... ooo..O:65611<<:&OooOOO+@@@$$$%%%&%%%%&%$%$&:,,;&$$$$*:=**---;;;;;:",
"::,::,::::;;;;;;=;====-*-****&&&&%$$#@@@@$@Ooooooooo      . ooo . o=2453<:=*@OooOOO+@@@$$%->-&&&&&%%%$$&=>=*$$$%%%*;**-*==;;;:::",
"::::::::>;;;;;=======-*--***&&&%%$$#@@@+O@@+Oooo       ooo oOo ..o$<6432,>*@oooOOO+@@@$$$-,<*&&&&%&%%$%%%%$$$$%$%&-=*-===;;;>:::",
"::::::>>>;;;;=;=====---****&&&&&$$$@@@+OOOo@+oo     .  ooooOO ..o@;13621,;%OoooOO+@@@#$%=11>&&&&&&&%%$%$$$$$%%%%&&-&--=;;;;>::::",
":::::>>;;;;;======-*-*-****&&&%$$#@@@+OOOOoOoo         oO+Oo . oO-,13311:-+oooOOO+@@@$$%,3<&&&&&&&%%%&%$%%%$%%&&&*&-====;;:,:>::",
":::>>;;;;;========*--****&&&&%%$$@@@@OOOOoooooooooooo  oO@O X.O$-;:,122<:$ ooOOO+@@@$$%&<2>&&&&&&&&&&$&%%%%%&&&&**--==;;;,,::::>",
":>>:;;;;;=;===*-*--*-***&&&&%%$$@@@$+OOOooOOOOOOOoo  ..o@+oX o&;;;=:,<1<-OooOOO+@@@$$%%=<<-&&&&&&&&&&%%%%%&&&&*&---===;:<2<::;::",
":>>;;;;=;===---*-*-&***&&&&%%$$@@@$@OOOooO@&&@OOo  ... O%O  +*;:-&*=,1<,&oooOO++@@$$%%&=<>*&&&&&&&&&&&&&&&&&&**-*--=;:,111::>::;",
">;;;;;;===--*-*--****&&&&%;%%$#@@@$OOOOoO$*=&@O  .    o@*o o=,;*$@$-:<,;@ooOOO+@@@$$%%&;:*******&&&&&&&&&&*&***-===,1322,>::;::>",
";;;;;=====-*-&**&****&&&&>%$$#@@@OOOOOo+$**&@O ...  ooO$%Oo#,,-@OO@*:<<=@OOOO+@@@$%%&&&-;*********&&&&&&&***-----,111<:;:>:;:>>;",
";;;;====--*--*******&&&&;-$$$@@@+OOOOoO$%&@+Oo ...o  O%+oo+=,:%@OO@*:<,>%@OO+@@@$%%&&&&**********&&&=*&*****-*--;1<:;;;;>>::>>>;",
";;=======*-*-&****&&&&&-&%$$@@@++OOOoo+@@Oooo  .     O*O O;,,;&$#@$=:1<:-$@+@@@$%%&&&************&-:-&****-----==;;;;:>>>>:;>>;;",
";=;====*-********&&&&&&*%$$@@@@+OOOooO@Oo ooo    ....o@@@=12,,>===;:<11,-+O+@@$$%%&*****-*********:;******-*-==;=;;;;>>>>>>;;;;;",
"=====---*****&&=*&&&&%&$$$@@@@OOOOOooOO   oOOo   ... o+;1633211,,:,<<1<;$O+@@@$%&&&***-*-*--*****>-&**------==;=;;;;:;>;;;;:;;>;",
"===-*-*******;::&&&%%$%$$@@@@+OOOooooo    o#%o..   o@*:34455631<,,,11<=OOO@@@$%%&&****--*--*---*-*-*-*-*---==;=;;;;;;;;;:;;;;;;=",
"==---******&>1<=&&&%%$%$@#@@OOOOOoooo    o+-- ..oo@*,344455562<:;;:,,:@OO+@&$$%&&***--*-::*-*-*-*-*-*==---=;=;;;;>;;;;;;;;;;;;==",
"---*-**&*&&;251&&%%$$%$@@@@+OOOOoooo     O&-$o o&;<3544466632<;&&-=;-@OO+@@$$$%&&***-*-,1:----*---=-========;=;;;;;:;;:;;;;=;===",
"-*****&&*&*243=&&%$&$$@#@@O+OOOooooo     +=&OO$;13444531112<>&@OO@%$OoO+@@@$$%&&**----=21=-------=--=====;;=;;;;;;;;;;;;;;=;====",
"*****&&&&&144,%%%$%=&@#@@++OOOOooOo      +%@+&<6444452<<,,:-@o  oOoOOOO@@@$$%&**--*--=<6<===------======;=;;;;;>;;:;;;;;====----",
"***&&&&&&:643%%%%&%&$@@@O+OOOOoOOo     .oO+@*<544452,=--==%Oo  ooooO+$%$@$$&&&*-*=---=12-=============;=;;=;;;;;;;;;;;;=;====-**",
"*&&&&&&&&246=%%$$-&@@@@++OOOOo+@Oo     . oO*<64453,-%@O@@Oo    oooO+$&&$#$%%&*-*=====>1:==========;=;=;=;;;;;;;>;;,;;;=====*-*-*",
"&&&&&&&&:32;%%$$$$@@@@%=*@OOO+@Oo     ...o%<6446<=#OOOOoo     O@%***&&$@$%&&**-=--==;>:;;=;=;==;=;=;=;;;=;;;;>;=;;,======---*-**",
"&&&&&&&=<1:%$$$$$@@@@=<:$OOoO+Oo     ...o$,6443<*@o         o+-:;=*%$%&&%%&&*-*-===;=>=;-;=;-;=;=;=;;;=;;;;;;;=;;==;====-**-***&",
"&&&&&%%;::%$$$$@@#@@>1,&OOooooo       oO*<3443,$O        oo@&;::=%@+@$*-&&&*-*===;=;;=;;;;;;;;;;;;;;;;;;;;;>;;;;;=;====-******&&",
"%&%%%%-;=&$$$$##@@@&:*OOOoooooo     oO@;15443;+  ...  oooo+&;,;*@O+@@*=&&&*&--=-;=;=;;;;;;;;;;;=;;;;;>;;>;;;=;==;====-*-***&&&&&",
"%%%%%&--%$$$#@#@@@@&@OOOOooooo    oo+$;<3561=O .....oOO+O+@&=*@OOO@@%=&%&*----=;=;;;;;;;;;;;;;>;;;>;=>;=>=>=;=;====--*-**&&&&&&&",
"%$%%$*&%$$$@#@@@@@OOOOOoooooo   oooO$-:232>#O ..... O@@@@@$&$+OOOO@%=%&&**--===;>;;;;;;;>;;:>;;;>;;;>;>>;;;;;=;==;-*-*-&&&&&&&%%",
"%%%$$&%$$$$@#@@@@OOOOOOooooo   oooO@&=:,:*O .. ... o@#@O@@@OOOOO+@@-&%&*-=-=;=;;;;>;>;:;;1,:;;;;;;>;;;;;;;=;=;=->,;=***&&&&&&&%%",
"$$$%$$$$$#@@@@@++OOOOOooooo   ooooO@-,,=@oo ...... o@$#@oOOooOOO@@$$&&*&-===;;;;;;;;>>>:13,;;;;:;;;::;;;;;;=;---11,;-&&&&%&%%%%$",
"%$$$$$$#$@#@@@@O+OOOOoooooo   ooooO&:1,#o oo ..... o@&%@OoooOOO+@@$$&&*---;;;;;>>:>::::11<>:::>;;;;:>;>;=;===-=:33,=*&&&&%%%%%%%",
"$$$$$$#@@@@@@++OOOOOoooooo        +;<2>O.. oo .... O%=-@oooOOO+@@$$&&*=-===;;;;>::::::<1<::>>>:;;:;,:;=;=;===-=263,;-&&%%$$%%$%$",
"$$$#$@@##@@@O+OOOOOoooooo        o&131*o .oooo ...o$;:&OooOOO@@@#$%&*=;-=;;;;:::<1,;:::::;:::>>::;;1,;;=;====-1661;&&%%%%$%$$%$%",
"$#$#@$@@@@@++OOO+Ooooooo      .. @,56<$o ooo   .. @=,:$oooOOO+@@$%&&*;==;;;;>:;<32:::::;:::;:>>;;;<2:;=;==--=<363,&%%%%$$$%$%$$$",
"$@@#@@@@@@O+OOOO+oooooo        .o;346:OooOOo     o$>:*OooOOO+@@$$&&*--=;;;>::::31,:::::,::;::>>;;,31;=;--=-*:222,-%%%%$$$$$$$$$#",
"$@#@%@@@@++OOOOOoooooo       .. &3442-O ooOOOoo o+*;-@ooOOO+@@#$&*&-===;;>::::161:,::,::>::::>:;;13<;====*-*;,<,-%$$$$$$$$#$##$#",
"@@#$&@@@O+OOOOOooooOOo         +,445,@o  oo@%@Ooo+$$O ooOO+@@@$%&*--=;>;>::>::23,:::,::,::;:;>>;,2<;=;==--**&&--%$%$%--%$#$$$$$@",
"@@@*$@@++OOOOOooooOOo       ..o=3443=o .  @-=%OooOOOOooOOOO@@$&&**==;;;>::::::31::,:::::>:::>:;;:<:;==---**&&%%$$$$%=*#$@$$$$@$@",
"@@&*@@O+OOOOOooooOOoo         @<444<@ .. O*:;%o   ooooOOO+@@#$%&-==;;;:::::,,,<,,,,,:,::,;::>;;;;;;===-***&&&%%%$$$&$$$@$@#@#@@@",
"@@*$+++OOOOOoooooOo         . ;3444;o...o@;,;$o   ooooOO++@@$%&**-;;;>::::,,,,,,,,,,::,:::;,:;;;;;:==*-**&&%%%%$$#$###@#@#@@###@",
"@@$++OOOOOOoooooooo        . @14442$ .  O%;,>@o oooooOOO+@@$%&*-=;;;>:::,,,:,,,,,,:,,:::,:,,;;;;=<,=--**&&&%%%$$$@#@@##@#@$**@@@",
"@+O+OOOOOOOooooooo         .o;5443-o..  O*,<;@  ooooOOO+@@$$&&-==;;>:::,,,,<,,,,,,,,,:,::<1<;;;;;1<--*;&&%%$$$%@@####@#@#@&&@@@@",
"+++OOOOOOOOoooOoo          o%1444:O  .  O=<1=O ooooOOO+@@#%-&*-=;;>>::,,,,,,,<,,,,,,,::::21;;;==<2>***=&&%%$$#$##@@@@$@@@@@@@@@@",
"+OOOOOOO@@+OOOoo        ooo$<5443$ . .. O>21-ooooooOOO@@@&-&&-==;>:::,,,,,,<,,,<,,,,::::26<;>=;:1>-**&&%%$$$$&$@@@$@@@@@@@@@@@O@",
"+OOOOOO+$$@+Oooo      ooOO$:3443:o.. .. @<2<$ ooooOOO+@@&-&*=-;;::::,,,,<,<,,<,,,,,::,::32;;;==<,***&&&%%$$#&&$@#@@@@@@@@@@O@@@O",
"OOOOOO+$&$Ooooo  ooooO@@$$*1545:O .. . o&12,+ooooOOO+@@$%&*-==;>::,,,,,<,,,,,,<,,,,,:::12,;;;==>-**&&&%$$$$@-%@@@@@@@@@@@O@@@O++",
"OOOOOO@&$@ ooooO++OO@$&%%$-<643# ... . O=2<=OoooOOO+@@$$&*--=>>::,,,<,<<<<<<<,,,<,:::::,,;;====-&*&&&%%$$#@-&@@@@@@@@O@O@@@O+++O",
"OOOOOO+OOOOooo@$%%@@@@@@@$*<33>O.....  @:2<&ooooOOO+@@$%&--=;;::,,,,<<<<<<<<<,<,:,,:::>;>=====-**&&%%$$$$#%=$@@@@O@O@@@@@++++OOO",
"OOOOOOOoooO+@$$$@+O@OoooO@-,<:$o..    o%:1:@oooOOO+@@$&&*-=;;::,,,,<<,<,<<,<<,,,,,:::>;;;;==;;**&&&%%$$#@&--@@@@@@@@@O@O+++OOOOO",
"OOoOOOOoooooOOOoo      oO$-:,=@  .    O-,<=ooooOO+@@#$&*-==;>::,,,<<<<<<<<<<,<,,,::::;;;===::=*&&%%$$$##*::-@O@O@O@+++++++OOOOOO",
"OooooO@+Oooo          oO@*->;*+    ooo+*;:%oooOOO+@@%%*--=>>::,,<<<<<<<1<<<<,,,,,:::>;;;=:,<;*&&&$%$$@&;>,,&@@@@@+++++++OO@%OOOO",
"ooooooOOOOo         ooo@*=;;=%Oo oOOoOO$*&OooOOO+@%$%&-==;>::,,,<<<<<1<<<<<<<,,,:::>;;;=:121-&&%$$$#@=:112,@@O@O++++++OOO+*@OOOO",
"ooooooO@$@OooooooOOOOO@*;:=;-OOooOOoooo+@@OoOOO+@@$%&--=>>::,,,<<<<1<<<1<<,,,,,,:::>;;=:<31:&&&%%$$&><1332;@@@@++++++OOOO@#OOO+O",
"oooooO&:,=@oooooOOOoo@=<,:=-&O oOo     OO+OoOO+@@$$&*-=;;::,,,<<<1<<<1<<,<<<,,,:::>;;;:<12,*&%%$%>,<12363=@+++@+++OOOOOOOOOOOoOO",
"OO+O@=<1<=Ooooooo   o%<2<>*$@o  o     oO@$@OOO+@#$&*--;;::,,<<<<<<1111<<<<,,,,:::>;;;>,<,,-&%%%:<1321221,+++*&++OOOOOOOOOOOOOooo",
"@$%*;12,#Oo        oO:36,=$Oo         o+*;-$O+@@$%&--=;::,,,<<<<111<21<<<<,,,::::;;;=::,>&&%%%165632221:$++$;$OOOOOOOOOOOOOooooo",
"&-=:<1,@oo        o@-132;$O       oo o@=,<;$+@@$&&*-=>>:,,,<<<11<111<<<<<,<,,:::>;;==;*=*&%%;254531,<<,$++$;=OOOOOOOOOOOOooooooO",
"=>:<<,&oo      ooO$*>12,@o          o+:121=++@@$%*--;;:,,,<<<<1<111<11<<<,,,:::>;;;==-*&&&%=24446<,,,,=O++;:&OOOOOOOOOOoooooooo@",
";::,:$ oooo   O@$%*=;<,-o       o  oO;261>@+@@$&*--;;::,,<<<11111<11<<<<,,,,::>;;===-**&&%*<5443,;=;:*+++$>=oOOOOOOOOOoooooooo+&",
";,,:&oooo    o+@O@+%=;-+          o$:353:++@@$%&--;;::,,<<<1111<111<1<<,,,,:::;;;==*-*&&%$;3453:*%&-%++Oo-;#OOOOOOOOoooooooooo@-",
">,;=@ooooo   O@+O  O&*$OooOo  o o+=2542;++@@$%&-=;>:,,,<<<11<1111<1<<<<,<,:::>;;===-&&&%%$;12<-O@@@O++OO$-$OOOOOOOoooooooooooO%=",
",,:*Oooooo  o+@Oo oO$$@@##@OoO@$-<6443;OO+@#%&*-;;::,,<<<1111<11<11<<<,,,:::>;;;=--**&%%$$;1,&@@@++++OOO%$OOOOOOoooooooooOO@*;:,",
"<,;$OoooooooO@OOoooO@@$-=&@O+$;136561=OO+@@$&*==;>:,,<<<111111111<<<<<,,,::>;;=--:;=&&%$$@=:&@O++++OOO$&#OOOOOOooooo+$%$$&;,1211",
"<:*@OoOOOOoO@@+@@OoO+$*==$@@&>13631;@@O+@@$%*--;>:,,<<<11111111<111<<,,,::>;;==,23<-&%$$$&=*O@@+++OOO$==$+OO++OOOO$-:,:::<355532",
">*@oooOOOOoOO++$%@ooO@&%@OO+*:,,;-@OOO+@@$&&--;;:,,<<<11111121111<<<<,,:::;;;;,333,&%%$$-;&@@@O++OOO$=;=&%%&&$@+@-:<<,:,1333311,",
"$OoooooooOOoooOOOOOooOOoo  O$-&@oooOOO+@--&*-=;::,,<<111121211111<<<,,,:,;;;=;<31=&%$$-::=@@@++OOOOo&==>=;==*$@$=:<<:==:<1<,;=*&",
"ooooooooooOoooooooOOo      oOOooooOOO+&:;-*-=;>:,,<<11112121111<<<<,,,::>;;==-=;&&%$&:<1:%@@O+OOOOOO$-=>=;*$@OO@&=-$+O@&-=$@OoOO",
"oooooooooOoooooooOOO       ooooooOOO+-:,;*-=;>:,,<<11111<2111<1<<<,,,::>;;=---*&&%%$<563;@@++OOOOOO@&;;>-%@oooooooooooo+@@Oooooo",
"ooooooooOOoooooO@@Oo      ooooooOOO+$=:=*-=;>:,,<<1111122<1111<<<,<,:::;;===-**&&$$1543<%@O+OOOOOO@&=;=*@OOoooooooooooooOooooooo",
"ooooooooOoooo O&*$o      oOoooooOOOO%=*&-=;;::,<<<11112121111<<<<,,:::>;;==--*&&%$14442-@++OOOOOO#-:;=$oooooooooooo oooooooooOoo",
"ooooooooOooooO&;*+    oO+@OoooOOOO+@@$&*-=;::,,<<11112112111<<<<,,,::>;;===-&&&%$15442-O++OOOOOO@=:,=@Ooooooooooooo oOooooO@@@Oo",
"ooooooooooooo#;:&o   O@%@OoooO$@O+@@$&*-=;::,,<<11112112111<1<<,,,::>;;==--**&%$:6442%@++OOOOOO#-:,;@oooooooooo   o+#$@Oo+*>;&Oo",
"oooooooooooo+-:>@   @&%$Oooo+&*$+@@$%&--;>:,,<<1112121212<1<<<,<,:::;;;==***&&%=1443*@O++OOOO@#*=>=@+oooooooo   o@*>:;*%*><1:&Oo",
"oooooooooooO&<<=O  O%%OooooO%==$@@$$&*==;:,,<<1111212121111<<,,,:::;>=---*&&&%$>343-@++O@$@@@$%*-&@Oooooooo    O%:<31<,,<22<-+oo",
"ooooooOOOoO#;1<$oo@&$Oooooo@*;-#@@%&*==:::,<<<11212112111<<<<,,,::>;;==-&&&&%%$:36,@O++$$%$@#@#$@Oooooooo   oO$;<3333<<<11:%Oooo",
"oooooo+@OO@;11:O @::@oooooO@&-*@@$&*-;;::,,<<11112112111<1<<,,,::>;;=-=**&&%$$$:21&+++&=&$@@O@++OooooO@+o   o@=<34443<,;=$Oooooo",
"oooooO$@@@&,1,%OO;1:OoOOOOO@*=&$$&*-=;::,<<11112121212111<<,<,:::;;===-*&&%$$$@,<=@+@%-*#OOoOOOooooo@*-$O  oO&>13553,=%@Oooooooo",
"oooO@%&$@&=<,@oO=33-oo@@OOO@-=*&&&-=;>:,,<<111121212111<<<<,,:::;>=;==-&&&$$$@&,<@++&=*$OOOoOOOoooO$-;*$O   O-,3552=Oooooooooooo",
"ooo@&*%@@%=;-oo&35<Ooo%@OO@%=>=*&--;;:,,<<11121211212<1<<<,,:::;;===-=*&&$$$##&>-++O*-@OOooOO+Oooo$=;*@@@o  @>1631=OooooooOooooo",
"ooO#&$OOO#&$@O&143=OoO%@OOO->,>**==;::,<<1111211312111<<<,,,::;;;==--;&%%%$$@@$#++O&;&OOOoO@$@Ooo@=:;@oO$o o;266<$oooooooooooOOo",
"oooOOOOoOO@OO-153;@OO@#+OO&;,1:*==:::,<<11112121112111<<,,,::>;;===--=*&$$#@#@@++O-;-@OOoo@*%Oooo%:;$OO+#oo$1451&ooo%&OoooooOOOO",
"OoooooooooOO@:12:@ooO@@+O@=<22>--;>:,,<<111113112111<<<,,,:::;;==--;-;=*$##@@@@+O%>>%Oooo@-=$oooO;,*OO@@OoO:443*ooo@=@ooooOOOOOO",
"OOoooooooooO&=;=@oooO@%@#*:363;-;;:,,<<111212113111<1<<,,:::;;;==*-==>=*$@@@@@O+%=;&Oooo+*=&Oo o$::@ O*@oO*245;Ooo@-%ooooO@OOOOO",
"Ooooooooooooo@$$OoooO%&&*:2443==;:,,<<1111211211111<<<,,,::;>==--*--*>>$##@@+O+@&*%OoooO%=-@o  o=,;O O-+o+,56,O oOO@OooO#@oOOOOO",
"OoooooooOooooo@@Oooo@=>>:3544<;;:,,<<111121211211<<<<,,,::>;;;==**&&&;-$@@$*&@++@@@oooO$==$    @;>$o o%Oo&16<Oooooooo@&=&@OOOOOO",
"OooooooOOooooO@@OooO=,<125446=;::,,<<111311121111<<<,,,:::;;=---*&&%%$$@@@;>%OOOOOOooO#;:=O   o%;*O   OO+;11-oooooOO@&&@OOOOO+OO",
"OoooooO@Ooooo#$@OoO@,2264446,=>:,,<<111612211111<1<,,,:::;;;--***&%$$$@@-::-OOOO@$$@#*;,:%O   O&=@O   O@&:,;%OoooO@&*&+OOOOO+OOO",
"Oooooooooooo@*&OoOO=2554444,;;::,<1<11542112111<<<,,,::>;;=-=-**&%&$$@@-,1:$OOO$;,::,121>@o oO@&&OooO+#&=:::*+ooo+#@OOOOOOOOOOOO",
"Oooooooooo@%&-$OOO=<6444443;;::,<<111353121111<1<<1<:::;;;===**&&%$$$@-,<<=@OO*<3563332,*Oo O@%%@++$-;;=;:,:=@OooOOOOOOOOOOOOOOO",
"OoooooO+@%-:;*@oOO:3544446,;>:,,<<<1146121111<<,<2<::>;;;==--*&&%%$#@-:12<=$&;15444563<-O  o+$$#@&=,<:;;><<;@ooooOOOOOOOOOOOOOOO",
"OooooO$*---=-OOOO$,354444<=;:,,<<111351211111<<<2<,::;;;===***&&%$%&=,122,>;<3444453<:*O   o@$$$&;<<:*#%;<,$ooooOOOO@%OOOOOOOOOO",
"ooooo@&*%%%@OoOOO*,344443;>:,,<<11115321111<<<<1<,::>;;;=--**&&$$&*=:1232,,164443,=&@Oo    oO@#*;<<;#oO@*-@OooooOOOO&#OOOOOOOOOO",
"oooo+@@OoooooOOO@=164445<>:,,<<1111332111<1<<<,,,:::;;;=--**&&%$&&-;:11<<:,16443=+o        oO@&:,:*Oo  o@OooOOOOOOO@$OOOOOOOOOOO",
"oooOOOooooooOOOO@,344446,::,<<<11115211111<<<,,,:::;;;=--**&&&$$%&-;,<<:>=>,1,*#@oo       oo+%;11&  o   OOO@$OOOOo@@OO+OOOOOOOOO",
"oO@+oooooooOOOO+*1444443,:,,<<1111351111<<<<,,,:::;;;===-&&&&%$$%&*;;>=*&%%*$OoooOOOoOO  o+@&;,2,o  @o oo@%*$OOOOOOO+++OOOO+OOOO",
"O@@OooooooOOOO+&<5444446<,,<<1<11252111<1<<,,,:::;;;==--*&&*&&&&*===-&$@OOoOOoooOOOoooo  O$&-<2<&o o+ooooO#@OOOOOO+++++OOO+OOOOo",
"@$OoooooOOOOO@@<44444442,,<<<111163111<1<<,<,:::>;;===-&*&&&&&***&%$OOOOOoooooO@@Oooo   o+%->1<&OoOOO ooooOOOOOOO++++++OOOOOOOOo",
"@+ooooooOOOO+$<5444445<:,,<<1<12551111<<<,,,:::;;;;==--*&&%&&*&$@@+OOOOOoooooO@$Oo   .. O$->:<:@ oOOooooooOOOOOO+++++++OOOOOOOO+",
"OoooooOOOOO@@<44444441,,,<<<13445111<<<<,,,:::>;;====***&&%$$@@@@OOOOOOooooo@%$Oo    .. @*=::;%o  OOoooooOOO++++++@++++OOOOOOO@@",
"ooooooOOOO+@<5444445<:,,<<<15445111<<<<,,,:::>;;;=---**&&%%$@@@@+OOOOOooooO$--@o  .....o@-;,:-+  oOOooooOO@$@++++@@++++OOOOO+$#+",
"ooooOOOOO@$14444443::,,<<<154431<1<<<<,<,:::>;;;===-**&&%%$#@@@O+OOOOoooo+#&%@O  ..... o@=>,;@O oO@OooooO@-*@++@@@O@+++OOOO@@@Oo",
"ooOOOO@O+*16444461;::,,<<135611<1<<<<,,,:::>;;;;==*-*&&&$$$@@@++OOOOooooO@@#O   ...... o%>,<;O  O$#OoooO+*-$++@@O@@@+++OOO@#@OOo",
"OOOO@&$&:3444446<;::,,<<<1121<111<<<,,,,:::;;;===--&*&&%$$@@@@@@OOOooooooOOo   X     . O-,,,&o o%*@oooOO&&@+@@@@@@O@+++OOO+OOOOO",
"OOO&:::<3544442:;::,,,<<<11<11<<<<<,,,,::>;;;;=--***&&%$$#@@@+OOOOooooOooo     oOo   . O;1<&o o$;$oooOO+*++O@%$@O@@+++OOOOOOOOOO",
"O@:11216444442;;>:,,<<<<11<11<<<<<,<,::::;;;====-&*&&&$$$@@@++OOOOoooOoo      +#@O    o$:1:O o&:=OooOOO@@+@+=;$@@@@O++OOOOOOOOOO",
"$,3533354463<==;::,,<<<<<11<<<<<<,,,:::>;;;;===*-*&&%%$#@@@++OOOOoooOOo      O$@Ooo . O=,>@oo&,;+ooOOO+++@@@;;&%@O@+++OOOOOOOOOO",
"<6561136531;==>>:,,,<<<11<<<1<<<,,,::::;;;====--&&&&%$$@#@@+OOOOoooOOo      o@@  oO . +=:$oO&:>@ oOOOO@+@@@*;;=$@@@+++OOOOOOOOO$",
"1531,<1321;-;;>:,,,<<<<<<<1<<<<,,,,:::;;;;=:--***&&%%$#@#@+OOOOooOOoo     .oOOo  oO  o$&$Oo$;=@oooOOO++@O@@=:,=@@O@+@+OOOOOOOOO*"
};
